<?xml version="1.0" encoding="utf-8"?>
<!-- Generator: Adobe Illustrator 19.0.0, SVG Export Plug-In . SVG Version: 6.00 Build 0)  -->
<svg version="1.1"
	 id="svg5838" sodipodi:docname="change_password.svg" inkscape:version="0.48.4 r9939" xmlns:dc="http://purl.org/dc/elements/1.1/" xmlns:cc="http://creativecommons.org/ns#" xmlns:rdf="http://www.w3.org/1999/02/22-rdf-syntax-ns#" xmlns:svg="http://www.w3.org/2000/svg" xmlns:sodipodi="http://sodipodi.sourceforge.net/DTD/sodipodi-0.dtd" xmlns:inkscape="http://www.inkscape.org/namespaces/inkscape"
	 xmlns="http://www.w3.org/2000/svg" xmlns:xlink="http://www.w3.org/1999/xlink" x="0px" y="0px" viewBox="-234 326.3 141.7 141.7"
	 style="enable-background:new -234 326.3 141.7 141.7;" xml:space="preserve">
<style type="text/css">
	.st0{fill-rule:evenodd;clip-rule:evenodd;fill:#FFFFFF;}
</style>
<sodipodi:namedview  inkscape:window-maximized="1" inkscape:window-y="-8" inkscape:window-x="-8" inkscape:window-height="705" inkscape:window-width="1366" fit-margin-bottom="0" inkscape:current-layer="layer1" fit-margin-right="0" inkscape:document-units="mm" inkscape:pageshadow="2" inkscape:pageopacity="0.0" fit-margin-left="0" fit-margin-top="0" units="mm" showgrid="false" inkscape:cy="12.035998" inkscape:cx="59.285714" inkscape:zoom="0.7" borderopacity="1.0" bordercolor="#666666" pagecolor="#ffffff" id="base">
	</sodipodi:namedview>
<g>
	<path class="st0" d="M-162.4,351c-25.4,0-45.9,20.5-45.9,45.9c0,25.3,20.5,45.9,45.9,45.9c25.3,0,45.9-20.5,45.9-45.9
		C-116.5,371.5-137,351-162.4,351L-162.4,351z M-162.4,438.6c-23,0-41.7-18.7-41.7-41.7c0-23.1,18.7-41.7,41.7-41.7
		s41.7,18.7,41.7,41.7C-120.7,419.9-139.3,438.6-162.4,438.6L-162.4,438.6z M-162.4,373.9c6.3,0,12.1,2.6,16.2,6.7l2.9-2.9
		c-4.9-4.9-11.7-7.9-19.2-7.9c-15,0-27.1,12.2-27.1,27.1c0,15,12.1,27.1,27.1,27.1c7.5,0,14.3-3,19.2-7.9l-2.9-2.9
		c-4.2,4.1-9.9,6.7-16.2,6.7c-12.7,0-23-10.3-23-22.9C-185.3,384.2-175.1,373.9-162.4,373.9L-162.4,373.9z M-162.4,373.9"/>
</g>
</svg>
