<?xml version="1.0" encoding="utf-8"?>
<!-- Generator: Adobe Illustrator 19.0.0, SVG Export Plug-In . SVG Version: 6.00 Build 0)  -->
<svg version="1.1"
	 id="svg5838" sodipodi:docname="my_profile.svg" inkscape:version="0.48.4 r9939" xmlns:dc="http://purl.org/dc/elements/1.1/" xmlns:cc="http://creativecommons.org/ns#" xmlns:rdf="http://www.w3.org/1999/02/22-rdf-syntax-ns#" xmlns:svg="http://www.w3.org/2000/svg" xmlns:sodipodi="http://sodipodi.sourceforge.net/DTD/sodipodi-0.dtd" xmlns:inkscape="http://www.inkscape.org/namespaces/inkscape"
	 xmlns="http://www.w3.org/2000/svg" xmlns:xlink="http://www.w3.org/1999/xlink" x="0px" y="0px" viewBox="-234 326.3 141.7 141.7"
	 style="enable-background:new -234 326.3 141.7 141.7;" xml:space="preserve">
<style type="text/css">
	.st0{fill:#FFFFFF;}
	.st1{fill:#FF6952;}
</style>
<sodipodi:namedview  inkscape:window-maximized="1" inkscape:window-y="-8" inkscape:window-x="-8" inkscape:window-height="705" inkscape:window-width="1366" fit-margin-bottom="0" inkscape:current-layer="layer1" fit-margin-right="0" inkscape:document-units="mm" inkscape:pageshadow="2" inkscape:pageopacity="0.0" fit-margin-left="0" fit-margin-top="0" units="mm" showgrid="false" inkscape:cy="12.035998" inkscape:cx="59.285714" inkscape:zoom="0.7" borderopacity="1.0" bordercolor="#666666" pagecolor="#ffffff" id="base">
	</sodipodi:namedview>
<g id="layer1" transform="translate(-120,-259.20135)" inkscape:groupmode="layer" inkscape:label="Layer 1">
	<g id="g5782" transform="translate(-991.99096,106.27674)">
		<path id="path2014" inkscape:connector-curvature="0" class="st0" d="M995,609.1h-90.3v-60.6h5v55.6H990v-31.2h5V609.1"/>
		<path id="path2018" inkscape:connector-curvature="0" class="st0" d="M909.8,540.3h-5v-34.9H995v16.1h-5v-11.1h-80.3V540.3"/>
		<path id="path2020" inkscape:connector-curvature="0" class="st0" d="M907.3,507.9h85.3v-14.4h-85.3V507.9z"/>
		<path id="path2022" inkscape:connector-curvature="0" class="st0" d="M909.8,505.4H990v-9.4h-80.3V505.4z M995,510.4h-90.3v-19.4
			H995V510.4"/>
		<path id="path2024" inkscape:connector-curvature="0" class="st0" d="M912.9,500.6h4.7"/>
		<path id="path2028" inkscape:connector-curvature="0" class="st0" d="M921,500.6h4.7"/>
		<path id="path2032" inkscape:connector-curvature="0" class="st0" d="M929,500.6h4.7"/>
		<path id="path2036" inkscape:connector-curvature="0" class="st1" d="M1001.7,565.7h-19v-27.1h19V565.7z M1011.5,566.9v-29.6
			c0-4.7-3.9-8.6-8.6-8.6h-21.4c-4.7,0-8.6,3.8-8.6,8.6v10.4h-86.8v9.8h4.6v17.8h9.8v-6.7h6.7v6.7h9.8v-17.8h55.8v9.4
			c0,4.7,3.8,8.6,8.6,8.6h21.4C1007.7,575.5,1011.5,571.6,1011.5,566.9"/>
		<path id="path2040" inkscape:connector-curvature="0" class="st1" d="M907.3,575.3v-19.7"/>
		<path id="path2042" inkscape:connector-curvature="0" class="st0" d="M904.8,575.3h5v-19.7h-5V575.3z"/>
	</g>
</g>
</svg>
