<?xml version="1.0" encoding="UTF-8" standalone="no"?>
<!-- Created with Inkscape (http://www.inkscape.org/) -->

<svg
   xmlns:dc="http://purl.org/dc/elements/1.1/"
   xmlns:cc="http://creativecommons.org/ns#"
   xmlns:rdf="http://www.w3.org/1999/02/22-rdf-syntax-ns#"
   xmlns:svg="http://www.w3.org/2000/svg"
   xmlns="http://www.w3.org/2000/svg"
   xmlns:sodipodi="http://sodipodi.sourceforge.net/DTD/sodipodi-0.dtd"
   xmlns:inkscape="http://www.inkscape.org/namespaces/inkscape"
   width="141.73228"
   height="141.73228"
   id="svg5838"
   version="1.1"
   inkscape:version="0.48.4 r9939"
   sodipodi:docname="my_profile.svg">
  <defs
     id="defs3" />
  <sodipodi:namedview
     inkscape:document-units="mm"
     id="base"
     pagecolor="#ffffff"
     bordercolor="#666666"
     borderopacity="1.0"
     inkscape:pageopacity="0.0"
     inkscape:pageshadow="2"
     inkscape:zoom="0.7"
     inkscape:cx="59.285714"
     inkscape:cy="12.035998"
     inkscape:current-layer="layer1"
     showgrid="false"
     units="mm"
     fit-margin-top="0"
     fit-margin-left="0"
     fit-margin-right="0"
     fit-margin-bottom="0"
     inkscape:window-width="1366"
     inkscape:window-height="705"
     inkscape:window-x="-8"
     inkscape:window-y="-8"
     inkscape:window-maximized="1" />
  <metadata
     id="metadata4">
    <rdf:RDF>
      <cc:Work
         rdf:about="">
        <dc:format>image/svg+xml</dc:format>
        <dc:type
           rdf:resource="http://purl.org/dc/dcmitype/StillImage" />
        <dc:title></dc:title>
      </cc:Work>
    </rdf:RDF>
  </metadata>
  <g
     inkscape:label="Layer 1"
     inkscape:groupmode="layer"
     id="layer1"
     transform="translate(-120,-259.20135)">
    <g
       id="g5782"
       transform="translate(-991.99096,106.27674)">
      <path
         id="path2014"
         style="fill:#282d33;fill-opacity:1;fill-rule:nonzero;stroke:none"
         d="m 1229.0144,282.79823 -90.2695,0 0,-60.61876 5.0102,0 0,55.61874 80.2661,0 0,-31.24411 4.9932,0 0,36.24413"
         inkscape:connector-curvature="0" />
      <path
         id="path2018"
         style="fill:#282d33;fill-opacity:1;fill-rule:nonzero;stroke:none"
         d="m 1143.7551,214.05572 -5.0102,0 0,-34.89783 90.2695,0 0,16.14693 -4.9932,0 0,-11.14692 -80.2661,0 0,29.89782"
         inkscape:connector-curvature="0" />
      <path
         id="path2020"
         style="fill:#ffffff;fill-opacity:1;fill-rule:nonzero;stroke:none"
         d="m 1141.25,181.65789 85.2627,0 0,-14.37488 -85.2627,0 0,14.37488 z"
         inkscape:connector-curvature="0" />
      <path
         id="path2022"
         style="fill:#282d33;fill-opacity:1;fill-rule:nonzero;stroke:none"
         d="m 1143.7551,179.15789 80.2661,0 0,-9.3746 -80.2661,0 0,9.3746 z m 85.2593,5.00001 -90.2695,0 0,-19.37463 90.2695,0 0,19.37463"
         inkscape:connector-curvature="0" />
      <path
         id="path2024"
         style="fill:#ffffff;fill-opacity:1;fill-rule:nonzero;stroke:none"
         d="m 1146.8738,174.36748 4.6694,0"
         inkscape:connector-curvature="0" />
      <path
         id="path2028"
         style="fill:#ffffff;fill-opacity:1;fill-rule:nonzero;stroke:none"
         d="m 1154.9685,174.36748 4.6694,0"
         inkscape:connector-curvature="0" />
      <path
         id="path2032"
         style="fill:#ffffff;fill-opacity:1;fill-rule:nonzero;stroke:none"
         d="m 1163.0463,174.36748 4.6864,0"
         inkscape:connector-curvature="0" />
      <path
         id="path2036"
         style="fill:#ff6952;fill-opacity:1;fill-rule:nonzero;stroke:none"
         d="m 1235.7458,239.40685 -19.0014,0 0,-27.14561 19.0014,0 0,27.14561 z m 9.799,1.22358 0,-29.59619 c 0,-4.73927 -3.8514,-8.58045 -8.589,-8.58045 l -21.4384,0 c -4.7376,0 -8.5719,3.84118 -8.5719,8.58045 l 0,10.42266 -86.7589,0 0,9.80746 4.6012,0 0,17.76589 9.7989,0 0,-6.73655 6.7485,0 0,6.73655 9.799,0 0,-17.76589 55.8113,0 0,9.36607 c 0,4.73758 3.8343,8.58046 8.5719,8.58046 l 21.4384,0 c 4.7376,0 8.589,-3.84288 8.589,-8.58046"
         inkscape:connector-curvature="0" />
      <path
         id="path2038"
         style="fill:#282d33;fill-opacity:1;fill-rule:nonzero;stroke:none"
         d="m 1219.2325,236.90684 14.0082,0 0,-22.14559 -14.0082,0 0,22.14559 z m 19.0014,5.00001 -23.9946,0 0,-32.14561 23.9946,0 0,32.14561 z m -89.5878,-13.1442 60.7875,0 0,11.86778 c 0,3.35209 2.7266,6.08046 6.0838,6.08046 l 21.4384,0 c 3.3572,0 6.0838,-2.72837 6.0838,-6.08046 l 0,-29.59619 c 0,-3.35379 -2.7266,-6.08045 -6.0838,-6.08045 l -21.4384,0 c -3.3572,0 -6.0838,2.72666 -6.0838,6.08045 l 0,12.92267 -86.7419,0 0,4.80574 4.6012,0 0,17.7676 4.7887,0 0,-6.73656 11.7587,0 0,6.73656 4.8058,0 0,-17.7676 z m 88.3097,22.94825 -21.4384,0 c -6.1179,0 -11.077,-4.97104 -11.077,-11.08047 l 0,-6.86777 -50.8011,0 0,17.7676 -14.7922,0 0,-6.73656 -1.7552,0 0,6.73656 -14.8092,0 0,-17.7676 -4.6013,0 0,-14.80747 86.759,0 0,-7.92095 c 0,-6.11112 4.9591,-11.08046 11.077,-11.08046 l 21.4384,0 c 6.1179,0 11.077,4.96934 11.077,11.08046 l 0,29.59619 c 0,6.10943 -4.9591,11.08047 -11.077,11.08047"
         inkscape:connector-curvature="0" />
      <path
         id="path2040"
         style="fill:#ff6952;fill-opacity:1;fill-rule:nonzero;stroke:none"
         d="m 1141.3352,249.03025 0,-19.71716"
         inkscape:connector-curvature="0" />
      <path
         id="path2042"
         style="fill:#282d33;fill-opacity:1;fill-rule:nonzero;stroke:none"
         d="m 1138.8471,249.03025 5.0001,0 0,-19.71699 -5.0001,0 0,19.71699 z"
         inkscape:connector-curvature="0" />
    </g>
  </g>
</svg>
