<?xml version="1.0" encoding="utf-8"?>
<!-- Generator: Adobe Illustrator 19.0.0, SVG Export Plug-In . SVG Version: 6.00 Build 0)  -->
<svg version="1.1"
	 id="svg5838" sodipodi:docname="change_password.svg" inkscape:version="0.48.4 r9939" xmlns:dc="http://purl.org/dc/elements/1.1/" xmlns:cc="http://creativecommons.org/ns#" xmlns:rdf="http://www.w3.org/1999/02/22-rdf-syntax-ns#" xmlns:svg="http://www.w3.org/2000/svg" xmlns:sodipodi="http://sodipodi.sourceforge.net/DTD/sodipodi-0.dtd" xmlns:inkscape="http://www.inkscape.org/namespaces/inkscape"
	 xmlns="http://www.w3.org/2000/svg" xmlns:xlink="http://www.w3.org/1999/xlink" x="0px" y="0px" viewBox="-234 326.3 141.7 141.7"
	 style="enable-background:new -234 326.3 141.7 141.7;" xml:space="preserve">
<style type="text/css">
	.st0{fill:#FFFFFF;}
	.st1{fill:#EDEDED;}
</style>
<sodipodi:namedview  inkscape:window-maximized="1" inkscape:window-y="-8" inkscape:window-x="-8" inkscape:window-height="705" inkscape:window-width="1366" fit-margin-bottom="0" inkscape:current-layer="layer1" fit-margin-right="0" inkscape:document-units="mm" inkscape:pageshadow="2" inkscape:pageopacity="0.0" fit-margin-left="0" fit-margin-top="0" units="mm" showgrid="false" inkscape:cy="12.035998" inkscape:cx="59.285714" inkscape:zoom="0.7" borderopacity="1.0" bordercolor="#666666" pagecolor="#ffffff" id="base">
	</sodipodi:namedview>
<g id="layer1" transform="translate(-120,-259.20135)" inkscape:groupmode="layer" inkscape:label="Layer 1">
	<g id="g5824" transform="translate(-649.13386,-13.723263)">
		<path id="path2034" inkscape:connector-curvature="0" class="st0" d="M657.6,677.5v35"/>
		<path id="path2036-7" inkscape:connector-curvature="0" class="st0" d="M655.1,712.5h5v-35h-5V712.5z"/>
		<path id="path2038-7" inkscape:connector-curvature="0" class="st0" d="M554.4,712.5v-65.4c0-1.9,1.6-3.5,3.5-3.5h23.3"/>
		<path id="path2040-3" inkscape:connector-curvature="0" class="st0" d="M556.9,712.5h-5v-65.4c0-3.3,2.7-6,6-6h23.3v5H558
			c-0.6,0-1,0.5-1,1V712.5"/>
		<path id="path2044" inkscape:connector-curvature="0" class="st0" d="M539.1,712.2v6.3c0,0,4.6,3.5,8,3.5h117.8c3.4,0,8-3.5,8-3.5
			v-6.3H539.1"/>
		<path id="path2046" inkscape:connector-curvature="0" class="st0" d="M541.6,717.2c1.7,1.1,4,2.3,5.5,2.3h117.8
			c1.6,0,4-1.3,5.5-2.3v-2.5H541.6V717.2L541.6,717.2z M664.9,724.5H547.1c-4.1,0-9-3.5-9.5-4l-1-0.8v-10.1h138.9v10.1l-1,0.7
			C673.9,720.9,669,724.5,664.9,724.5"/>
		<path id="path2050" inkscape:connector-curvature="0" class="st0" d="M592,620.6c-0.8,0-1.5,1-1.5,2.2v43.1c0,1.2,0.7,2.2,1.5,2.2
			h33.1l5.3,9.9l5.3-9.9h33.1c0.8,0,1.5-1,1.5-2.2v-43.1c0-1.2-0.7-2.2-1.5-2.2H592z M630.5,688.5l-8.3-15.5H592
			c-3.6,0-6.5-3.2-6.5-7.2v-43.1c0-4,2.9-7.2,6.5-7.2h76.9c3.6,0,6.5,3.2,6.5,7.2v43.1c0,4-2.9,7.2-6.5,7.2h-30.1L630.5,688.5"/>
		<path id="path2052" inkscape:connector-curvature="0" class="st1" d="M612,639c-2.7,0-4.8,2.2-4.8,4.8c0,2.7,2.2,4.8,4.8,4.8
			c2.7,0,4.8-2.2,4.8-4.8C616.8,641.1,614.7,639,612,639"/>
		<path id="path2054" inkscape:connector-curvature="0" class="st1" d="M630.5,639c-2.7,0-4.8,2.2-4.8,4.8c0,2.7,2.2,4.8,4.8,4.8
			c2.7,0,4.8-2.2,4.8-4.8C635.3,641.1,633.1,639,630.5,639"/>
		<path id="path2056" inkscape:connector-curvature="0" class="st1" d="M648.9,639c-2.7,0-4.8,2.2-4.8,4.8c0,2.7,2.2,4.8,4.8,4.8
			c2.7,0,4.8-2.2,4.8-4.8C653.8,641.1,651.6,639,648.9,639"/>
	</g>
</g>
</svg>
