<?xml version="1.0" encoding="utf-8"?>
<!-- Generator: Adobe Illustrator 19.0.0, SVG Export Plug-In . SVG Version: 6.00 Build 0)  -->
<svg version="1.1"
	 id="svg5838" inkscape:version="0.48.4 r9939" sodipodi:docname="lab_data.svg" xmlns:svg="http://www.w3.org/2000/svg" xmlns:cc="http://creativecommons.org/ns#" xmlns:dc="http://purl.org/dc/elements/1.1/" xmlns:rdf="http://www.w3.org/1999/02/22-rdf-syntax-ns#" xmlns:inkscape="http://www.inkscape.org/namespaces/inkscape" xmlns:sodipodi="http://sodipodi.sourceforge.net/DTD/sodipodi-0.dtd"
	 xmlns="http://www.w3.org/2000/svg" xmlns:xlink="http://www.w3.org/1999/xlink" x="0px" y="0px" viewBox="-178 180.3 141.7 141.7"
	 style="enable-background:new -178 180.3 141.7 141.7;" xml:space="preserve">
<style type="text/css">
	.st0{fill:none;}
	.st1{fill:#FFFFFF;}
	.st2{fill:#FF6952;}
</style>
<sodipodi:namedview  fit-margin-right="0" inkscape:window-height="705" inkscape:pageshadow="2" inkscape:window-width="1366" inkscape:window-x="-8" inkscape:window-maximized="1" inkscape:current-layer="layer1" inkscape:document-units="mm" inkscape:window-y="-8" fit-margin-bottom="0" inkscape:pageopacity="0.0" fit-margin-left="0" fit-margin-top="0" inkscape:cy="12.035998" inkscape:zoom="0.7" id="base" units="mm" showgrid="false" inkscape:cx="-111.42857" borderopacity="1.0" pagecolor="#ffffff" bordercolor="#666666">
	</sodipodi:namedview>
<g id="layer1" transform="translate(-120,-259.20135)" inkscape:groupmode="layer" inkscape:label="Layer 1">
	<g id="g6037" transform="matrix(0.17041625,0,0,-0.17041625,-1549.896,1876.287)">
		<g id="g7411" transform="matrix(0.70710678,0.70710678,-0.70710678,0.70710678,9400.9551,-4579.6727)">
			<g id="g8311">
				<path id="path1686" inkscape:connector-curvature="0" class="st0" d="M8976.2,9240.3c0,62.6-24.4,121.4-68.6,165.6
					c-44.2,44.3-103.2,68.6-166,68.5c-62.4-0.2-121.2-24.5-165.1-68.6c-91.3-91.3-91.3-239.9,0.1-331.1
					c44.3-44.3,103.3-68.6,166.1-68.5c62.5,0.1,121.1,24.5,165.1,68.5C8951.9,9118.8,8976.2,9177.7,8976.2,9240.3"/>
				<path id="path1688" inkscape:connector-curvature="0" class="st1" d="M8566.1,9064.4c-97,97-97,254.8,0,351.8
					c46.7,46.8,109.1,72.7,175.5,72.9c66.7,0.1,129.3-25.7,176.3-72.7c47-47,72.9-109.5,72.9-176c0.1-66.5-25.8-129-72.8-176
					c-46.8-46.8-109.1-72.7-175.4-72.9C8675.9,8991.3,8613.3,9017.2,8566.1,9064.4L8566.1,9064.4l10.4,10.4l10.5,10.3
					c41.5-41.5,96.8-64.3,155.7-64.2c58.5,0.1,113.5,23,154.7,64.2c41.4,41.4,64.2,96.6,64.2,155.2c0,58.7-22.8,113.7-64.2,155.1
					c-41.6,41.6-96.8,64.4-155.6,64.2c-58.6-0.2-113.6-22.9-154.8-64.2c-85.6-85.6-85.6-224.8,0-310.3L8566.1,9064.4"/>
				<path id="path1692" inkscape:connector-curvature="0" class="st1" d="M8654.3,9328l-20.7,20.7c28.9,28.9,67.3,44.8,108.2,44.9
					c41.2,0,79.8-15.9,108.8-44.9l-20.7-20.7c-23.5,23.5-54.7,36.3-87.9,36.2C8708.8,9364.2,8677.7,9351.3,8654.3,9328"/>
				<path id="path1700" inkscape:connector-curvature="0" class="st1" d="M8790.3,8893.8l-95.4,0l0,46.8l95.4,0L8790.3,8893.8"/>
				<path id="path1702" inkscape:connector-curvature="0" class="st1" d="M8709.5,8925.9l0-17.5l66.2,0l0,17.5L8709.5,8925.9
					L8709.5,8925.9z M8680.2,8879.1l0,76.2l124.7,0l0-76.1L8680.2,8879.1"/>
				<path id="path1708" inkscape:connector-curvature="0" class="st1" d="M8702.7,8938.5l0,40.1l29.3,0l0-40.1L8702.7,8938.5"/>
				<path id="path1710" inkscape:connector-curvature="0" class="st1" d="M8752.2,8952.6l0.1,51.8l29.3,0l0-51.9L8752.2,8952.6"/>
				<path id="path1694-8" inkscape:connector-curvature="0" class="st2" d="M8680.2,8880.1l124.7-0.4l1-271.3l-124.8,0.5
					L8680.2,8880.1"/>
			</g>
		</g>
	</g>
</g>
</svg>
