<?xml version="1.0" encoding="utf-8"?>
<!-- Generator: Adobe Illustrator 19.0.0, SVG Export Plug-In . SVG Version: 6.00 Build 0)  -->
<svg version="1.1"
	 id="svg5838" xmlns:dc="http://purl.org/dc/elements/1.1/" xmlns:cc="http://creativecommons.org/ns#" xmlns:rdf="http://www.w3.org/1999/02/22-rdf-syntax-ns#" xmlns:svg="http://www.w3.org/2000/svg" xmlns:sodipodi="http://sodipodi.sourceforge.net/DTD/sodipodi-0.dtd" xmlns:inkscape="http://www.inkscape.org/namespaces/inkscape" sodipodi:docname="lab_data.svg" inkscape:version="0.48.4 r9939"
	 xmlns="http://www.w3.org/2000/svg" xmlns:xlink="http://www.w3.org/1999/xlink" x="0px" y="0px" viewBox="-226 350.2 141.7 141.7"
	 style="enable-background:new -226 350.2 141.7 141.7;" xml:space="preserve">
<style type="text/css">
	.st0{fill:none;}
	.st1{fill:#FFFFFF;}
</style>
<sodipodi:namedview  fit-margin-left="0" fit-margin-top="0" units="mm" showgrid="false" inkscape:cy="12.035998" inkscape:cx="-111.42857" inkscape:zoom="0.7" borderopacity="1.0" bordercolor="#666666" pagecolor="#ffffff" id="base" inkscape:window-maximized="1" inkscape:window-y="-8" inkscape:window-x="-8" inkscape:window-height="705" inkscape:window-width="1366" fit-margin-bottom="0" inkscape:current-layer="layer1" fit-margin-right="0" inkscape:pageopacity="0.0" inkscape:document-units="mm" inkscape:pageshadow="2">
	</sodipodi:namedview>
<g id="layer1" transform="translate(-120,-259.20135)" inkscape:label="Layer 1" inkscape:groupmode="layer">
	<g id="g6037" transform="matrix(0.17041625,0,0,-0.17041625,-1549.896,1876.287)">
		<g id="g7411" transform="matrix(0.70710678,0.70710678,-0.70710678,0.70710678,9400.9551,-4579.6727)">
			<g id="g8311">
				<path id="path1686" inkscape:connector-curvature="0" class="st0" d="M8083.7,8748.9c0,62.6-24.4,121.4-68.6,165.6
					c-44.2,44.3-103.2,68.6-166,68.5c-62.4-0.2-121.2-24.5-165.1-68.6c-91.3-91.3-91.3-239.9,0.1-331.1
					c44.3-44.3,103.3-68.6,166.1-68.5c62.5,0.1,121.1,24.5,165.1,68.5C8059.4,8627.4,8083.7,8686.3,8083.7,8748.9"/>
				<path id="path1688" inkscape:connector-curvature="0" class="st1" d="M7673.6,8573c-97,97-97,254.8,0,351.8
					c46.7,46.8,109.1,72.7,175.5,72.9c66.7,0.1,129.3-25.7,176.3-72.7s72.9-109.5,72.9-176c0.1-66.5-25.8-129-72.8-176
					c-46.8-46.8-109.1-72.7-175.4-72.9C7783.4,8499.9,7720.8,8525.8,7673.6,8573L7673.6,8573l10.4,10.4l10.5,10.3
					c41.5-41.5,96.8-64.3,155.7-64.2c58.5,0.1,113.5,23,154.7,64.2c41.4,41.4,64.2,96.6,64.2,155.2c0,58.7-22.8,113.7-64.2,155.1
					c-41.6,41.6-96.8,64.4-155.6,64.2c-58.6-0.2-113.6-22.9-154.8-64.2c-85.6-85.6-85.6-224.8,0-310.3L7673.6,8573"/>
				<path id="path1692" inkscape:connector-curvature="0" class="st1" d="M7761.8,8836.6l-20.7,20.7c28.9,28.9,67.3,44.8,108.2,44.9
					c41.2,0,79.8-15.9,108.8-44.9l-20.7-20.7c-23.5,23.5-54.7,36.3-87.9,36.2C7816.3,8872.8,7785.2,8859.9,7761.8,8836.6"/>
				<path id="path1700" inkscape:connector-curvature="0" class="st1" d="M7897.8,8402.4h-95.4v46.8h95.4V8402.4"/>
				<path id="path1702" inkscape:connector-curvature="0" class="st1" d="M7817,8434.5V8417h66.2v17.5H7817L7817,8434.5z
					 M7787.7,8387.7v76.2h124.7v-76.1L7787.7,8387.7"/>
				<path id="path1708" inkscape:connector-curvature="0" class="st1" d="M7810.2,8447.1v40.1h29.3v-40.1H7810.2"/>
				<path id="path1710" inkscape:connector-curvature="0" class="st1" d="M7859.7,8461.2l0.1,51.8h29.3v-51.9L7859.7,8461.2"/>
				<path id="path1694-8" inkscape:connector-curvature="0" class="st1" d="M7787.7,8388.7l124.7-0.4l1-271.3l-124.8,0.5
					L7787.7,8388.7"/>
			</g>
		</g>
	</g>
</g>
</svg>
