<?xml version="1.0" encoding="utf-8"?>
<!-- Generator: Adobe Illustrator 19.0.0, SVG Export Plug-In . SVG Version: 6.00 Build 0)  -->
<svg version="1.1"
	 id="svg5838" inkscape:version="0.48.4 r9939" sodipodi:docname="personal_information.svg" xmlns:svg="http://www.w3.org/2000/svg" xmlns:cc="http://creativecommons.org/ns#" xmlns:dc="http://purl.org/dc/elements/1.1/" xmlns:rdf="http://www.w3.org/1999/02/22-rdf-syntax-ns#" xmlns:inkscape="http://www.inkscape.org/namespaces/inkscape" xmlns:sodipodi="http://sodipodi.sourceforge.net/DTD/sodipodi-0.dtd"
	 xmlns="http://www.w3.org/2000/svg" xmlns:xlink="http://www.w3.org/1999/xlink" x="0px" y="0px" viewBox="-178 180.3 141.7 141.7"
	 style="enable-background:new -178 180.3 141.7 141.7;" xml:space="preserve">
<style type="text/css">
	.st0{fill:#FFFFFF;}
	.st1{fill:#FF6952;}
</style>
<sodipodi:namedview  fit-margin-right="0" inkscape:window-height="705" inkscape:pageshadow="2" inkscape:window-width="1366" inkscape:window-x="-8" inkscape:window-maximized="1" inkscape:current-layer="layer1" inkscape:document-units="mm" inkscape:window-y="-8" fit-margin-bottom="0" inkscape:pageopacity="0.0" fit-margin-left="0" fit-margin-top="0" inkscape:cy="12.035998" inkscape:zoom="0.7" id="base" units="mm" showgrid="false" inkscape:cx="-111.42857" borderopacity="1.0" pagecolor="#ffffff" bordercolor="#666666">
	</sodipodi:namedview>
<g id="layer1" transform="translate(-120,-259.20135)" inkscape:groupmode="layer" inkscape:label="Layer 1">
	<g id="g8299" transform="translate(-568.76327,-553.4105)">
		<path id="path806" inkscape:connector-curvature="0" class="st0" d="M579,1127.4h-3.2c-12,0-21.8-9.8-21.8-21.8v-22.5h5v22.5
			c0,9.3,7.5,16.8,16.8,16.8h3.2c9.3,0,16.8-7.5,16.8-16.8v-61.1h5v61.1C600.8,1117.6,591.1,1127.4,579,1127.4"/>
		<path id="path808" inkscape:connector-curvature="0" class="st0" d="M625.1,1078.5h-5v-35.8c0-4.8-3.9-8.6-8.6-8.6h-1.8
			c-4.8,0-8.6,3.9-8.6,8.6v35.2h-5v-35.2c0-7.5,6.1-13.6,13.6-13.6h1.8c7.5,0,13.7,6.1,13.7,13.6V1078.5"/>
		<path id="path810" inkscape:connector-curvature="0" class="st0" d="M635.3,1090.7c0,6.9-5.6,12.5-12.5,12.5
			c-6.9,0-12.5-5.6-12.5-12.5c0-6.9,5.6-12.5,12.5-12.5C629.7,1078.3,635.3,1083.8,635.3,1090.7"/>
		<path id="path812" inkscape:connector-curvature="0" class="st0" d="M622.8,1080.8c-5.5,0-10,4.5-10,10s4.5,10,10,10s10-4.5,10-10
			S628.3,1080.8,622.8,1080.8z M622.8,1105.7c-8.2,0-15-6.7-15-15c0-8.2,6.7-15,15-15c8.2,0,14.9,6.7,14.9,15
			C637.8,1099,631.1,1105.7,622.8,1105.7"/>
		<path id="path814" inkscape:connector-curvature="0" class="st1" d="M628.9,1090.7c0,3.3-2.7,6-6,6s-6-2.7-6-6c0-3.3,2.7-6,6-6
			S628.9,1087.4,628.9,1090.7"/>
		<path id="path816" inkscape:connector-curvature="0" class="st1" d="M530.5,1041.9h-5v-26.1c0-8.3,6.7-15,15-15v5
			c-5.5,0-10,4.5-10,10V1041.9"/>
		<path id="path818" inkscape:connector-curvature="0" class="st1" d="M588.5,1042.1h-5v-26.1c0-5.5-4.5-10-10-10v-5
			c8.3,0,15,6.7,15,15V1042.1"/>
		<path id="path820" inkscape:connector-curvature="0" class="st0" d="M577.3,1007.3c-1.2-0.5-2.4-0.8-3.7-0.8v-6.3
			c2.1,0,4.2,0.4,6.2,1.3L577.3,1007.3"/>
		<path id="path822" inkscape:connector-curvature="0" class="st0" d="M563.4,1086.6h-12.9c-13.8,0-25-11.2-25-25v-19.8h5v19.8
			c0,11,9,20,20,20h12.9c11,0,20-9,20-20v-19.8h5v19.8C588.4,1075.4,577.1,1086.6,563.4,1086.6"/>
		<path id="path824" inkscape:connector-curvature="0" class="st0" d="M536.7,1007.2l-2.6-5.7c2-0.9,4.1-1.4,6.4-1.4v6.3
			C539.1,1006.4,537.9,1006.7,536.7,1007.2"/>
	</g>
</g>
</svg>
