<?xml version="1.0" encoding="utf-8"?>
<!-- Generator: Adobe Illustrator 19.0.0, SVG Export Plug-In . SVG Version: 6.00 Build 0)  -->
<svg version="1.1"
	 id="svg5838" xmlns:dc="http://purl.org/dc/elements/1.1/" xmlns:cc="http://creativecommons.org/ns#" xmlns:rdf="http://www.w3.org/1999/02/22-rdf-syntax-ns#" xmlns:svg="http://www.w3.org/2000/svg" xmlns:sodipodi="http://sodipodi.sourceforge.net/DTD/sodipodi-0.dtd" xmlns:inkscape="http://www.inkscape.org/namespaces/inkscape" sodipodi:docname="personal_information.svg" inkscape:version="0.48.4 r9939"
	 xmlns="http://www.w3.org/2000/svg" xmlns:xlink="http://www.w3.org/1999/xlink" x="0px" y="0px" viewBox="-226 350.2 141.7 141.7"
	 style="enable-background:new -226 350.2 141.7 141.7;" xml:space="preserve">
<style type="text/css">
	.st0{fill:#FFFFFF;}
	.st1{fill:#E5E5E5;}
</style>
<sodipodi:namedview  fit-margin-left="0" fit-margin-top="0" units="mm" showgrid="false" inkscape:cy="12.035998" inkscape:cx="-111.42857" inkscape:zoom="0.7" borderopacity="1.0" bordercolor="#666666" pagecolor="#ffffff" id="base" inkscape:window-maximized="1" inkscape:window-y="-8" inkscape:window-x="-8" inkscape:window-height="705" inkscape:window-width="1366" fit-margin-bottom="0" inkscape:current-layer="layer1" fit-margin-right="0" inkscape:pageopacity="0.0" inkscape:document-units="mm" inkscape:pageshadow="2">
	</sodipodi:namedview>
<g id="layer1" transform="translate(-120,-259.20135)" inkscape:label="Layer 1" inkscape:groupmode="layer">
	<g id="g8299" transform="translate(-568.76327,-553.4105)">
		<path id="path806" inkscape:connector-curvature="0" class="st0" d="M531,1297.3h-3.2c-12,0-21.8-9.8-21.8-21.8V1253h5v22.5
			c0,9.3,7.5,16.8,16.8,16.8h3.2c9.3,0,16.8-7.5,16.8-16.8v-61.1h5v61.1C552.8,1287.5,543.1,1297.3,531,1297.3"/>
		<path id="path808" inkscape:connector-curvature="0" class="st0" d="M577.1,1248.4h-5v-35.8c0-4.8-3.9-8.6-8.6-8.6h-1.8
			c-4.8,0-8.6,3.9-8.6,8.6v35.2h-5v-35.2c0-7.5,6.1-13.6,13.6-13.6h1.8c7.5,0,13.7,6.1,13.7,13.6v35.8"/>
		<path id="path810" inkscape:connector-curvature="0" class="st0" d="M587.3,1260.6c0,6.9-5.6,12.5-12.5,12.5s-12.5-5.6-12.5-12.5
			s5.6-12.5,12.5-12.5C581.7,1248.2,587.3,1253.7,587.3,1260.6"/>
		<path id="path812" inkscape:connector-curvature="0" class="st0" d="M574.8,1250.7c-5.5,0-10,4.5-10,10s4.5,10,10,10s10-4.5,10-10
			S580.3,1250.7,574.8,1250.7z M574.8,1275.6c-8.2,0-15-6.7-15-15c0-8.2,6.7-15,15-15c8.2,0,14.9,6.7,14.9,15
			C589.8,1268.9,583.1,1275.6,574.8,1275.6"/>
		<path id="path814" inkscape:connector-curvature="0" class="st1" d="M580.9,1260.6c0,3.3-2.7,6-6,6s-6-2.7-6-6s2.7-6,6-6
			S580.9,1257.3,580.9,1260.6"/>
		<path id="path816" inkscape:connector-curvature="0" class="st1" d="M482.5,1211.8h-5v-26.1c0-8.3,6.7-15,15-15v5
			c-5.5,0-10,4.5-10,10V1211.8"/>
		<path id="path818" inkscape:connector-curvature="0" class="st1" d="M540.5,1212h-5v-26.1c0-5.5-4.5-10-10-10v-5
			c8.3,0,15,6.7,15,15V1212"/>
		<path id="path820" inkscape:connector-curvature="0" class="st0" d="M529.3,1177.2c-1.2-0.5-2.4-0.8-3.7-0.8v-6.3
			c2.1,0,4.2,0.4,6.2,1.3L529.3,1177.2"/>
		<path id="path822" inkscape:connector-curvature="0" class="st0" d="M515.4,1256.5h-12.9c-13.8,0-25-11.2-25-25v-19.8h5v19.8
			c0,11,9,20,20,20h12.9c11,0,20-9,20-20v-19.8h5v19.8C540.4,1245.3,529.1,1256.5,515.4,1256.5"/>
		<path id="path824" inkscape:connector-curvature="0" class="st0" d="M488.7,1177.1l-2.6-5.7c2-0.9,4.1-1.4,6.4-1.4v6.3
			C491.1,1176.3,489.9,1176.6,488.7,1177.1"/>
	</g>
</g>
</svg>
