<?xml version="1.0" encoding="utf-8"?>
<!-- Generator: Adobe Illustrator 19.0.0, SVG Export Plug-In . SVG Version: 6.00 Build 0)  -->
<svg version="1.1"
	 id="svg5838" inkscape:version="0.48.4 r9939" sodipodi:docname="examination.svg" xmlns:svg="http://www.w3.org/2000/svg" xmlns:cc="http://creativecommons.org/ns#" xmlns:dc="http://purl.org/dc/elements/1.1/" xmlns:rdf="http://www.w3.org/1999/02/22-rdf-syntax-ns#" xmlns:inkscape="http://www.inkscape.org/namespaces/inkscape" xmlns:sodipodi="http://sodipodi.sourceforge.net/DTD/sodipodi-0.dtd"
	 xmlns="http://www.w3.org/2000/svg" xmlns:xlink="http://www.w3.org/1999/xlink" x="0px" y="0px" viewBox="-178 180.3 141.7 141.7"
	 style="enable-background:new -178 180.3 141.7 141.7;" xml:space="preserve">
<style type="text/css">
	.st0{fill:#FFFFFF;}
	.st1{fill:#AEB5B6;}
	.st2{fill:#FF6952;}
</style>
<sodipodi:namedview  fit-margin-right="0" inkscape:window-height="705" inkscape:pageshadow="2" inkscape:window-width="1366" inkscape:window-x="-8" inkscape:window-maximized="1" inkscape:current-layer="layer1" inkscape:document-units="mm" inkscape:window-y="-8" fit-margin-bottom="0" inkscape:pageopacity="0.0" fit-margin-left="0" fit-margin-top="0" inkscape:cy="12.035998" inkscape:zoom="0.7" id="base" units="mm" showgrid="false" inkscape:cx="-111.42857" borderopacity="1.0" pagecolor="#ffffff" bordercolor="#666666">
	</sodipodi:namedview>
<g id="layer1" transform="translate(-120,-259.20135)" inkscape:groupmode="layer" inkscape:label="Layer 1">
	<g id="g7065" transform="translate(-301.24173,-81.510722)">
		<g id="g8191" transform="translate(1.929707,0)">
		</g>
		<g id="g8223">
			<path id="path2950" inkscape:connector-curvature="0" class="st0" d="M306.1,607h9.6v-71.7h-9.6V607z M320.7,612h-19.6v-81.7
				h19.6V612"/>
			<path id="path2952" inkscape:connector-curvature="0" class="st1" d="M298.6,601.3h24.6v-51.7h-24.6V601.3z"/>
			<path id="path2954" inkscape:connector-curvature="0" class="st0" d="M298.6,552h24.6v-5h-24.6V552z"/>
			<g id="g8214" transform="translate(1.92971,0)">
				<path id="path2946" inkscape:connector-curvature="0" class="st0" d="M326.6,635.5h9.4v-11.9h-9.4L326.6,635.5L326.6,635.5z"/>
				<path id="path2948" inkscape:connector-curvature="0" class="st0" d="M336,638h-5v-9.4h-4.4v9.4h-5v-14.4H336V638"/>
				<path id="path2958" inkscape:connector-curvature="0" class="st0" d="M288.2,626.6H336v-5h-47.7L288.2,626.6L288.2,626.6z"/>
			</g>
			<path id="path2962" inkscape:connector-curvature="0" class="st0" d="M333.8,577c0,6.3-5.1,11.5-11.5,11.5
				c-6.3,0-11.5-5.1-11.5-11.5c0-6.3,5.1-11.5,11.5-11.5C328.7,565.5,333.8,570.6,333.8,577"/>
			<path id="path2964" inkscape:connector-curvature="0" class="st0" d="M322.4,568c-4.9,0-9,4-9,9c0,4.9,4,9,9,9s8.9-4,8.9-9
				C331.3,572,327.3,568,322.4,568z M322.4,590.9c-7.7,0-14-6.3-14-14c0-7.7,6.3-14,14-14c7.7,0,14,6.3,14,14
				C336.3,584.7,330.1,590.9,322.4,590.9"/>
			<path id="path2966" inkscape:connector-curvature="0" class="st2" d="M327,577c0,2.5-2.1,4.6-4.6,4.6c-2.5,0-4.6-2.1-4.6-4.6
				c0-2.5,2-4.6,4.6-4.6C324.9,572.4,327,574.4,327,577"/>
			<rect id="rect7421" x="274.2" y="637.4" class="st0" width="79.7" height="15.9"/>
		</g>
	</g>
</g>
</svg>
