<?xml version="1.0" encoding="utf-8"?>
<!-- Generator: Adobe Illustrator 19.0.0, SVG Export Plug-In . SVG Version: 6.00 Build 0)  -->
<svg version="1.1"
	 id="svg5838" xmlns:dc="http://purl.org/dc/elements/1.1/" xmlns:cc="http://creativecommons.org/ns#" xmlns:rdf="http://www.w3.org/1999/02/22-rdf-syntax-ns#" xmlns:svg="http://www.w3.org/2000/svg" xmlns:sodipodi="http://sodipodi.sourceforge.net/DTD/sodipodi-0.dtd" xmlns:inkscape="http://www.inkscape.org/namespaces/inkscape" sodipodi:docname="examination.svg" inkscape:version="0.48.4 r9939"
	 xmlns="http://www.w3.org/2000/svg" xmlns:xlink="http://www.w3.org/1999/xlink" x="0px" y="0px" viewBox="-226 350.2 141.7 141.7"
	 style="enable-background:new -226 350.2 141.7 141.7;" xml:space="preserve">
<style type="text/css">
	.st0{fill:#FFFFFF;}
	.st1{fill:#AEB5B6;}
</style>
<sodipodi:namedview  fit-margin-left="0" fit-margin-top="0" units="mm" showgrid="false" inkscape:cy="12.035998" inkscape:cx="-111.42857" inkscape:zoom="0.7" borderopacity="1.0" bordercolor="#666666" pagecolor="#ffffff" id="base" inkscape:window-maximized="1" inkscape:window-y="-8" inkscape:window-x="-8" inkscape:window-height="705" inkscape:window-width="1366" fit-margin-bottom="0" inkscape:current-layer="layer1" fit-margin-right="0" inkscape:pageopacity="0.0" inkscape:document-units="mm" inkscape:pageshadow="2">
	</sodipodi:namedview>
<g id="layer1" transform="translate(-120,-259.20135)" inkscape:label="Layer 1" inkscape:groupmode="layer">
	<g id="g7065" transform="translate(-301.24173,-81.510722)">
		<g id="g8191" transform="translate(1.929707,0)">
		</g>
		<g id="g8223">
			<path id="path2950" inkscape:connector-curvature="0" class="st0" d="M258.1,772.2h9.6v-71.7h-9.6V772.2z M272.7,777.2h-19.6
				v-81.7h19.6V777.2"/>
			<path id="path2952" inkscape:connector-curvature="0" class="st1" d="M250.6,766.5h24.6v-51.7h-24.6V766.5z"/>
			<path id="path2954" inkscape:connector-curvature="0" class="st0" d="M250.6,717.2h24.6v-5h-24.6V717.2z"/>
			<g id="g8214" transform="translate(1.92971,0)">
				<path id="path2946" inkscape:connector-curvature="0" class="st0" d="M278.6,800.7h9.4v-11.9h-9.4V800.7L278.6,800.7z"/>
				<path id="path2948" inkscape:connector-curvature="0" class="st0" d="M288,803.2h-5v-9.4h-4.4v9.4h-5v-14.4H288V803.2"/>
				<path id="path2958" inkscape:connector-curvature="0" class="st0" d="M240.2,791.8H288v-5h-47.7L240.2,791.8L240.2,791.8z"/>
			</g>
			<path id="path2962" inkscape:connector-curvature="0" class="st0" d="M285.8,742.2c0,6.3-5.1,11.5-11.5,11.5
				c-6.3,0-11.5-5.1-11.5-11.5c0-6.3,5.1-11.5,11.5-11.5C280.7,730.7,285.8,735.8,285.8,742.2"/>
			<path id="path2964" inkscape:connector-curvature="0" class="st0" d="M274.4,733.2c-4.9,0-9,4-9,9c0,4.9,4,9,9,9s8.9-4,8.9-9
				S279.3,733.2,274.4,733.2z M274.4,756.1c-7.7,0-14-6.3-14-14s6.3-14,14-14s14,6.3,14,14C288.3,749.9,282.1,756.1,274.4,756.1"/>
			<rect id="rect7421" x="226.2" y="802.6" class="st0" width="79.7" height="15.9"/>
		</g>
	</g>
</g>
</svg>
