<?xml version="1.0" encoding="UTF-8" standalone="no"?>
<!-- Created with Inkscape (http://www.inkscape.org/) -->

<svg
   xmlns:dc="http://purl.org/dc/elements/1.1/"
   xmlns:cc="http://creativecommons.org/ns#"
   xmlns:rdf="http://www.w3.org/1999/02/22-rdf-syntax-ns#"
   xmlns:svg="http://www.w3.org/2000/svg"
   xmlns="http://www.w3.org/2000/svg"
   xmlns:sodipodi="http://sodipodi.sourceforge.net/DTD/sodipodi-0.dtd"
   xmlns:inkscape="http://www.inkscape.org/namespaces/inkscape"
   width="141.73228"
   height="141.73228"
   id="svg5838"
   version="1.1"
   inkscape:version="0.48.4 r9939"
   sodipodi:docname="my_profile.svg">
  <defs
     id="defs3" />
  <sodipodi:namedview
     inkscape:document-units="mm"
     id="base"
     pagecolor="#ffffff"
     bordercolor="#666666"
     borderopacity="1.0"
     inkscape:pageopacity="0.0"
     inkscape:pageshadow="2"
     inkscape:zoom="0.7"
     inkscape:cx="-111.42857"
     inkscape:cy="12.035998"
     inkscape:current-layer="layer1"
     showgrid="false"
     units="mm"
     fit-margin-top="0"
     fit-margin-left="0"
     fit-margin-right="0"
     fit-margin-bottom="0"
     inkscape:window-width="1366"
     inkscape:window-height="705"
     inkscape:window-x="-8"
     inkscape:window-y="-8"
     inkscape:window-maximized="1" />
  <metadata
     id="metadata4">
    <rdf:RDF>
      <cc:Work
         rdf:about="">
        <dc:format>image/svg+xml</dc:format>
        <dc:type
           rdf:resource="http://purl.org/dc/dcmitype/StillImage" />
        <dc:title></dc:title>
      </cc:Work>
    </rdf:RDF>
  </metadata>
  <g
     inkscape:label="Layer 1"
     inkscape:groupmode="layer"
     id="layer1"
     transform="translate(-120,-259.20135)">
    <g
       transform="matrix(0.17041625,0,0,-0.17041625,-1738.2458,1874.9206)"
       id="g6020">
      <path
         inkscape:connector-curvature="0"
         id="path1042"
         style="fill:#ffffff;fill-opacity:1;fill-rule:nonzero;stroke:none"
         d="m 11073.6,9230.08 0,-434.26 c 0,-19.28 15.6,-34.89 34.9,-34.89 l 283.1,0 c 19.2,0 34.9,15.61 34.9,34.89 l 0,434.26" />
      <path
         inkscape:connector-curvature="0"
         id="path1044"
         style="fill:#282d33;fill-opacity:1;fill-rule:nonzero;stroke:none"
         d="m 11391.6,8746.25 -283.1,0 c -27.3,0 -49.6,22.25 -49.6,49.57 l 0,434.26 29.3,0 0,-434.26 c 0,-11.15 9.1,-20.23 20.3,-20.23 l 283.1,0 c 11.1,0 20.2,9.08 20.2,20.23 l 0,434.26 29.3,0 0,-434.26 c 0,-27.32 -22.2,-49.57 -49.5,-49.57" />
      <path
         inkscape:connector-curvature="0"
         id="path1046"
         style="fill:#ff6952;fill-opacity:1;fill-rule:nonzero;stroke:none"
         d="m 11089,8881.09 265.234,0 0,279.961 -265.234,0 0,-279.961 z" />
      <path
         inkscape:connector-curvature="0"
         id="path1048"
         style="fill:#ffffff;fill-opacity:1;fill-rule:nonzero;stroke:none"
         d="m 11242.3,8916.14 38.508,0 0,120.578 -38.508,0 0,-120.578 z" />
      <path
         inkscape:connector-curvature="0"
         id="path1050"
         style="fill:#ffffff;fill-opacity:1;fill-rule:nonzero;stroke:none"
         d="m 11201.2,8957.18 120.586,0 0,38.4961 -120.586,0 0,-38.4961 z" />
      <path
         inkscape:connector-curvature="0"
         id="path1054"
         style="fill:#282d33;fill-opacity:1;fill-rule:nonzero;stroke:none"
         d="m 11474.4,9211.59 -448.7,0 0,172.51 290.7,0 0,-29.34 -261.4,0 0,-113.83 390,0 0,113.83 -56.9,0 0,29.34 86.3,0 0,-172.51" />
      <path
         inkscape:connector-curvature="0"
         id="path1056"
         style="fill:#282d33;fill-opacity:1;fill-rule:nonzero;stroke:none"
         d="m 11089.6,9233.93 29.34,0 0,97.1523 -29.34,0 0,-97.1523 z" />
      <path
         inkscape:connector-curvature="0"
         id="path1058"
         style="fill:#282d33;fill-opacity:1;fill-rule:nonzero;stroke:none"
         d="m 11162.5,9233.93 29.34,0 0,97.1523 -29.34,0 0,-97.1523 z" />
      <path
         inkscape:connector-curvature="0"
         id="path1060"
         style="fill:#282d33;fill-opacity:1;fill-rule:nonzero;stroke:none"
         d="m 11235.4,9233.93 29.34,0 0,97.1523 -29.34,0 0,-97.1523 z" />
      <path
         inkscape:connector-curvature="0"
         id="path1062"
         style="fill:#282d33;fill-opacity:1;fill-rule:nonzero;stroke:none"
         d="m 11308.2,9233.93 29.34,0 0,97.1523 -29.34,0 0,-97.1523 z" />
      <path
         inkscape:connector-curvature="0"
         id="path1064"
         style="fill:#282d33;fill-opacity:1;fill-rule:nonzero;stroke:none"
         d="m 11381.1,9233.93 29.34,0 0,97.1523 -29.34,0 0,-97.1523 z" />
      <path
         inkscape:connector-curvature="0"
         id="path1070"
         style="fill:#ffffff;fill-opacity:1;fill-rule:nonzero;stroke:none"
         d="m 11599.6,8868.31 c 0,-59.31 -48.1,-107.38 -107.3,-107.38 -59.3,0 -107.4,48.07 -107.4,107.38 0,59.3 48.1,107.38 107.4,107.38 59.2,0 107.3,-48.08 107.3,-107.38" />
      <path
         inkscape:connector-curvature="0"
         id="path1072"
         style="fill:#282d33;fill-opacity:1;fill-rule:nonzero;stroke:none"
         d="m 11492.3,8961.02 c -51.2,0 -92.8,-41.59 -92.8,-92.71 0,-51.13 41.6,-92.72 92.8,-92.72 51.1,0 92.7,41.59 92.7,92.72 0,51.12 -41.6,92.71 -92.7,92.71 z m 0,-214.77 c -67.3,0 -122.1,54.76 -122.1,122.06 0,67.3 54.8,122.05 122.1,122.05 67.3,0 122,-54.75 122,-122.05 0,-67.3 -54.7,-122.06 -122,-122.06" />
      <path
         inkscape:connector-curvature="0"
         id="path1074"
         style="fill:#282d33;fill-opacity:1;fill-rule:nonzero;stroke:none"
         d="m 11477.6,8802.47 29.34,0 0,172.586 -29.34,0 0,-172.586 z" />
    </g>
  </g>
</svg>
