<?xml version="1.0" encoding="utf-8"?>
<!-- Generator: Adobe Illustrator 19.0.0, SVG Export Plug-In . SVG Version: 6.00 Build 0)  -->
<svg version="1.1"
	 id="svg5838" inkscape:version="0.48.4 r9939" sodipodi:docname="my_profile.svg" xmlns:dc="http://purl.org/dc/elements/1.1/" xmlns:cc="http://creativecommons.org/ns#" xmlns:rdf="http://www.w3.org/1999/02/22-rdf-syntax-ns#" xmlns:svg="http://www.w3.org/2000/svg" xmlns:sodipodi="http://sodipodi.sourceforge.net/DTD/sodipodi-0.dtd" xmlns:inkscape="http://www.inkscape.org/namespaces/inkscape"
	 xmlns="http://www.w3.org/2000/svg" xmlns:xlink="http://www.w3.org/1999/xlink" x="0px" y="0px" viewBox="-226 350.2 141.7 141.7"
	 style="enable-background:new -226 350.2 141.7 141.7;" xml:space="preserve">
<style type="text/css">
	.st0{fill:#282D33;}
	.st1{fill:#FFFFFF;}
	.st2{fill:#FF6952;}
</style>
<sodipodi:namedview  inkscape:pageshadow="2" inkscape:document-units="mm" inkscape:pageopacity="0.0" fit-margin-right="0" inkscape:current-layer="layer1" inkscape:window-y="-8" inkscape:window-maximized="1" fit-margin-bottom="0" inkscape:window-width="1366" inkscape:window-height="705" inkscape:window-x="-8" id="base" pagecolor="#ffffff" bordercolor="#666666" borderopacity="1.0" inkscape:zoom="0.7" inkscape:cx="59.285714" inkscape:cy="12.035998" showgrid="false" units="mm" fit-margin-top="0" fit-margin-left="0">
	</sodipodi:namedview>
<g id="layer1" transform="translate(-120,-259.20135)" inkscape:label="Layer 1" inkscape:groupmode="layer">
	<g id="g5782" transform="translate(-991.99096,106.27674)">
		<path id="path2014" inkscape:connector-curvature="0" class="st0" d="M917.9,633.9v-30.8h4.8v26.6h77.8v-47.3h4.9v51.5H917.9"/>
		<path id="path2018" inkscape:connector-curvature="0" class="st0" d="M1000.6,572.2V526h-77.8v17.2H918v-24.9h87.5v53.9H1000.6"/>
		<path id="path2024" inkscape:connector-curvature="0" class="st1" d="M992.2,525.4h4.7"/>
		<path id="path2028" inkscape:connector-curvature="0" class="st1" d="M984.1,525.4h4.7"/>
		<path id="path2032" inkscape:connector-curvature="0" class="st1" d="M976,525.4h4.7"/>
		<path id="path2042" inkscape:connector-curvature="0" class="st0" d="M1005.3,568.6h-4.8v24.1h4.8V568.6z"/>
		<rect x="909.6" y="570.7" class="st2" width="73" height="8.6"/>
		<path class="st2" d="M904.7,576.1l25.1,23.2c1.1,1,2.9,1,3.9-0.2l2.1-2.2c1-1.1,1-2.9-0.2-3.9l-25.1-23.2c-1.1-1-2.9-1-3.9,0.2
			l-2.1,2.2C903.5,573.3,903.6,575.1,904.7,576.1z"/>
		<path class="st2" d="M935.1,554.3L910,577.5c-1.1,1-2.9,1-3.9-0.2l-2.1-2.2c-1-1.1-1-2.9,0.2-3.9l25.1-23.2c1.1-1,2.9-1,3.9,0.2
			l2.1,2.2C936.2,551.5,936.2,553.2,935.1,554.3z"/>
	</g>
</g>
</svg>
