<?xml version="1.0" encoding="utf-8"?>
<!-- Generator: Adobe Illustrator 19.0.0, SVG Export Plug-In . SVG Version: 6.00 Build 0)  -->
<svg version="1.1"
	 id="svg5838" inkscape:version="0.48.4 r9939" sodipodi:docname="my_profile.svg" xmlns:svg="http://www.w3.org/2000/svg" xmlns:cc="http://creativecommons.org/ns#" xmlns:dc="http://purl.org/dc/elements/1.1/" xmlns:rdf="http://www.w3.org/1999/02/22-rdf-syntax-ns#" xmlns:inkscape="http://www.inkscape.org/namespaces/inkscape" xmlns:sodipodi="http://sodipodi.sourceforge.net/DTD/sodipodi-0.dtd"
	 xmlns="http://www.w3.org/2000/svg" xmlns:xlink="http://www.w3.org/1999/xlink" x="0px" y="0px" viewBox="-178 180.3 141.7 141.7"
	 style="enable-background:new -178 180.3 141.7 141.7;" xml:space="preserve">
<style type="text/css">
	.st0{fill:#FFFFFF;}
	.st1{fill:#FF6952;}
</style>
<sodipodi:namedview  fit-margin-right="0" inkscape:window-height="705" inkscape:pageshadow="2" inkscape:window-width="1366" inkscape:window-x="-8" inkscape:window-maximized="1" inkscape:current-layer="layer1" inkscape:document-units="mm" inkscape:window-y="-8" fit-margin-bottom="0" inkscape:pageopacity="0.0" fit-margin-left="0" fit-margin-top="0" inkscape:cy="12.035998" inkscape:zoom="0.7" id="base" units="mm" showgrid="false" inkscape:cx="59.285714" borderopacity="1.0" pagecolor="#ffffff" bordercolor="#666666">
	</sodipodi:namedview>
<g id="layer1" transform="translate(-120,-259.20135)" inkscape:groupmode="layer" inkscape:label="Layer 1">
	<g id="g5782" transform="translate(-991.99096,106.27674)">
		<path id="path2014" inkscape:connector-curvature="0" class="st0" d="M963.9,463.1v-30.8h4.8v26.6h77.8v-47.3h4.9v51.5H963.9"/>
		<path id="path2018" inkscape:connector-curvature="0" class="st0" d="M1046.6,401.4v-46.2h-77.8v17.2h-4.8v-24.9h87.5v53.9H1046.6
			"/>
		<path id="path2024" inkscape:connector-curvature="0" class="st0" d="M1038.2,354.6h4.7"/>
		<path id="path2028" inkscape:connector-curvature="0" class="st0" d="M1030.1,354.6h4.7"/>
		<path id="path2032" inkscape:connector-curvature="0" class="st0" d="M1022,354.6h4.7"/>
		<path id="path2042" inkscape:connector-curvature="0" class="st0" d="M1051.3,397.8h-4.8v24.1h4.8V397.8z"/>
		<rect x="955.6" y="399.9" class="st1" width="73" height="8.6"/>
		<path class="st1" d="M950.7,405.3l25.1,23.2c1.1,1,2.9,1,3.9-0.2l2.1-2.2c1-1.1,1-2.9-0.2-3.9L956.5,399c-1.1-1-2.9-1-3.9,0.2
			l-2.1,2.2C949.5,402.5,949.6,404.3,950.7,405.3z"/>
		<path class="st1" d="M981.1,383.5l-25.1,23.2c-1.1,1-2.9,1-3.9-0.2l-2.1-2.2c-1-1.1-1-2.9,0.2-3.9l25.1-23.2c1.1-1,2.9-1,3.9,0.2
			l2.1,2.2C982.2,380.7,982.2,382.4,981.1,383.5z"/>
		<path id="path954" inkscape:connector-curvature="0" class="st1" d="M1145,377.6l2-2c7.3-7.3,7.3-19.2,0-26.6l-0.3-0.3
			c-7.3-7.3-19.2-7.3-26.6,0l-2,2l-2-2c-7.3-7.3-19.2-7.3-26.5,0l-0.3,0.3c-7.3,7.3-7.3,19.2,0,26.6l2,2l26.8,26.8L1145,377.6"/>
	</g>
</g>
</svg>
