<?xml version="1.0" encoding="utf-8"?>
<!-- Generator: Adobe Illustrator 19.0.0, SVG Export Plug-In . SVG Version: 6.00 Build 0)  -->
<svg version="1.1"
	 id="svg5838" sodipodi:docname="my_profile.svg" inkscape:version="0.48.4 r9939" xmlns:dc="http://purl.org/dc/elements/1.1/" xmlns:cc="http://creativecommons.org/ns#" xmlns:rdf="http://www.w3.org/1999/02/22-rdf-syntax-ns#" xmlns:svg="http://www.w3.org/2000/svg" xmlns:sodipodi="http://sodipodi.sourceforge.net/DTD/sodipodi-0.dtd" xmlns:inkscape="http://www.inkscape.org/namespaces/inkscape"
	 xmlns="http://www.w3.org/2000/svg" xmlns:xlink="http://www.w3.org/1999/xlink" x="0px" y="0px" viewBox="-234 326.3 141.7 141.7"
	 style="enable-background:new -234 326.3 141.7 141.7;" xml:space="preserve">
<style type="text/css">
	.st0{fill:#FFFFFF;}
	.st1{fill:#FF6952;}
</style>
<sodipodi:namedview  inkscape:window-maximized="1" inkscape:window-y="-8" inkscape:window-x="-8" inkscape:window-height="705" inkscape:window-width="1366" fit-margin-bottom="0" inkscape:current-layer="layer1" fit-margin-right="0" inkscape:document-units="mm" inkscape:pageshadow="2" inkscape:pageopacity="0.0" fit-margin-left="0" fit-margin-top="0" units="mm" showgrid="false" inkscape:cy="12.035998" inkscape:cx="59.285714" inkscape:zoom="0.7" borderopacity="1.0" bordercolor="#666666" pagecolor="#ffffff" id="base">
	</sodipodi:namedview>
<g id="layer1" transform="translate(-120,-259.20135)" inkscape:groupmode="layer" inkscape:label="Layer 1">
	<g id="g5782" transform="translate(-991.99096,106.27674)">
		<path id="path2014" inkscape:connector-curvature="0" class="st0" d="M912.4,603.4v-30.8h4.8v26.6H995v-47.3h4.9v51.5L912.4,603.4
			"/>
		<path id="path2018" inkscape:connector-curvature="0" class="st0" d="M995.1,541.7v-46.2h-77.8v17.2h-4.8v-24.9h87.5v53.9H995.1"
			/>
		<path id="path2024" inkscape:connector-curvature="0" class="st0" d="M986.7,494.9h4.7"/>
		<path id="path2028" inkscape:connector-curvature="0" class="st0" d="M978.6,494.9h4.7"/>
		<path id="path2032" inkscape:connector-curvature="0" class="st0" d="M970.5,494.9h4.7"/>
		<path id="path2042" inkscape:connector-curvature="0" class="st0" d="M999.8,538.1H995v24.1h4.8V538.1z"/>
		<rect x="904.1" y="540.2" class="st1" width="73" height="8.6"/>
		<path class="st1" d="M899.2,545.6l25.1,23.2c1.1,1,2.9,1,3.9-0.2l2.1-2.2c1-1.1,1-2.9-0.2-3.9L905,539.3c-1.1-1-2.9-1-3.9,0.2
			l-2.1,2.2C898,542.8,898.1,544.6,899.2,545.6z"/>
		<path class="st1" d="M929.6,523.8L904.5,547c-1.1,1-2.9,1-3.9-0.2l-2.1-2.2c-1-1.1-1-2.9,0.2-3.9l25.1-23.2c1.1-1,2.9-1,3.9,0.2
			l2.1,2.2C930.7,521,930.7,522.7,929.6,523.8z"/>
	</g>
</g>
</svg>
