<?xml version="1.0" encoding="utf-8"?>
<!-- Generator: Adobe Illustrator 19.0.0, SVG Export Plug-In . SVG Version: 6.00 Build 0)  -->
<svg version="1.1"
	 id="svg5838" inkscape:version="0.48.4 r9939" sodipodi:docname="diagnosis.svg" xmlns:svg="http://www.w3.org/2000/svg" xmlns:cc="http://creativecommons.org/ns#" xmlns:dc="http://purl.org/dc/elements/1.1/" xmlns:rdf="http://www.w3.org/1999/02/22-rdf-syntax-ns#" xmlns:inkscape="http://www.inkscape.org/namespaces/inkscape" xmlns:sodipodi="http://sodipodi.sourceforge.net/DTD/sodipodi-0.dtd"
	 xmlns="http://www.w3.org/2000/svg" xmlns:xlink="http://www.w3.org/1999/xlink" x="0px" y="0px" viewBox="-178 180.3 141.7 141.7"
	 style="enable-background:new -178 180.3 141.7 141.7;" xml:space="preserve">
<style type="text/css">
	.st0{fill:none;}
	.st1{fill:#FFFFFF;}
	.st2{fill:#FF6952;}
</style>
<sodipodi:namedview  fit-margin-right="0" inkscape:window-height="705" inkscape:pageshadow="2" inkscape:window-width="1366" inkscape:window-x="-8" inkscape:window-maximized="1" inkscape:current-layer="layer1" inkscape:document-units="mm" inkscape:window-y="-8" fit-margin-bottom="0" inkscape:pageopacity="0.0" fit-margin-left="0" fit-margin-top="0" inkscape:cy="12.035998" inkscape:zoom="0.7" id="base" units="mm" showgrid="false" inkscape:cx="-111.42857" borderopacity="1.0" pagecolor="#ffffff" bordercolor="#666666">
	</sodipodi:namedview>
<g id="layer1" transform="translate(-120,-259.20135)" inkscape:groupmode="layer" inkscape:label="Layer 1">
	<g id="g8905" transform="translate(-738.47419,-966.75157)">
		<path id="path938" inkscape:connector-curvature="0" class="st0" d="M714.2,1518.4l-22.1-37.1l-0.3-29.3c0.1,0,0.2,0,0.3,0h2.5
			c4.1,0,7.1,4,7.8,8.1v16.3l6.1,6.4l17.4,17.4l1.6-1.6l-10.8-10.8c-2.7-2.8-1.8-8.1,1.1-10.8c0,0,0.7-0.6,0.8-0.6l19.3,19.2l0.9,14
			v10.3"/>
		<path id="path940" inkscape:connector-curvature="0" class="st1" d="M741,1519.9h-5v-10.3l-0.8-13l-16.8-16.8
			c-1.2,1.9-1.5,4.6-0.1,6.1l12.5,12.5l-5.1,5.1l-19.2-19.2l-6.8-7.2v-17c-0.5-2.9-2.5-5.8-5.3-5.8h-0.3l0.3,26.1l21.8,36.6
			l-4.3,2.6l-22.5-37.7l-0.4-32.3l2.4-0.2c0.2,0,0.3,0,0.5,0h2.5c5.6,0,9.4,5.1,10.2,10.2l0,0.4v15.3l5.4,5.7l2.3,2.3
			c0-3,1.3-6.1,3.4-8.1l0.1-0.1l2.5-2.1l21.5,21.5l1,15.1V1519.9"/>
		<path id="path948" inkscape:connector-curvature="0" class="st0" d="M788.5,1518.4l22.1-37.1l0.3-29.3c-0.1,0-0.2,0-0.3,0h-2.5
			c-4.1,0-7.1,4-7.8,8.1v16.3l-6.1,6.4l-17.4,17.4l-1.6-1.6l10.8-10.8c2.7-2.8,1.8-8.1-1.1-10.8c0,0-0.7-0.6-0.8-0.6l-19.3,19.2
			l-0.9,14v10.3"/>
		<path id="path950" inkscape:connector-curvature="0" class="st1" d="M766.7,1519.9h-5l0-10.5l1-14.9l21.5-21.5l2.6,2.2
			c2.1,2,3.4,5.1,3.5,8.1l2.3-2.3l5.3-5.6l0-15.7c0.8-5.1,4.6-10.2,10.2-10.2h2.5c0.1,0,0.3,0,0.4,0l2.3,0.2l0.1,2.3l-0.3,30
			l-22.5,37.7l-4.3-2.6l21.8-36.6l0.3-26.1h-0.3c-2.7,0-4.7,3-5.3,5.8v17l-6.8,7.1l-19.2,19.2l-5.1-5.1l12.6-12.5
			c1.3-1.4,1-4.2-0.1-6.1l-16.8,16.8l-0.8,13L766.7,1519.9"/>
		<path id="path954" inkscape:connector-curvature="0" class="st2" d="M778.5,1465.9l2-2c7.3-7.3,7.3-19.2,0-26.6l-0.3-0.3
			c-7.3-7.3-19.2-7.3-26.6,0l-2,2l-2-2c-7.3-7.3-19.2-7.3-26.5,0l-0.3,0.3c-7.3,7.3-7.3,19.2,0,26.6l2,2l26.8,26.8L778.5,1465.9"/>
	</g>
</g>
</svg>
