<?xml version="1.0" encoding="utf-8"?>
<!-- Generator: Adobe Illustrator 19.0.0, SVG Export Plug-In . SVG Version: 6.00 Build 0)  -->
<svg version="1.1"
	 id="svg5838" xmlns:dc="http://purl.org/dc/elements/1.1/" xmlns:cc="http://creativecommons.org/ns#" xmlns:rdf="http://www.w3.org/1999/02/22-rdf-syntax-ns#" xmlns:svg="http://www.w3.org/2000/svg" xmlns:sodipodi="http://sodipodi.sourceforge.net/DTD/sodipodi-0.dtd" xmlns:inkscape="http://www.inkscape.org/namespaces/inkscape" sodipodi:docname="previous_treatment.svg" inkscape:version="0.48.4 r9939"
	 xmlns="http://www.w3.org/2000/svg" xmlns:xlink="http://www.w3.org/1999/xlink" x="0px" y="0px" viewBox="-226 350.2 141.7 141.7"
	 style="enable-background:new -226 350.2 141.7 141.7;" xml:space="preserve">
<style type="text/css">
	.st0{fill:none;}
	.st1{fill:#FFFFFF;}
	.st2{fill:#FCFCFC;}
</style>
<sodipodi:namedview  fit-margin-left="0" fit-margin-top="0" units="mm" showgrid="false" inkscape:cy="12.035998" inkscape:cx="-111.42857" inkscape:zoom="0.7" borderopacity="1.0" bordercolor="#666666" pagecolor="#ffffff" id="base" inkscape:window-maximized="1" inkscape:window-y="-8" inkscape:window-x="-8" inkscape:window-height="705" inkscape:window-width="1366" fit-margin-bottom="0" inkscape:current-layer="layer1" fit-margin-right="0" inkscape:pageopacity="0.0" inkscape:document-units="mm" inkscape:pageshadow="2">
	</sodipodi:namedview>
<g id="layer1" transform="translate(-120,-259.20135)" inkscape:label="Layer 1" inkscape:groupmode="layer">
	<g id="g7342" transform="translate(-552.60613,-211.1575)">
		<path id="path1286" inkscape:connector-curvature="0" class="st0" d="M567.7,903.9c0,27.7-22.5,50.2-50.2,50.2
			c-27.7,0-50.2-22.5-50.2-50.2s22.5-50.2,50.2-50.2C545.2,853.7,567.7,876.2,567.7,903.9"/>
		<path id="path1288" inkscape:connector-curvature="0" class="st1" d="M517.5,856.2c-26.3,0-47.7,21.4-47.7,47.7
			s21.4,47.7,47.7,47.7c26.3,0,47.7-21.4,47.7-47.7S543.8,856.2,517.5,856.2L517.5,856.2z M517.5,956.7c-29.1,0-52.7-23.7-52.7-52.7
			c0-29.1,23.7-52.7,52.7-52.7c29,0,52.7,23.7,52.7,52.7S546.5,956.7,517.5,956.7"/>
		<path id="path1290" inkscape:connector-curvature="0" class="st1" d="M527.6,841.1c0,1.2-1,2.2-2.2,2.2h-15.8
			c-1.2,0-2.2-1-2.2-2.2v-10.3c0-1.2,1-2.2,2.2-2.2h15.8c1.2,0,2.2,1,2.2,2.2V841.1"/>
		<path id="path1292" inkscape:connector-curvature="0" class="st1" d="M509.9,840.8h15.2v-9.7h-15.2V840.8L509.9,840.8z
			 M525.4,845.8h-15.8c-1.2,0-2.4-0.5-3.3-1.4s-1.4-2.1-1.4-3.3v-10.3c0-2.6,2.1-4.7,4.7-4.7h15.8c1.3,0,2.4,0.5,3.3,1.4
			c0.9,0.9,1.4,2.1,1.4,3.3v10.3C530,843.7,528,845.8,525.4,845.8"/>
		<path id="path1294" inkscape:connector-curvature="0" class="st1" d="M481.9,859.8l-3.6-5.3c-0.4-0.6-0.3-1.5,0.4-1.9l8.2-5.5
			c0.6-0.4,1.5-0.3,1.9,0.4l3.6,5.3"/>
		<path id="path1296" inkscape:connector-curvature="0" class="st1" d="M479.8,861.2l-3.6-5.3c-0.6-0.8-0.8-1.9-0.6-2.9
			s0.8-1.9,1.6-2.5l8.2-5.5c1.8-1.2,4.2-0.7,5.4,1l3.6,5.3l-4.1,2.8l-3-4.4L481,854l3,4.4L479.8,861.2"/>
		<path id="path1298" inkscape:connector-curvature="0" class="st1" d="M553,859.8l3.6-5.3c0.4-0.6,0.3-1.5-0.4-1.9l-8.2-5.5
			c-0.6-0.4-1.5-0.3-1.9,0.4l-3.6,5.3"/>
		<path id="path1300" inkscape:connector-curvature="0" class="st1" d="M555.1,861.2l-4.1-2.8l3-4.4l-6.3-4.3l-3,4.4l-4.1-2.8
			l3.6-5.3c1.2-1.8,3.6-2.2,5.4-1l8.2,5.5c0.9,0.6,1.4,1.5,1.6,2.5c0.2,1,0,2-0.6,2.9L555.1,861.2"/>
		<path id="path1304" inkscape:connector-curvature="0" class="st0" d="M547.3,903.9c0,16.5-13.4,29.8-29.8,29.8
			c-16.5,0-29.9-13.4-29.9-29.8c0-16.5,13.4-29.8,29.9-29.8C533.9,874.1,547.3,887.5,547.3,903.9"/>
		<path id="path1310" inkscape:connector-curvature="0" class="st1" d="M496.4,868.3l3.5,6"/>
		<path id="path1314" inkscape:connector-curvature="0" class="st1" d="M481.4,883.6l6,3.5"/>
		<path id="path1318" inkscape:connector-curvature="0" class="st1" d="M476,904.3h7"/>
		<path id="path1354" inkscape:connector-curvature="0" class="st1" d="M515,851.8h5V843h-5V851.8z"/>
		<path id="path1356" inkscape:connector-curvature="0" class="st2" d="M537.5,908.8l1.5-1.5c5.5-5.5,5.5-14.3,0-19.8l-0.2-0.2
			c-5.5-5.5-14.3-5.5-19.8,0l-1.5,1.5l-1.5-1.5c-5.5-5.5-14.3-5.5-19.8,0l-0.2,0.2c-5.4,5.5-5.4,14.3,0,19.8l1.5,1.5l20.1,20
			L537.5,908.8"/>
	</g>
</g>
</svg>
