<?xml version="1.0" encoding="utf-8"?>
<!-- Generator: Adobe Illustrator 19.0.0, SVG Export Plug-In . SVG Version: 6.00 Build 0)  -->
<svg version="1.1"
	 id="svg5838" inkscape:version="0.48.4 r9939" sodipodi:docname="previous_treatment.svg" xmlns:svg="http://www.w3.org/2000/svg" xmlns:cc="http://creativecommons.org/ns#" xmlns:dc="http://purl.org/dc/elements/1.1/" xmlns:rdf="http://www.w3.org/1999/02/22-rdf-syntax-ns#" xmlns:inkscape="http://www.inkscape.org/namespaces/inkscape" xmlns:sodipodi="http://sodipodi.sourceforge.net/DTD/sodipodi-0.dtd"
	 xmlns="http://www.w3.org/2000/svg" xmlns:xlink="http://www.w3.org/1999/xlink" x="0px" y="0px" viewBox="-178 180.3 141.7 141.7"
	 style="enable-background:new -178 180.3 141.7 141.7;" xml:space="preserve">
<style type="text/css">
	.st0{fill:none;}
	.st1{fill:#FFFFFF;}
	.st2{fill:#FF6952;}
</style>
<sodipodi:namedview  fit-margin-right="0" inkscape:window-height="705" inkscape:pageshadow="2" inkscape:window-width="1366" inkscape:window-x="-8" inkscape:window-maximized="1" inkscape:current-layer="layer1" inkscape:document-units="mm" inkscape:window-y="-8" fit-margin-bottom="0" inkscape:pageopacity="0.0" fit-margin-left="0" fit-margin-top="0" inkscape:cy="12.035998" inkscape:zoom="0.7" id="base" units="mm" showgrid="false" inkscape:cx="-111.42857" borderopacity="1.0" pagecolor="#ffffff" bordercolor="#666666">
	</sodipodi:namedview>
<g id="layer1" transform="translate(-120,-259.20135)" inkscape:groupmode="layer" inkscape:label="Layer 1">
	<g id="g7342" transform="translate(-552.60613,-211.1575)">
		<path id="path1286" inkscape:connector-curvature="0" class="st0" d="M615.7,734c0,27.7-22.5,50.2-50.2,50.2
			c-27.7,0-50.2-22.5-50.2-50.2c0-27.7,22.5-50.2,50.2-50.2C593.2,683.8,615.7,706.3,615.7,734"/>
		<path id="path1288" inkscape:connector-curvature="0" class="st1" d="M565.5,686.3c-26.3,0-47.7,21.4-47.7,47.7
			c0,26.3,21.4,47.7,47.7,47.7c26.3,0,47.7-21.4,47.7-47.7C613.2,707.7,591.8,686.3,565.5,686.3L565.5,686.3z M565.5,786.8
			c-29.1,0-52.7-23.7-52.7-52.7c0-29.1,23.7-52.7,52.7-52.7s52.7,23.7,52.7,52.7C618.2,763.1,594.5,786.8,565.5,786.8"/>
		<path id="path1290" inkscape:connector-curvature="0" class="st1" d="M575.6,671.2c0,1.2-1,2.2-2.2,2.2h-15.8
			c-1.2,0-2.2-1-2.2-2.2l0-10.3c0-1.2,1-2.2,2.2-2.2l15.8,0c1.2,0,2.2,1,2.2,2.2V671.2"/>
		<path id="path1292" inkscape:connector-curvature="0" class="st1" d="M557.9,670.9h15.2v-9.7l-15.2,0L557.9,670.9L557.9,670.9z
			 M573.4,675.9h-15.8c-1.2,0-2.4-0.5-3.3-1.4s-1.4-2.1-1.4-3.3v-10.3c0-2.6,2.1-4.7,4.7-4.7l15.8,0c1.3,0,2.4,0.5,3.3,1.4
			c0.9,0.9,1.4,2.1,1.4,3.3v10.3C578,673.8,576,675.9,573.4,675.9"/>
		<path id="path1294" inkscape:connector-curvature="0" class="st1" d="M529.9,689.9l-3.6-5.3c-0.4-0.6-0.3-1.5,0.4-1.9l8.2-5.5
			c0.6-0.4,1.5-0.3,1.9,0.4l3.6,5.3"/>
		<path id="path1296" inkscape:connector-curvature="0" class="st1" d="M527.8,691.3l-3.6-5.3c-0.6-0.8-0.8-1.9-0.6-2.9
			c0.2-1,0.8-1.9,1.6-2.5l8.2-5.5c1.8-1.2,4.2-0.7,5.4,1l3.6,5.3l-4.1,2.8l-3-4.4l-6.3,4.3l3,4.4L527.8,691.3"/>
		<path id="path1298" inkscape:connector-curvature="0" class="st1" d="M601,689.9l3.6-5.3c0.4-0.6,0.3-1.5-0.4-1.9l-8.2-5.5
			c-0.6-0.4-1.5-0.3-1.9,0.4l-3.6,5.3"/>
		<path id="path1300" inkscape:connector-curvature="0" class="st1" d="M603.1,691.3l-4.1-2.8l3-4.4l-6.3-4.3l-3,4.4l-4.1-2.8
			l3.6-5.3c1.2-1.8,3.6-2.2,5.4-1l8.2,5.5c0.9,0.6,1.4,1.5,1.6,2.5c0.2,1,0,2-0.6,2.9L603.1,691.3"/>
		<path id="path1304" inkscape:connector-curvature="0" class="st0" d="M595.3,734c0,16.5-13.4,29.8-29.8,29.8
			c-16.5,0-29.9-13.4-29.9-29.8c0-16.5,13.4-29.8,29.9-29.8C581.9,704.2,595.3,717.6,595.3,734"/>
		<path id="path1310" inkscape:connector-curvature="0" class="st1" d="M544.4,698.4l3.5,6"/>
		<path id="path1314" inkscape:connector-curvature="0" class="st1" d="M529.4,713.7l6,3.5"/>
		<path id="path1318" inkscape:connector-curvature="0" class="st1" d="M524,734.4h7"/>
		<path id="path1354" inkscape:connector-curvature="0" class="st1" d="M563,681.9h5v-8.8h-5V681.9z"/>
		<path id="path1356" inkscape:connector-curvature="0" class="st2" d="M589.9,739.5l1.8-1.8c6.7-6.7,6.7-17.5,0-24.2l-0.2-0.3
			c-6.7-6.7-17.5-6.7-24.2,0l-1.8,1.8l-1.8-1.8c-6.7-6.7-17.5-6.7-24.2,0l-0.3,0.3c-6.6,6.7-6.6,17.5,0,24.2l1.8,1.8l24.5,24.4
			L589.9,739.5"/>
	</g>
</g>
</svg>
