<?xml version="1.0" encoding="UTF-8" standalone="no"?>
<!-- Created with Inkscape (http://www.inkscape.org/) -->

<svg
   xmlns:dc="http://purl.org/dc/elements/1.1/"
   xmlns:cc="http://creativecommons.org/ns#"
   xmlns:rdf="http://www.w3.org/1999/02/22-rdf-syntax-ns#"
   xmlns:svg="http://www.w3.org/2000/svg"
   xmlns="http://www.w3.org/2000/svg"
   xmlns:sodipodi="http://sodipodi.sourceforge.net/DTD/sodipodi-0.dtd"
   xmlns:inkscape="http://www.inkscape.org/namespaces/inkscape"
   width="141.73228"
   height="141.73228"
   id="svg5838"
   version="1.1"
   inkscape:version="0.48.4 r9939"
   sodipodi:docname="icon_size.svg">
  <defs
     id="defs3" />
  <sodipodi:namedview
     inkscape:document-units="mm"
     id="base"
     pagecolor="#ffffff"
     bordercolor="#666666"
     borderopacity="1.0"
     inkscape:pageopacity="0.0"
     inkscape:pageshadow="2"
     inkscape:zoom="0.7"
     inkscape:cx="59.285714"
     inkscape:cy="12.035998"
     inkscape:current-layer="layer1"
     showgrid="false"
     units="mm"
     fit-margin-top="0"
     fit-margin-left="0"
     fit-margin-right="0"
     fit-margin-bottom="0"
     inkscape:window-width="1366"
     inkscape:window-height="705"
     inkscape:window-x="-8"
     inkscape:window-y="-8"
     inkscape:window-maximized="1" />
  <metadata
     id="metadata4">
    <rdf:RDF>
      <cc:Work
         rdf:about="">
        <dc:format>image/svg+xml</dc:format>
        <dc:type
           rdf:resource="http://purl.org/dc/dcmitype/StillImage" />
        <dc:title></dc:title>
      </cc:Work>
    </rdf:RDF>
  </metadata>
  <g
     inkscape:label="Layer 1"
     inkscape:groupmode="layer"
     id="layer1"
     transform="translate(-120,-259.20135)">
    <g
       transform="matrix(0.17041625,0,0,-0.17041625,-1350.0069,1305.8513)"
       id="g5685">
      <path
         inkscape:connector-curvature="0"
         id="path1250"
         style="fill:#ff6952;fill-opacity:1;fill-rule:nonzero;stroke:none"
         d="m 9208.95,5776.11 c 0,-70.55 -57.22,-127.75 -127.78,-127.75 -70.49,0 -127.7,57.2 -127.7,127.75 0,70.56 57.21,127.75 127.7,127.75 70.56,0 127.78,-57.19 127.78,-127.75" />
      <path
         inkscape:connector-curvature="0"
         id="path1252"
         style="fill:#282d33;fill-opacity:1;fill-rule:nonzero;stroke:none"
         d="m 9285.96,5371.44 -29.33,0 0,243.61 c 0,3.88 1.53,7.61 4.25,10.35 47.01,47.09 72.91,109.65 72.91,176.17 0,137.53 -111.93,249.42 -249.47,249.42 -137.53,0 -249.39,-111.89 -249.39,-249.42 0,-3.8 0.15,-7.54 0.3,-11.31 0.15,-2.79 -0.59,-5.55 -1.98,-7.97 l -72.62,-125.88 35.94,0 c 8.07,0 14.67,-6.56 14.67,-14.66 l 0,-104.27 c 0,-31.18 25.31,-56.55 56.48,-56.55 l 112.82,0 c 8.06,0 14.66,-6.56 14.66,-14.67 l 0,-94.82 -29.34,0 0,80.15 -98.14,0 c -47.31,0 -85.82,38.53 -85.82,85.89 l 0,89.59 -46.72,0 c -5.21,0 -10.05,2.8 -12.69,7.34 -2.64,4.54 -2.64,10.13 0,14.67 l 83.25,144.21 c -0.07,2.75 -0.15,5.5 -0.15,8.28 0,153.7 125.07,278.76 278.73,278.76 153.75,0 278.81,-125.06 278.81,-278.76 0,-72.3 -27.36,-140.41 -77.17,-192.5 l 0,-237.63" />
      <path
         inkscape:connector-curvature="0"
         id="path1254"
         style="fill:#282d33;fill-opacity:1;fill-rule:nonzero;stroke:none"
         d="m 8941.14,5839.49 -29.34,0 0,99.21 99.25,0.03 0,-29.34 -69.91,-0.02 0,-69.88" />
      <path
         inkscape:connector-curvature="0"
         id="path1256"
         style="fill:#282d33;fill-opacity:1;fill-rule:nonzero;stroke:none"
         d="m 9070.83,5758.95 -143.18,143.19 20.76,20.74 143.18,-143.19 -20.76,-20.74" />
      <path
         inkscape:connector-curvature="0"
         id="path1258"
         style="fill:#282d33;fill-opacity:1;fill-rule:nonzero;stroke:none"
         d="m 9221.27,5839.52 0,69.87 -69.9,0.02 0.07,29.34 99.17,-0.02 0,-99.19 -29.34,-0.02" />
      <path
         inkscape:connector-curvature="0"
         id="path1260"
         style="fill:#282d33;fill-opacity:1;fill-rule:nonzero;stroke:none"
         d="m 9091.95,5759.3 -20.75,20.74 142.88,142.85 20.69,-20.74 -142.82,-142.85" />
      <path
         inkscape:connector-curvature="0"
         id="path1262"
         style="fill:#282d33;fill-opacity:1;fill-rule:nonzero;stroke:none"
         d="m 9066.5,5371.44 29.3398,0 0,398.688 -29.3398,0 0,-398.688 z" />
    </g>
  </g>
</svg>
