<?xml version="1.0" encoding="UTF-8" standalone="no"?>
<!-- Created with Inkscape (http://www.inkscape.org/) -->

<svg
   xmlns:dc="http://purl.org/dc/elements/1.1/"
   xmlns:cc="http://creativecommons.org/ns#"
   xmlns:rdf="http://www.w3.org/1999/02/22-rdf-syntax-ns#"
   xmlns:svg="http://www.w3.org/2000/svg"
   xmlns="http://www.w3.org/2000/svg"
   xmlns:sodipodi="http://sodipodi.sourceforge.net/DTD/sodipodi-0.dtd"
   xmlns:inkscape="http://www.inkscape.org/namespaces/inkscape"
   width="210mm"
   height="297mm"
   id="svg6927"
   version="1.1"
   inkscape:version="0.48.4 r9939"
   sodipodi:docname="new_doctors_diary_medical_icons_set.svg">
  <defs
     id="defs3" />
  <sodipodi:namedview
     inkscape:document-units="mm"
     id="base"
     pagecolor="#ffffff"
     bordercolor="#666666"
     borderopacity="1.0"
     inkscape:pageopacity="0.0"
     inkscape:pageshadow="2"
     inkscape:zoom="0.35"
     inkscape:cx="246.5713"
     inkscape:cy="500.00852"
     inkscape:current-layer="g7189"
     showgrid="false"
     inkscape:window-width="1366"
     inkscape:window-height="705"
     inkscape:window-x="-8"
     inkscape:window-y="-8"
     inkscape:window-maximized="1" />
  <metadata
     id="metadata4">
    <rdf:RDF>
      <cc:Work
         rdf:about="">
        <dc:format>image/svg+xml</dc:format>
        <dc:type
           rdf:resource="http://purl.org/dc/dcmitype/StillImage" />
        <dc:title />
      </cc:Work>
    </rdf:RDF>
  </metadata>
  <g
     inkscape:label="Layer 1"
     inkscape:groupmode="layer"
     id="layer1">
    <g
       id="g7189"
       transform="translate(-323.24881,-446.48742)">
      <g
         transform="matrix(0.17041625,0,0,-0.17041625,-943.84237,2504.6721)"
         id="g6037">
        <g
           id="g7411"
           transform="matrix(0.70710678,0.70710678,-0.70710678,0.70710678,9400.9551,-4579.6727)">
          <g
             id="g8311">
            <path
               inkscape:connector-curvature="0"
               id="path1686"
               style="fill:#ffffff;fill-opacity:1;fill-rule:nonzero;stroke:none"
               d="m 10462.73,9249.6872 c -0.03,62.6143 -24.374,121.4314 -68.596,165.5973 -44.244,44.2861 -103.181,68.6176 -165.972,68.4904 -62.445,-0.2051 -121.184,-24.5084 -165.145,-68.5682 -91.2875,-91.2875 -91.2522,-239.9142 0.06,-331.124 44.335,-44.3355 103.343,-68.6247 166.099,-68.5186 62.487,0.1202 121.085,24.4942 165.102,68.5116 44.173,44.1729 68.498,103.0042 68.455,165.6115" />
            <path
               inkscape:connector-curvature="0"
               id="path1688"
               style="fill:#282d33;fill-opacity:1;fill-rule:nonzero;stroke:none"
               d="m 10052.637,9073.7873 c -96.9518,96.9514 -96.9871,254.7988 0,351.7856 46.739,46.8388 109.092,72.6764 175.475,72.8744 66.702,0.1061 129.302,-25.6962 176.324,-72.7188 47.023,-47.0226 72.917,-109.5167 72.917,-175.9848 0.08,-66.5317 -25.781,-129.0187 -72.754,-175.9918 -46.803,-46.8034 -109.057,-72.7118 -175.391,-72.8603 -66.736,-0.1272 -129.407,25.7317 -176.501,72.825 l 0,0 10.296,10.4369 10.451,10.3096 c 41.507,-41.5072 96.774,-64.3043 155.684,-64.2265 58.527,0.1202 113.469,22.9597 154.743,64.2335 41.422,41.4224 64.191,96.5767 64.156,155.2312 -0.03,58.6616 -22.769,113.7028 -64.206,155.1392 -41.648,41.6486 -96.803,64.3609 -155.62,64.2477 -58.576,-0.1697 -113.604,-22.9385 -154.814,-64.2477 -85.5596,-85.5599 -85.5526,-224.768 -0.01,-310.3067 l -20.746,-20.7465" />
            <path
               inkscape:connector-curvature="0"
               id="path1692"
               style="fill:#ffffff;fill-opacity:1;fill-rule:nonzero;stroke:none"
               d="m 10140.891,9337.3755 -20.747,20.7465 c 28.871,28.8712 67.324,44.8093 108.216,44.9295 41.153,0.042 79.811,-15.8886 108.802,-44.88 l -20.746,-20.7465 c -23.476,23.4759 -54.73,36.3453 -87.943,36.225 -33.163,-0.014 -64.241,-12.9329 -87.582,-36.2745" />
            <path
               inkscape:connector-curvature="0"
               id="path1700"
               style="fill:#ffffff;fill-opacity:1;fill-rule:nonzero;stroke:none"
               d="m 10276.82,8903.1836 -95.431,-0.021 0.02,46.8317 95.424,0.014 -0.01,-46.8246" />
            <path
               inkscape:connector-curvature="0"
               id="path1702"
               style="fill:#282d33;fill-opacity:1;fill-rule:nonzero;stroke:none"
               d="m 10196.033,8935.357 0.01,-17.5221 66.18,-0.014 -0.02,17.5151 -66.174,0.021 z m -29.271,-46.8671 -0.02,76.212 124.738,-0.028 -0.04,-76.1271 -124.681,-0.057" />
            <path
               inkscape:connector-curvature="0"
               id="path1708"
               style="fill:#282d33;fill-opacity:1;fill-rule:nonzero;stroke:none"
               d="m 10189.2,8947.8728 0.03,40.0505 29.317,0.042 0.03,-40.1283 -29.38,0.035" />
            <path
               inkscape:connector-curvature="0"
               id="path1710"
               style="fill:#282d33;fill-opacity:1;fill-rule:nonzero;stroke:none"
               d="m 10238.705,8962.022 0.06,51.8168 29.303,0.028 0.01,-51.8874 -29.373,0.042" />
            <path
               inkscape:connector-curvature="0"
               id="path1694-8"
               style="fill:#ff6952;fill-opacity:1;fill-rule:nonzero;stroke:none"
               d="m 10166.742,8889.4829 124.742,-0.387 1.05,-271.303 -124.812,0.4559 -0.979,271.2321" />
          </g>
        </g>
      </g>
      <g
         id="g7342"
         transform="translate(53.447486,125.00005)">
        <path
           inkscape:connector-curvature="0"
           d="m 793.69394,553.76678 c 0,27.73694 -22.49495,50.22678 -50.22167,50.22678 -27.74377,0 -50.22167,-22.48984 -50.22167,-50.22678 0,-27.73354 22.4779,-50.22167 50.22167,-50.22167 27.72672,0 50.22167,22.48813 50.22167,50.22167"
           style="fill:#ffffff;fill-opacity:1;fill-rule:nonzero;stroke:none"
           id="path1286" />
        <path
           inkscape:connector-curvature="0"
           d="m 743.47227,506.04512 c -26.32931,0 -47.73359,21.40769 -47.73359,47.72166 0,26.31738 21.40428,47.72677 47.73359,47.72677 26.31227,0 47.71655,-21.40939 47.71655,-47.72677 0,-26.31397 -21.40428,-47.72166 -47.71655,-47.72166 z m 0,100.44844 c -29.07301,0 -52.72679,-23.65377 -52.72679,-52.72678 0,-29.07131 23.65378,-52.72168 52.72679,-52.72168 29.07301,0 52.72679,23.65037 52.72679,52.72168 0,29.07301 -23.65378,52.72678 -52.72679,52.72678"
           style="fill:#282d33;fill-opacity:1;fill-rule:nonzero;stroke:none"
           id="path1288" />
        <path
           inkscape:connector-curvature="0"
           d="m 753.56091,490.94453 c 0,1.20144 -0.97137,2.17452 -2.18133,2.17452 l -15.84871,0 c -1.19291,0 -2.18132,-0.97308 -2.16428,-2.17452 l -0.017,-10.30336 c 0.017,-1.20485 0.98841,-2.18474 2.18132,-2.18474 l 15.84871,0.007 c 1.20996,0 2.18133,0.97308 2.18133,2.17792 l 0,10.30337"
           style="fill:#ffffff;fill-opacity:1;fill-rule:nonzero;stroke:none"
           id="path1290" />
        <path
           inkscape:connector-curvature="0"
           d="m 735.87171,490.61904 15.20113,0 0,-9.65579 -15.21818,-0.007 0.017,9.66261 z m 15.50787,5.00001 -15.84871,0 c -1.24404,0 -2.41991,-0.48909 -3.30607,-1.37526 -0.88617,-0.88616 -1.36333,-2.06203 -1.36333,-3.30948 l 0,-10.29144 c 0,-2.59033 2.11316,-4.68645 4.6694,-4.68645 l 15.84871,0.007 c 1.26108,0 2.43696,0.4908 3.32312,1.37867 0.88617,0.88446 1.36333,2.05863 1.36333,3.30948 l 0,10.29144 c -0.017,2.58351 -2.11316,4.67622 -4.68645,4.67622"
           style="fill:#282d33;fill-opacity:1;fill-rule:nonzero;stroke:none"
           id="path1292" />
        <path
           inkscape:connector-curvature="0"
           d="m 707.9064,509.60341 -3.61283,-5.30676 c -0.40899,-0.61861 -0.25562,-1.46047 0.35788,-1.87969 l 8.16294,-5.54535 c 0.6135,-0.41581 1.46558,-0.25903 1.89162,0.36128 l 3.59578,5.30165"
           style="fill:#ffffff;fill-opacity:1;fill-rule:nonzero;stroke:none"
           id="path1294" />
        <path
           inkscape:connector-curvature="0"
           d="m 705.82732,511.00764 -3.59578,-5.30506 c -0.57942,-0.84867 -0.78392,-1.87458 -0.59646,-2.88515 0.18746,-1.01568 0.76687,-1.89162 1.61896,-2.47103 l 8.16293,-5.54364 c 1.75529,-1.18951 4.15816,-0.73279 5.35107,1.01397 l 3.59579,5.31358 -4.12408,2.80846 -2.96524,-4.35584 -6.27132,4.25871 2.96525,4.35754 -4.14112,2.80846"
           style="fill:#282d33;fill-opacity:1;fill-rule:nonzero;stroke:none"
           id="path1296" />
        <path
           inkscape:connector-curvature="0"
           d="m 779.03814,509.60341 3.59578,-5.30676 c 0.42605,-0.61861 0.25563,-1.46047 -0.35787,-1.87969 l -8.16294,-5.54535 c -0.6135,-0.41581 -1.46558,-0.25903 -1.89162,0.36128 l -3.61282,5.30165"
           style="fill:#ffffff;fill-opacity:1;fill-rule:nonzero;stroke:none"
           id="path1298" />
        <path
           inkscape:connector-curvature="0"
           d="m 781.10018,511.00764 -4.14112,-2.80846 2.96525,-4.35754 -6.27132,-4.25871 -2.96524,4.35755 -4.14112,-2.81187 3.61283,-5.30165 c 1.19291,-1.75699 3.59578,-2.21371 5.35107,-1.0242 l 8.16293,5.54534 c 0.85208,0.57771 1.4315,1.45365 1.61896,2.46933 0.2045,1.01057 -0.017,2.03648 -0.59646,2.88856 l -3.59578,5.30165"
           style="fill:#282d33;fill-opacity:1;fill-rule:nonzero;stroke:none"
           id="path1300" />
        <path
           inkscape:connector-curvature="0"
           d="m 773.31216,553.76848 c 0,16.47926 -13.37768,29.84159 -29.83989,29.84159 -16.49629,0 -29.85693,-13.36233 -29.85693,-29.84159 0,-16.47925 13.36064,-29.84159 29.85693,-29.84159 16.46221,0 29.83989,13.36234 29.83989,29.84159"
           style="fill:#ffffff;fill-opacity:1;fill-rule:nonzero;stroke:none"
           id="path1304" />
        <path
           inkscape:connector-curvature="0"
           d="m 722.40882,518.08503 3.47649,6.03273"
           style="fill:#ffffff;fill-opacity:1;fill-rule:nonzero;stroke:none"
           id="path1310" />
        <path
           inkscape:connector-curvature="0"
           d="m 707.37811,533.39181 6.03273,3.49013"
           style="fill:#ffffff;fill-opacity:1;fill-rule:nonzero;stroke:none"
           id="path1314" />
        <path
           inkscape:connector-curvature="0"
           d="m 702.02704,554.16555 6.97002,0"
           style="fill:#ffffff;fill-opacity:1;fill-rule:nonzero;stroke:none"
           id="path1318" />
        <path
           inkscape:connector-curvature="0"
           d="m 740.96715,501.67053 5.00001,0 0,-8.83434 -5.00001,0 0,8.83434 z"
           style="fill:#282d33;fill-opacity:1;fill-rule:nonzero;stroke:none"
           id="path1354" />
        <path
           inkscape:connector-curvature="0"
           d="m 767.87411,559.21329 1.83887,-1.83336 c 6.69674,-6.67755 6.69674,-17.50214 0,-24.17419 l -0.24701,-0.25526 c -6.66932,-6.6748 -17.48293,-6.6748 -24.17968,0 l -1.8114,1.83887 -1.83887,-1.83887 c -6.69678,-6.6748 -17.51038,-6.6748 -24.17967,0 l -0.27448,0.25526 c -6.64185,6.67205 -6.64185,17.49664 0,24.17419 l 1.83888,1.83336 24.45414,24.42668 24.39922,-24.42668"
           style="fill:#ff6952;fill-opacity:1;fill-rule:nonzero;stroke:none"
           id="path1356" />
      </g>
      <g
         id="g7065"
         transform="translate(115.9398,546.87443)">
        <g
           id="g8191"
           transform="translate(1.929707,0)" />
        <g
           id="g8223">
          <path
             inkscape:connector-curvature="0"
             d="m 484.14543,426.6993 9.56036,0 0,-71.66685 -9.56036,0 0,71.66685 z m 14.57059,5.00001 -19.58082,0 0,-81.66687 19.58082,0 0,81.66687"
             style="fill:#282d33;fill-opacity:1;fill-rule:nonzero;stroke:none"
             id="path2950" />
          <path
             inkscape:connector-curvature="0"
             d="m 476.63008,421.07386 24.57453,0 0,-51.66612 -24.57453,0 0,51.66612 z"
             style="fill:#aeb5b6;fill-opacity:1;fill-rule:nonzero;stroke:none"
             id="path2952" />
          <path
             inkscape:connector-curvature="0"
             d="m 476.63008,371.69916 24.57453,0 0,-4.99998 -24.57453,0 0,4.99998 z"
             style="fill:#282d33;fill-opacity:1;fill-rule:nonzero;stroke:none"
             id="path2954" />
          <g
             id="g8214"
             transform="translate(1.92971,0)">
            <path
               inkscape:connector-curvature="0"
               d="m 504.58944,455.24292 9.37494,0 0,-11.87521 -9.37494,0 0,11.87521 z"
               style="fill:#ffffff;fill-opacity:1;fill-rule:nonzero;stroke:none"
               id="path2946" />
            <path
               inkscape:connector-curvature="0"
               d="m 513.96438,457.74232 -4.99319,0 0,-9.37459 -4.3797,0 0,9.37459 -5.01024,0 0,-14.37461 14.38313,0 0,14.37461"
               style="fill:#282d33;fill-opacity:1;fill-rule:nonzero;stroke:none"
               id="path2948" />
            <path
               inkscape:connector-curvature="0"
               d="m 466.21764,446.36769 47.74674,0 0,-4.99998 -47.74674,0 0,4.99998 z"
               style="fill:#282d33;fill-opacity:1;fill-rule:nonzero;stroke:none"
               id="path2958" />
          </g>
          <path
             inkscape:connector-curvature="0"
             d="m 511.83807,396.69922 c 0,6.32926 -5.12952,11.45879 -11.45197,11.45879 -6.33948,0 -11.46901,-5.12953 -11.46901,-11.45879 0,-6.32755 5.12953,-11.45879 11.46901,-11.45879 6.32245,0 11.45197,5.13124 11.45197,11.45879"
             style="fill:#ffffff;fill-opacity:1;fill-rule:nonzero;stroke:none"
             id="path2962" />
          <path
             inkscape:connector-curvature="0"
             d="m 500.3861,387.74044 c -4.94207,0 -8.96389,4.02012 -8.96389,8.95878 0,4.94037 4.02182,8.95879 8.96389,8.95879 4.94207,0 8.94686,-4.01842 8.94686,-8.95879 0,-4.93866 -4.00479,-8.95878 -8.94686,-8.95878 z m 0,22.91758 c -7.70281,0 -13.95709,-6.26109 -13.95709,-13.9588 0,-7.6977 6.25428,-13.95879 13.95709,-13.95879 7.68578,0 13.95709,6.26109 13.95709,13.95879 0,7.69771 -6.27131,13.9588 -13.95709,13.9588"
             style="fill:#282d33;fill-opacity:1;fill-rule:nonzero;stroke:none"
             id="path2964" />
          <path
             inkscape:connector-curvature="0"
             d="m 504.9703,396.69922 c 0,2.53239 -2.06204,4.5842 -4.5842,4.5842 -2.5392,0 -4.58419,-2.05181 -4.58419,-4.5842 0,-2.53238 2.04499,-4.58419 4.58419,-4.58419 2.52216,0 4.5842,2.05181 4.5842,4.58419"
             style="fill:#ff6952;fill-opacity:1;fill-rule:nonzero;stroke:none"
             id="path2966" />
          <rect
             y="457.17911"
             x="452.24567"
             height="15.944881"
             width="79.724411"
             id="rect7421"
             style="fill:#282d33;fill-opacity:1;fill-rule:evenodd;stroke:none" />
        </g>
      </g>
      <g
         id="g7304"
         transform="translate(-74.359343,114.70477)">
        <g
           id="g7358">
          <path
             inkscape:connector-curvature="0"
             d="m 732.62869,564.06206 c 0,27.73694 -22.49495,50.22678 -50.22167,50.22678 -27.74377,0 -50.22167,-22.48984 -50.22167,-50.22678 0,-27.73355 22.4779,-50.22167 50.22167,-50.22167 27.72672,0 50.22167,22.48812 50.22167,50.22167"
             style="fill:#ffffff;fill-opacity:1;fill-rule:nonzero;stroke:none"
             id="path1286-5" />
          <path
             inkscape:connector-curvature="0"
             d="m 682.40702,516.34039 c -26.32931,0 -47.73359,21.40769 -47.73359,47.72167 0,26.31738 21.40428,47.72677 47.73359,47.72677 26.31227,0 47.71655,-21.40939 47.71655,-47.72677 0,-26.31398 -21.40428,-47.72167 -47.71655,-47.72167 z m 0,100.44845 c -29.07302,0 -52.72679,-23.65377 -52.72679,-52.72678 0,-29.07131 23.65377,-52.72168 52.72679,-52.72168 29.07301,0 52.72679,23.65037 52.72679,52.72168 0,29.07301 -23.65378,52.72678 -52.72679,52.72678"
             style="fill:#282d33;fill-opacity:1;fill-rule:nonzero;stroke:none"
             id="path1288-5" />
          <path
             inkscape:connector-curvature="0"
             d="m 692.49566,501.23981 c 0,1.20143 -0.97137,2.17451 -2.18133,2.17451 l -15.84871,0 c -1.19291,0 -2.18133,-0.97308 -2.16429,-2.17451 l -0.017,-10.30337 c 0.017,-1.20484 0.98842,-2.18473 2.18133,-2.18473 l 15.84871,0.007 c 1.20996,0 2.18133,0.97307 2.18133,2.17792 l 0,10.30336"
             style="fill:#ffffff;fill-opacity:1;fill-rule:nonzero;stroke:none"
             id="path1290-7" />
          <path
             inkscape:connector-curvature="0"
             d="m 674.80645,500.91431 15.20113,0 0,-9.65578 -15.21817,-0.007 0.017,9.6626 z m 15.50788,5.00002 -15.84871,0 c -1.24404,0 -2.41991,-0.4891 -3.30608,-1.37526 -0.88616,-0.88617 -1.36332,-2.06204 -1.36332,-3.30949 l 0,-10.29143 c 0,-2.59033 2.11316,-4.68645 4.6694,-4.68645 l 15.84871,0.007 c 1.26108,0 2.43695,0.4908 3.32312,1.37866 0.88616,0.88446 1.36333,2.05863 1.36333,3.30949 l 0,10.29143 c -0.017,2.58351 -2.11316,4.67623 -4.68645,4.67623"
             style="fill:#282d33;fill-opacity:1;fill-rule:nonzero;stroke:none"
             id="path1292-8" />
          <path
             inkscape:connector-curvature="0"
             d="m 646.84115,519.89868 -3.61283,-5.30676 c -0.409,-0.61861 -0.25562,-1.46047 0.35788,-1.87969 l 8.16293,-5.54534 c 0.6135,-0.41582 1.46558,-0.25904 1.89162,0.36128 l 3.59579,5.30165"
             style="fill:#ffffff;fill-opacity:1;fill-rule:nonzero;stroke:none"
             id="path1294-2" />
          <path
             inkscape:connector-curvature="0"
             d="m 644.76207,521.30291 -3.59578,-5.30505 c -0.57942,-0.84868 -0.78392,-1.87458 -0.59646,-2.88515 0.18746,-1.01568 0.76687,-1.89162 1.61895,-2.47104 l 8.16294,-5.54364 c 1.75529,-1.1895 4.15816,-0.73279 5.35107,1.01398 l 3.59578,5.31358 -4.12407,2.80846 -2.96524,-4.35584 -6.27132,4.2587 2.96524,4.35754 -4.14111,2.80846"
             style="fill:#282d33;fill-opacity:1;fill-rule:nonzero;stroke:none"
             id="path1296-9" />
          <path
             inkscape:connector-curvature="0"
             d="m 717.97289,519.89868 3.59578,-5.30676 c 0.42604,-0.61861 0.25563,-1.46047 -0.35787,-1.87969 l -8.16294,-5.54534 c -0.6135,-0.41582 -1.46558,-0.25904 -1.89162,0.36128 l -3.61283,5.30165"
             style="fill:#ffffff;fill-opacity:1;fill-rule:nonzero;stroke:none"
             id="path1298-2" />
          <path
             inkscape:connector-curvature="0"
             d="m 720.03493,521.30291 -4.14112,-2.80846 2.96524,-4.35754 -6.27131,-4.2587 -2.96525,4.35754 -4.14111,-2.81187 3.61282,-5.30165 c 1.19292,-1.75699 3.59578,-2.2137 5.35107,-1.0242 l 8.16294,5.54535 c 0.85208,0.57771 1.4315,1.45365 1.61896,2.46933 0.20449,1.01057 -0.017,2.03647 -0.59646,2.88855 l -3.59578,5.30165"
             style="fill:#282d33;fill-opacity:1;fill-rule:nonzero;stroke:none"
             id="path1300-6" />
          <path
             inkscape:connector-curvature="0"
             d="m 681.99802,522.63046 0,6.96661"
             style="fill:#ffffff;fill-opacity:1;fill-rule:nonzero;stroke:none"
             id="path1306" />
          <path
             inkscape:connector-curvature="0"
             d="m 679.50994,529.59707 5.00001,0 0,-6.96709 -5.00001,0 0,6.96709 z"
             style="fill:#282d33;fill-opacity:1;fill-rule:nonzero;stroke:none"
             id="path1308" />
          <path
             inkscape:connector-curvature="0"
             d="m 661.34357,528.3803 3.47649,6.03274"
             style="fill:#ffffff;fill-opacity:1;fill-rule:nonzero;stroke:none"
             id="path1310-7" />
          <path
             inkscape:connector-curvature="0"
             d="m 662.65577,535.66219 -3.47649,-6.03274 4.32858,-2.4983 3.47649,6.03103 -4.32858,2.50001"
             style="fill:#282d33;fill-opacity:1;fill-rule:nonzero;stroke:none"
             id="path1312" />
          <path
             inkscape:connector-curvature="0"
             d="m 646.31286,543.68709 6.03273,3.49012"
             style="fill:#ffffff;fill-opacity:1;fill-rule:nonzero;stroke:none"
             id="path1314-4" />
          <path
             inkscape:connector-curvature="0"
             d="m 651.10155,549.3415 -6.03273,-3.48842 2.48807,-4.32857 6.04978,3.49012 -2.50512,4.32687"
             style="fill:#282d33;fill-opacity:1;fill-rule:nonzero;stroke:none"
             id="path1316" />
          <path
             inkscape:connector-curvature="0"
             d="m 640.96179,564.46083 6.97002,0"
             style="fill:#ffffff;fill-opacity:1;fill-rule:nonzero;stroke:none"
             id="path1318-4" />
          <path
             inkscape:connector-curvature="0"
             d="m 640.96179,566.96084 6.97513,0 0,-4.99998 -6.97513,0 0,4.99998 z"
             style="fill:#282d33;fill-opacity:1;fill-rule:nonzero;stroke:none"
             id="path1320" />
          <path
             inkscape:connector-curvature="0"
             d="m 646.72185,585.12721 6.03274,-3.48501"
             style="fill:#ffffff;fill-opacity:1;fill-rule:nonzero;stroke:none"
             id="path1322" />
          <path
             inkscape:connector-curvature="0"
             d="m 647.96589,587.28979 -2.50512,-4.32857 6.04978,-3.48502 2.48808,4.33028 -6.03274,3.48331"
             style="fill:#282d33;fill-opacity:1;fill-rule:nonzero;stroke:none"
             id="path1324" />
          <path
             inkscape:connector-curvature="0"
             d="m 662.02523,600.14429 3.49354,-6.03274"
             style="fill:#ffffff;fill-opacity:1;fill-rule:nonzero;stroke:none"
             id="path1326" />
          <path
             inkscape:connector-curvature="0"
             d="m 664.18952,601.39514 -4.32857,-2.50171 3.49353,-6.03444 4.32857,2.50512 -3.49353,6.03103"
             style="fill:#282d33;fill-opacity:1;fill-rule:nonzero;stroke:none"
             id="path1328" />
          <path
             inkscape:connector-curvature="0"
             d="m 682.78193,605.50047 0.017,-6.96832"
             style="fill:#ffffff;fill-opacity:1;fill-rule:nonzero;stroke:none"
             id="path1330" />
          <path
             inkscape:connector-curvature="0"
             d="m 685.28705,605.50218 -4.99319,-0.003 0,-6.96662 5.01023,0 -0.017,6.97003"
             style="fill:#282d33;fill-opacity:1;fill-rule:nonzero;stroke:none"
             id="path1332" />
          <path
             inkscape:connector-curvature="0"
             d="m 703.45342,599.75233 -3.47649,-6.03785"
             style="fill:#ffffff;fill-opacity:1;fill-rule:nonzero;stroke:none"
             id="path1334" />
          <path
             inkscape:connector-curvature="0"
             d="m 701.28914,600.99978 -3.47649,-6.03615 4.32857,-2.49659 3.49353,6.03784 -4.34561,2.4949"
             style="fill:#282d33;fill-opacity:1;fill-rule:nonzero;stroke:none"
             id="path1336" />
          <path
             inkscape:connector-curvature="0"
             d="m 718.48414,584.44213 -6.03274,-3.49012"
             style="fill:#ffffff;fill-opacity:1;fill-rule:nonzero;stroke:none"
             id="path1338" />
          <path
             inkscape:connector-curvature="0"
             d="m 717.22306,586.60472 -6.03274,-3.49013 2.50512,-4.32687 6.03274,3.49183 -2.50512,4.32517"
             style="fill:#282d33;fill-opacity:1;fill-rule:nonzero;stroke:none"
             id="path1340" />
          <path
             inkscape:connector-curvature="0"
             d="m 723.83521,563.67521 -6.97003,-0.007"
             style="fill:#ffffff;fill-opacity:1;fill-rule:nonzero;stroke:none"
             id="path1342" />
          <path
             inkscape:connector-curvature="0"
             d="m 723.83521,566.17522 -6.97003,-0.007 0,-5.00002 6.97003,0.007 0,5.00002"
             style="fill:#282d33;fill-opacity:1;fill-rule:nonzero;stroke:none"
             id="path1344" />
          <path
             inkscape:connector-curvature="0"
             d="m 718.09218,543.00883 -6.03274,3.4799"
             style="fill:#ffffff;fill-opacity:1;fill-rule:nonzero;stroke:none"
             id="path1346" />
          <path
             inkscape:connector-curvature="0"
             d="m 713.30348,548.65472 -2.50512,-4.33368 6.03274,-3.4782 2.50512,4.33028 -6.03274,3.4816"
             style="fill:#282d33;fill-opacity:1;fill-rule:nonzero;stroke:none"
             id="path1348" />
          <path
             inkscape:connector-curvature="0"
             d="m 702.77176,527.98664 -3.47649,6.02933"
             style="fill:#ffffff;fill-opacity:1;fill-rule:nonzero;stroke:none"
             id="path1350" />
          <path
             inkscape:connector-curvature="0"
             d="m 701.45956,535.26853 -4.32858,-2.50512 3.47649,-6.02933 4.32858,2.50512 -3.47649,6.02933"
             style="fill:#282d33;fill-opacity:1;fill-rule:nonzero;stroke:none"
             id="path1352" />
          <path
             inkscape:connector-curvature="0"
             d="m 679.9019,511.96581 5.00001,0 0,-8.83435 -5.00001,0 0,8.83435 z"
             style="fill:#282d33;fill-opacity:1;fill-rule:nonzero;stroke:none"
             id="path1354-7" />
        </g>
      </g>
      <g
         id="g8639"
         transform="translate(0,-74.000005)">
        <path
           id="path1180"
           style="fill:#ffffff;fill-opacity:1;fill-rule:nonzero;stroke:none"
           d="m 937.0573,765.04873 c 0,3.82414 2.8801,6.91208 6.4418,6.91208 l 12.4915,0 0,25.94247 30.6408,-25.94247 43.4562,0 c 3.5617,0 6.4588,-3.08794 6.4588,-6.91208 l 0,-78.48009 c 0,-3.82585 -2.8971,-6.91549 -6.4588,-6.91549 l -86.5885,0 c -3.5617,0 -6.4418,3.08964 -6.4418,6.91549 l 0,78.48009"
           inkscape:connector-curvature="0" />
        <path
           id="path1182"
           style="fill:#282d33;fill-opacity:1;fill-rule:nonzero;stroke:none"
           d="m 943.4991,682.15315 c -2.1643,0 -3.9366,1.98194 -3.9366,4.41549 l 0,78.48009 c 0,2.43354 1.7723,4.41208 3.9366,4.41208 l 14.9966,0 0,23.0505 27.2155,-23.0505 44.3764,0 c 2.1813,0 3.9536,-1.97854 3.9536,-4.41208 l 0,-78.48009 c 0,-2.43355 -1.7723,-4.41549 -3.9536,-4.41549 l -86.5885,0 z m 9.9864,121.1438 0,-28.83613 -9.9864,0 c -4.9251,0 -8.9469,-4.22121 -8.9469,-9.41209 l 0,-78.48009 c 0,-5.19088 4.0218,-9.4155 8.9469,-9.4155 l 86.5885,0 c 4.942,0 8.9468,4.22462 8.9468,9.4155 l 0,78.48009 c 0,5.19088 -4.0048,9.41209 -8.9468,9.41209 l -42.553,0 -34.0491,28.83613"
           inkscape:connector-curvature="0" />
        <path
           id="path1184"
           style="fill:#ff6952;fill-opacity:1;fill-rule:nonzero;stroke:none"
           d="m 963.0969,764.86298 -18.9332,0 -0.017,-78.112 85.2763,0 0.017,78.112 -45.4159,0 -20.9271,17.72499 0,-17.72499"
           inkscape:connector-curvature="0" />
        <path
           id="path1186"
           style="fill:#282d33;fill-opacity:1;fill-rule:nonzero;stroke:none"
           d="m 978.0765,758.41954 -3.5276,-3.53444 32.8222,-32.82046 3.5276,3.53614 -32.8222,32.81876"
           inkscape:connector-curvature="0" />
        <path
           id="path1188"
           style="fill:#282d33;fill-opacity:1;fill-rule:nonzero;stroke:none"
           d="m 1007.3711,758.41954 -32.8222,-32.81876 3.5276,-3.53614 32.8222,32.82046 -3.5276,3.53444"
           inkscape:connector-curvature="0" />
        <path
           id="path1190"
           style="fill:#282d33;fill-opacity:1;fill-rule:nonzero;stroke:none"
           d="m 962.8754,742.97812 5,0 0,-43.74244 -5,0 0,43.74244 z"
           inkscape:connector-curvature="0" />
        <path
           id="path1192"
           style="fill:#282d33;fill-opacity:1;fill-rule:nonzero;stroke:none"
           d="m 984.4501,725.29062 -21.302,0 0,-5.00002 21.302,0 c 2.9482,0 5.3511,-2.40116 5.3511,-5.35277 l 0,-7.85108 c 0,-2.95161 -2.4029,-5.35107 -5.3511,-5.35107 l -21.302,0 0,-5.00001 21.302,0 c 5.7089,0 10.3613,4.64384 10.3613,10.35108 l 0,7.85108 c 0,5.70894 -4.6524,10.35279 -10.3613,10.35279"
           inkscape:connector-curvature="0" />
      </g>
      <g
         id="g8299"
         transform="translate(-342.45674,74.97465)">
        <path
           id="path806"
           style="fill:#282d33;fill-opacity:1;fill-rule:nonzero;stroke:none"
           d="m 757.03909,947.09182 -3.22087,0 c -12.01434,0 -21.77919,-9.77167 -21.77919,-21.78602 l 0,-22.50005 4.99319,0 0,22.50005 c 0,9.25531 7.5324,16.78601 16.786,16.78601 l 3.22087,0 c 9.2536,0 16.76896,-7.5307 16.76896,-16.78601 l 0,-61.06866 5.01024,0 0,61.06866 c 0,12.01435 -9.76485,21.78602 -21.7792,21.78602"
           inkscape:connector-curvature="0" />
        <path
           id="path808"
           style="fill:#282d33;fill-opacity:1;fill-rule:nonzero;stroke:none"
           d="m 803.06852,898.2812 -5.01024,0 0,-35.77378 c 0,-4.75632 -3.86845,-8.62647 -8.6401,-8.62647 l -1.8405,0 c -4.75461,0 -8.62306,3.87015 -8.62306,8.62647 l 0,35.23356 -5.01024,0 0,-35.23356 c 0,-7.51366 6.11795,-13.62649 13.6333,-13.62649 l 1.8405,0 c 7.5324,0 13.65034,6.11283 13.65034,13.62649 l 0,35.77378"
           inkscape:connector-curvature="0" />
        <path
           id="path810"
           style="fill:#ffffff;fill-opacity:1;fill-rule:nonzero;stroke:none"
           d="m 813.27645,910.4404 c 0,6.8797 -5.57261,12.45572 -12.45742,12.45572 -6.86778,0 -12.45743,-5.57602 -12.45743,-12.45572 0,-6.8763 5.58965,-12.45402 12.45743,-12.45402 6.88481,0 12.45742,5.57772 12.45742,12.45402"
           inkscape:connector-curvature="0" />
        <path
           id="path812"
           style="fill:#282d33;fill-opacity:1;fill-rule:nonzero;stroke:none"
           d="m 800.81903,900.48638 c -5.48741,0 -9.95231,4.46491 -9.95231,9.95402 0,5.4891 4.4649,9.95742 9.95231,9.95742 5.4874,0 9.9523,-4.46832 9.9523,-9.95742 0,-5.48911 -4.4649,-9.95402 -9.9523,-9.95402 z m 0,24.91145 c -8.24815,0 -14.96255,-6.71099 -14.96255,-14.95743 0,-8.24474 6.7144,-14.95403 14.96255,-14.95403 8.24814,0 14.9455,6.70929 14.9455,14.95403 0,8.24644 -6.69736,14.95743 -14.9455,14.95743"
           inkscape:connector-curvature="0" />
        <path
           id="path814"
           style="fill:#ff6952;fill-opacity:1;fill-rule:nonzero;stroke:none"
           d="m 806.85176,910.4404 c 0,3.32993 -2.70962,6.02591 -6.03273,6.02591 -3.32312,0 -6.0157,-2.69598 -6.0157,-6.02591 0,-3.32653 2.69258,-6.02592 6.0157,-6.02592 3.32311,0 6.03273,2.69939 6.03273,6.02592"
           inkscape:connector-curvature="0" />
        <path
           id="path816"
           style="fill:#ff6952;fill-opacity:1;fill-rule:nonzero;stroke:none"
           d="m 708.50454,861.59058 -5.01024,0 0,-26.13333 c 0,-8.25497 6.73145,-14.96766 14.97959,-14.96766 l 0,5.00001 c -5.50444,0 -9.96935,4.47172 -9.96935,9.96765 l 0,26.13333"
           inkscape:connector-curvature="0" />
        <path
           id="path818"
           style="fill:#ff6952;fill-opacity:1;fill-rule:nonzero;stroke:none"
           d="m 766.53128,861.78996 -4.9932,0 0,-26.13162 c 0,-5.49593 -4.48195,-9.96935 -9.98639,-9.96935 l 0,-5.00002 c 8.26518,0 14.97959,6.7144 14.97959,14.96937 l 0,26.13162"
           inkscape:connector-curvature="0" />
        <path
           id="path820"
           style="fill:#282d33;fill-opacity:1;fill-rule:nonzero;stroke:none"
           d="m 755.26676,827.07106 c -1.17587,-0.50273 -2.41991,-0.75665 -3.71507,-0.75665 l 0,-6.25086 c 2.14724,0 4.22632,0.42774 6.16906,1.26619 l -2.45399,5.74132"
           inkscape:connector-curvature="0" />
        <path
           id="path822"
           style="fill:#282d33;fill-opacity:1;fill-rule:nonzero;stroke:none"
           d="m 741.36079,906.38108 -12.86642,0 c -13.76963,0 -25.00007,-11.21509 -25.00007,-24.99836 l 0,-19.82452 5.01024,0 0,19.82452 c 0,11.02593 8.9639,19.99835 19.98983,19.99835 l 12.86642,0 c 11.02594,0 20.00687,-8.97242 20.00687,-19.99835 l 0,-19.82452 4.9932,0 0,19.82452 c 0,13.78327 -11.21339,24.99836 -25.00007,24.99836"
           inkscape:connector-curvature="0" />
        <path
           id="path824"
           style="fill:#282d33;fill-opacity:1;fill-rule:nonzero;stroke:none"
           d="m 714.65657,826.92621 -2.55625,-5.70213 c 2.01092,-0.90321 4.14112,-1.35992 6.37357,-1.35992 l 0,6.25087 c -1.34629,0 -2.60737,0.27266 -3.81732,0.81118"
           inkscape:connector-curvature="0" />
      </g>
      <g
         id="g8399"
         transform="translate(-332.36051,-337.64981)">
        <path
           id="path714"
           style="fill:#282d33;fill-opacity:1;fill-rule:nonzero;stroke:none"
           d="m 790.92989,1063.9619 -4.99319,0 0,-41.2918 c 0,-0.663 0.25562,-1.2986 0.71575,-1.7672 7.95843,-7.9755 12.35517,-18.5788 12.35517,-29.85016 0,-23.30613 -18.95028,-42.26494 -42.26323,-42.26494 -23.2959,0 -42.26323,18.95881 -42.26323,42.26494 0,0.64247 0.017,1.27982 0.0511,1.92229 0.017,0.47376 -0.10225,0.9424 -0.34083,1.3514 l -12.29724,21.31567 6.07534,0 c 1.37356,0 2.50001,1.1213 2.50001,2.5 l 0,17.6739 c 0,5.2795 4.28426,9.5723 9.56717,9.5723 l 19.10366,0 c 1.39741,0 2.50512,1.1179 2.50512,2.5 l 0,16.0736 -5.01024,0 0,-13.5736 -16.59854,0 c -8.04365,0 -14.56718,-6.5372 -14.56718,-14.5723 l 0,-15.1739 -7.9005,0 c -0.8998,0 -1.72461,-0.4754 -2.17622,-1.2508 -0.43626,-0.772 -0.43626,-1.7247 0,-2.5 l 14.11388,-24.43945 c -0.0119,-0.46523 -0.0256,-0.93047 -0.0256,-1.39911 0,-26.06176 21.2066,-47.26495 47.26324,-47.26495 26.05665,0 47.25643,21.20319 47.25643,47.26495 0,12.25636 -4.63532,23.80376 -13.07093,32.63476 l 0,40.2744"
           inkscape:connector-curvature="0" />
        <path
           id="path724"
           style="fill:#ff6952;fill-opacity:1;fill-rule:nonzero;stroke:none"
           d="m 779.32455,991.05103 c 0,12.77437 -10.34427,23.13397 -23.12549,23.13397 -12.78122,0 -23.14253,-10.3596 -23.14253,-23.13397 0,-12.78122 10.36131,-23.14082 23.14253,-23.14082 12.78122,0 23.12549,10.3596 23.12549,23.14082"
           inkscape:connector-curvature="0" />
        <path
           id="path726"
           style="fill:#ffffff;fill-opacity:1;fill-rule:nonzero;stroke:none"
           d="m 743.48601,994.79849 25.41196,0 0,-7.50031 -25.41196,0 0,7.50031 z"
           inkscape:connector-curvature="0" />
        <path
           id="path728"
           style="fill:#ffffff;fill-opacity:1;fill-rule:nonzero;stroke:none"
           d="m 752.4499,1003.759 7.50036,0 0,-25.42 -7.50036,0 0,25.42 z"
           inkscape:connector-curvature="0" />
      </g>
      <g
         id="g8864"
         transform="translate(-436.3859,367.5889)">
        <g
           transform="matrix(1.331,0,0,1.331,-242.91242,-400.78797)"
           id="g8813">
          <path
             inkscape:connector-curvature="0"
             d="m 950.5536,955.26398 0,41.6633"
             style="fill:#ffffff;fill-opacity:1;fill-rule:nonzero;stroke:none"
             id="path732" />
          <path
             inkscape:connector-curvature="0"
             d="m 950.5536,968.38858 0,15.4141"
             style="fill:#ffffff;fill-opacity:1;fill-rule:nonzero;stroke:none"
             id="path740" />
          <path
             inkscape:connector-curvature="0"
             d="m 978.6808,976.09565 c 0,15.5368 -12.5938,28.12545 -28.1187,28.12545 -15.542,0 -28.1357,-12.59035 -28.1357,-28.12545 0,-15.53 12.5937,-28.1255 28.1357,-28.1255 15.5249,0 28.1187,12.5955 28.1187,28.1255"
             style="fill:#ff6952;fill-opacity:1;fill-rule:nonzero;stroke:none"
             id="path812-4" />
          <path
             inkscape:connector-curvature="0"
             d="m 953.2598,946.76236 -5.4124,0 0,58.66654 5.4124,0 0,-58.66654"
             style="fill:#ffffff;fill-opacity:1;fill-rule:nonzero;stroke:none"
             id="path730-6" />
        </g>
        <g
           transform="matrix(0,1,-1,0,1968.2395,44.725185)"
           id="g8807">
          <path
             inkscape:connector-curvature="0"
             d="m 896.51848,877.60549 29.4604,29.4604"
             style="fill:#ffffff;fill-opacity:1;fill-rule:nonzero;stroke:none"
             id="path732-4" />
          <path
             inkscape:connector-curvature="0"
             d="m 905.79897,886.88598 10.89942,10.89942"
             style="fill:#ffffff;fill-opacity:1;fill-rule:nonzero;stroke:none"
             id="path740-7" />
          <path
             inkscape:connector-curvature="0"
             d="m 931.13763,872.44677 c 10.98617,10.98618 10.98253,28.79286 0.005,39.77062 -10.98985,10.98985 -28.79767,10.99222 -39.78264,0.007 -10.98137,-10.98137 -10.98264,-28.79282 0.007,-39.78268 10.97776,-10.97776 28.78929,-10.97656 39.77066,0.005"
             style="fill:#ff6952;fill-opacity:1;fill-rule:nonzero;stroke:none"
             id="path812-4-8" />
          <path
             inkscape:connector-curvature="0"
             d="m 892.4205,869.68036 -3.82715,3.82715 41.48351,41.48351 3.82715,-3.82715 -41.48351,-41.48351"
             style="fill:#ffffff;fill-opacity:1;fill-rule:nonzero;stroke:none"
             id="path730-6-6" />
        </g>
      </g>
      <g
         id="g8905"
         transform="translate(-512.16766,-7.5029457)">
        <path
           id="path934"
           style="fill:#ffffff;fill-opacity:1;fill-rule:nonzero;stroke:none"
           d="m 895.62688,1300.1299 -5.33744,-5.6391 0,-16.2628 c -0.67485,-4.1548 -3.62475,-8.117 -7.76076,-8.1187 l -2.48807,0 c -0.10055,0 -0.20109,0.015 -0.31357,0.019 l 0.31357,29.2878 4.0116,6.7382 c 4.36265,-0.605 8.35039,-2.7607 11.57467,-6.0259"
           inkscape:connector-curvature="0" />
        <path
           id="path936"
           style="fill:#282d33;fill-opacity:1;fill-rule:nonzero;stroke:none"
           d="m 882.54061,1298.7171 2.76245,4.6558 c 2.39946,-0.5863 4.68645,-1.7332 6.75019,-3.3811 l -4.26382,-4.5041 0,-17.0433 c -0.52488,-2.8613 -2.52386,-5.8334 -5.26075,-5.8351 l -0.27607,0 0.288,26.1078 z m 0.21303,10.1415 -5.20111,-8.739 -0.34935,-32.345 2.38753,-0.1397 c 0.17382,-0.014 0.31186,-0.024 0.4499,-0.024 l 2.48807,0 c 5.62374,0 9.39846,5.1414 10.23691,10.2164 l 0.0239,0.4022 0,15.2676 6.32585,6.6752 -1.71268,1.7195 c -3.69974,3.7458 -8.20043,6.0754 -12.99935,6.7417 l -1.64963,0.2266"
           inkscape:connector-curvature="0" />
        <path
           id="path938"
           style="fill:#ffffff;fill-opacity:1;fill-rule:nonzero;stroke:none"
           d="m 892.18958,1327.9043 -22.12514,-37.132 -0.31186,-29.2877 c 0.10054,-0.01 0.19939,-0.019 0.31186,-0.019 l 2.48808,0 c 4.1377,0 7.08761,3.9638 7.76246,8.1169 l 0,16.2645 6.07534,6.4196 17.3995,17.3927 1.57464,-1.5917 -10.8112,-10.7584 c -2.67554,-2.8442 -1.77574,-8.0982 1.06169,-10.7856 0,0 0.68848,-0.5658 0.76176,-0.6272 l 19.25192,19.24 0.8998,13.981 0,10.3374"
           inkscape:connector-curvature="0" />
        <path
           id="path940"
           style="fill:#282d33;fill-opacity:1;fill-rule:nonzero;stroke:none"
           d="m 919.02673,1329.4534 -5.00001,0 0,-10.2591 -0.83674,-12.9584 -16.76215,-16.7605 c -1.16223,1.9087 -1.45024,4.6422 -0.0511,6.1163 l 12.5256,12.4642 -5.11249,5.1432 -19.1616,-19.1667 -6.81324,-7.1916 0,-17.045 c -0.52489,-2.8613 -2.52558,-5.8317 -5.26246,-5.8317 l -0.27437,0 0.2863,26.1078 21.77578,36.5543 -4.28767,2.5596 -22.47449,-37.7114 -0.35106,-32.3177 2.35004,-0.1636 c 0.19939,-0.017 0.33742,-0.027 0.48739,-0.027 l 2.48808,0 c 5.62544,0 9.40016,5.1414 10.22497,10.2164 l 0.0375,0.4005 0,15.2693 5.38856,5.697 2.26143,2.2597 c 0.0256,-3.0385 1.3497,-6.123 3.43729,-8.0998 l 0.12611,-0.1159 2.51194,-2.0757 21.52527,21.5202 0.96115,15.0801 0,10.3374"
           inkscape:connector-curvature="0" />
        <path
           id="path942"
           style="fill:#aeb5b6;fill-opacity:1;fill-rule:nonzero;stroke:none"
           d="m 885.74103,1352.5686 38.69983,0 0,-19.8342 -38.69983,0 0,19.8342 z"
           inkscape:connector-curvature="0" />
        <path
           id="path944"
           style="fill:#ffffff;fill-opacity:1;fill-rule:nonzero;stroke:none"
           d="m 963.07763,1300.1299 5.33744,-5.6391 0,-16.2628 c 0.67485,-4.1548 3.63838,-8.117 7.76246,-8.1187 l 2.48807,0 c 0.11248,0 0.21132,0.015 0.31187,0.019 l -0.31187,29.2878 -4.0133,6.7382 c -4.36265,-0.605 -8.35039,-2.7607 -11.57467,-6.0259"
           inkscape:connector-curvature="0" />
        <path
           id="path946"
           style="fill:#282d33;fill-opacity:1;fill-rule:nonzero;stroke:none"
           d="m 966.65296,1299.9918 c 2.06204,1.6479 4.34903,2.7948 6.75019,3.3811 l 2.77438,-4.6558 0.27437,-26.1061 -0.27437,0 c -2.73689,0 -4.73757,2.9738 -5.26246,5.8351 l 0,17.0433 -4.26211,4.5041 z m 9.29962,8.8668 -1.64963,-0.2267 c -4.80063,-0.6663 -9.29962,-2.9976 -12.99935,-6.7434 l -1.70076,-1.7177 6.31222,-6.6753 0.0375,-15.6697 c 0.82482,-5.075 4.60124,-10.2131 10.22498,-10.2165 l 2.48807,0 c 0.13804,0 0.27437,0.01 0.41241,0.02 l 2.31255,0.196 0.0869,2.3296 -0.32379,29.9626 -5.2011,8.7389"
           inkscape:connector-curvature="0" />
        <path
           id="path948"
           style="fill:#ffffff;fill-opacity:1;fill-rule:nonzero;stroke:none"
           d="m 966.51493,1327.9043 22.12514,-37.132 0.31356,-29.2877 c -0.10054,-0.01 -0.20109,-0.019 -0.31356,-0.019 l -2.48638,0 c -4.12577,0 -7.08761,3.9638 -7.76416,8.1169 l 0,16.2645 -6.07364,6.4196 -17.38756,17.3927 -1.58828,-1.5917 10.81291,-10.7584 c 2.67553,-2.8442 1.77573,-8.0982 -1.0634,-10.7856 0,0 -0.68678,-0.5658 -0.76176,-0.6272 l -19.25022,19.24 -0.8998,13.981 0,10.3374"
           inkscape:connector-curvature="0" />
        <path
           id="path950"
           style="fill:#282d33;fill-opacity:1;fill-rule:nonzero;stroke:none"
           d="m 944.67779,1329.4534 -5.00002,0 0.0119,-10.4977 0.96286,-14.9199 21.52527,-21.5321 2.62441,2.2035 c 2.09953,1.9768 3.41344,5.0613 3.45093,8.0896 l 2.30062,-2.3006 5.33744,-5.6459 0.0375,-15.6697 c 0.82481,-5.075 4.59953,-10.2148 10.22497,-10.2165 l 2.48638,0 c 0.14996,0 0.29993,0.01 0.43797,0.022 l 2.30062,0.2062 0.075,2.3177 -0.3255,29.9626 -22.46256,37.7114 -4.30131,-2.5597 21.78942,-36.5543 0.27437,-26.1077 -0.27437,0 c -2.73858,0 -4.73927,2.9703 -5.26245,5.8316 l 0,17.045 -6.76382,7.1439 -19.21276,19.2144 -5.11249,-5.1431 12.58865,-12.5188 c 1.33777,-1.4298 1.04977,-4.1548 -0.11247,-6.0617 l -16.76385,16.7604 -0.83674,12.9585 0,10.259"
           inkscape:connector-curvature="0" />
        <path
           id="path952"
           style="fill:#aeb5b6;fill-opacity:1;fill-rule:nonzero;stroke:none"
           d="m 934.26535,1352.5686 38.71244,0 0,-19.8342 -38.71244,0 0,19.8342 z"
           inkscape:connector-curvature="0" />
        <path
           id="path954"
           style="fill:#ff6952;fill-opacity:1;fill-rule:nonzero;stroke:none"
           d="m 956.5149,1275.4161 2.01262,-2.0177 c 7.33812,-7.3313 7.33812,-19.2196 0,-26.5509 l -0.27437,-0.2795 c -7.3245,-7.3313 -19.21273,-7.3313 -26.55086,0 l -2.01261,2.016 -2.02455,-2.016 c -7.32449,-7.3313 -19.21273,-7.3313 -26.54915,0 l -0.27607,0.2795 c -7.32449,7.3313 -7.32449,19.2196 0,26.5509 l 2.01262,2.0177 26.83715,26.832 26.82522,-26.832"
           inkscape:connector-curvature="0" />
      </g>
    </g>
  </g>
</svg>
