<?xml version="1.0" encoding="UTF-8" standalone="no"?>
<!-- Created with Inkscape (http://www.inkscape.org/) -->

<svg
   xmlns:dc="http://purl.org/dc/elements/1.1/"
   xmlns:cc="http://creativecommons.org/ns#"
   xmlns:rdf="http://www.w3.org/1999/02/22-rdf-syntax-ns#"
   xmlns:svg="http://www.w3.org/2000/svg"
   xmlns="http://www.w3.org/2000/svg"
   xmlns:sodipodi="http://sodipodi.sourceforge.net/DTD/sodipodi-0.dtd"
   xmlns:inkscape="http://www.inkscape.org/namespaces/inkscape"
   width="210mm"
   height="297mm"
   id="svg5679"
   version="1.1"
   inkscape:version="0.48.4 r9939"
   sodipodi:docname="new_doctors_diary_non_medical_icons_set.svg">
  <defs
     id="defs3" />
  <sodipodi:namedview
     inkscape:document-units="mm"
     id="base"
     pagecolor="#ffffff"
     bordercolor="#666666"
     borderopacity="1.0"
     inkscape:pageopacity="0.0"
     inkscape:pageshadow="2"
     inkscape:zoom="0.35"
     inkscape:cx="401.32729"
     inkscape:cy="587.91255"
     inkscape:current-layer="g5867"
     showgrid="false"
     inkscape:window-width="1366"
     inkscape:window-height="705"
     inkscape:window-x="-8"
     inkscape:window-y="-8"
     inkscape:window-maximized="1" />
  <metadata
     id="metadata4">
    <rdf:RDF>
      <cc:Work
         rdf:about="">
        <dc:format>image/svg+xml</dc:format>
        <dc:type
           rdf:resource="http://purl.org/dc/dcmitype/StillImage" />
        <dc:title />
      </cc:Work>
    </rdf:RDF>
  </metadata>
  <g
     inkscape:label="Layer 1"
     inkscape:groupmode="layer"
     id="layer1">
    <g
       transform="matrix(0.17041625,0,0,-0.17041625,-1360.8731,1120.8925)"
       id="g5685">
      <path
         inkscape:connector-curvature="0"
         id="path1250"
         style="fill:#ff6952;fill-opacity:1;fill-rule:nonzero;stroke:none"
         d="m 9208.95,5776.11 c 0,-70.55 -57.22,-127.75 -127.78,-127.75 -70.49,0 -127.7,57.2 -127.7,127.75 0,70.56 57.21,127.75 127.7,127.75 70.56,0 127.78,-57.19 127.78,-127.75" />
      <path
         inkscape:connector-curvature="0"
         id="path1252"
         style="fill:#282d33;fill-opacity:1;fill-rule:nonzero;stroke:none"
         d="m 9285.96,5371.44 -29.33,0 0,243.61 c 0,3.88 1.53,7.61 4.25,10.35 47.01,47.09 72.91,109.65 72.91,176.17 0,137.53 -111.93,249.42 -249.47,249.42 -137.53,0 -249.39,-111.89 -249.39,-249.42 0,-3.8 0.15,-7.54 0.3,-11.31 0.15,-2.79 -0.59,-5.55 -1.98,-7.97 l -72.62,-125.88 35.94,0 c 8.07,0 14.67,-6.56 14.67,-14.66 l 0,-104.27 c 0,-31.18 25.31,-56.55 56.48,-56.55 l 112.82,0 c 8.06,0 14.66,-6.56 14.66,-14.67 l 0,-94.82 -29.34,0 0,80.15 -98.14,0 c -47.31,0 -85.82,38.53 -85.82,85.89 l 0,89.59 -46.72,0 c -5.21,0 -10.05,2.8 -12.69,7.34 -2.64,4.54 -2.64,10.13 0,14.67 l 83.25,144.21 c -0.07,2.75 -0.15,5.5 -0.15,8.28 0,153.7 125.07,278.76 278.73,278.76 153.75,0 278.81,-125.06 278.81,-278.76 0,-72.3 -27.36,-140.41 -77.17,-192.5 l 0,-237.63" />
      <path
         inkscape:connector-curvature="0"
         id="path1254"
         style="fill:#282d33;fill-opacity:1;fill-rule:nonzero;stroke:none"
         d="m 8941.14,5839.49 -29.34,0 0,99.21 99.25,0.03 0,-29.34 -69.91,-0.02 0,-69.88" />
      <path
         inkscape:connector-curvature="0"
         id="path1256"
         style="fill:#282d33;fill-opacity:1;fill-rule:nonzero;stroke:none"
         d="m 9070.83,5758.95 -143.18,143.19 20.76,20.74 143.18,-143.19 -20.76,-20.74" />
      <path
         inkscape:connector-curvature="0"
         id="path1258"
         style="fill:#282d33;fill-opacity:1;fill-rule:nonzero;stroke:none"
         d="m 9221.27,5839.52 0,69.87 -69.9,0.02 0.07,29.34 99.17,-0.02 0,-99.19 -29.34,-0.02" />
      <path
         inkscape:connector-curvature="0"
         id="path1260"
         style="fill:#282d33;fill-opacity:1;fill-rule:nonzero;stroke:none"
         d="m 9091.95,5759.3 -20.75,20.74 142.88,142.85 20.69,-20.74 -142.82,-142.85" />
      <path
         inkscape:connector-curvature="0"
         id="path1262"
         style="fill:#282d33;fill-opacity:1;fill-rule:nonzero;stroke:none"
         d="m 9066.5,5371.44 29.3398,0 0,398.688 -29.3398,0 0,-398.688 z" />
    </g>
    <g
       id="g5782"
       transform="translate(-720.71428,-78.6821)">
      <path
         id="path2014"
         style="fill:#282d33;fill-opacity:1;fill-rule:nonzero;stroke:none"
         d="m 1229.0144,282.79823 -90.2695,0 0,-60.61876 5.0102,0 0,55.61874 80.2661,0 0,-31.24411 4.9932,0 0,36.24413"
         inkscape:connector-curvature="0" />
      <path
         id="path2018"
         style="fill:#282d33;fill-opacity:1;fill-rule:nonzero;stroke:none"
         d="m 1143.7551,214.05572 -5.0102,0 0,-34.89783 90.2695,0 0,16.14693 -4.9932,0 0,-11.14692 -80.2661,0 0,29.89782"
         inkscape:connector-curvature="0" />
      <path
         id="path2020"
         style="fill:#ffffff;fill-opacity:1;fill-rule:nonzero;stroke:none"
         d="m 1141.25,181.65789 85.2627,0 0,-14.37488 -85.2627,0 0,14.37488 z"
         inkscape:connector-curvature="0" />
      <path
         id="path2022"
         style="fill:#282d33;fill-opacity:1;fill-rule:nonzero;stroke:none"
         d="m 1143.7551,179.15789 80.2661,0 0,-9.3746 -80.2661,0 0,9.3746 z m 85.2593,5.00001 -90.2695,0 0,-19.37463 90.2695,0 0,19.37463"
         inkscape:connector-curvature="0" />
      <path
         id="path2024"
         style="fill:#ffffff;fill-opacity:1;fill-rule:nonzero;stroke:none"
         d="m 1146.8738,174.36748 4.6694,0"
         inkscape:connector-curvature="0" />
      <path
         id="path2028"
         style="fill:#ffffff;fill-opacity:1;fill-rule:nonzero;stroke:none"
         d="m 1154.9685,174.36748 4.6694,0"
         inkscape:connector-curvature="0" />
      <path
         id="path2032"
         style="fill:#ffffff;fill-opacity:1;fill-rule:nonzero;stroke:none"
         d="m 1163.0463,174.36748 4.6864,0"
         inkscape:connector-curvature="0" />
      <path
         id="path2036"
         style="fill:#ff6952;fill-opacity:1;fill-rule:nonzero;stroke:none"
         d="m 1235.7458,239.40685 -19.0014,0 0,-27.14561 19.0014,0 0,27.14561 z m 9.799,1.22358 0,-29.59619 c 0,-4.73927 -3.8514,-8.58045 -8.589,-8.58045 l -21.4384,0 c -4.7376,0 -8.5719,3.84118 -8.5719,8.58045 l 0,10.42266 -86.7589,0 0,9.80746 4.6012,0 0,17.76589 9.7989,0 0,-6.73655 6.7485,0 0,6.73655 9.799,0 0,-17.76589 55.8113,0 0,9.36607 c 0,4.73758 3.8343,8.58046 8.5719,8.58046 l 21.4384,0 c 4.7376,0 8.589,-3.84288 8.589,-8.58046"
         inkscape:connector-curvature="0" />
      <path
         id="path2038"
         style="fill:#282d33;fill-opacity:1;fill-rule:nonzero;stroke:none"
         d="m 1219.2325,236.90684 14.0082,0 0,-22.14559 -14.0082,0 0,22.14559 z m 19.0014,5.00001 -23.9946,0 0,-32.14561 23.9946,0 0,32.14561 z m -89.5878,-13.1442 60.7875,0 0,11.86778 c 0,3.35209 2.7266,6.08046 6.0838,6.08046 l 21.4384,0 c 3.3572,0 6.0838,-2.72837 6.0838,-6.08046 l 0,-29.59619 c 0,-3.35379 -2.7266,-6.08045 -6.0838,-6.08045 l -21.4384,0 c -3.3572,0 -6.0838,2.72666 -6.0838,6.08045 l 0,12.92267 -86.7419,0 0,4.80574 4.6012,0 0,17.7676 4.7887,0 0,-6.73656 11.7587,0 0,6.73656 4.8058,0 0,-17.7676 z m 88.3097,22.94825 -21.4384,0 c -6.1179,0 -11.077,-4.97104 -11.077,-11.08047 l 0,-6.86777 -50.8011,0 0,17.7676 -14.7922,0 0,-6.73656 -1.7552,0 0,6.73656 -14.8092,0 0,-17.7676 -4.6013,0 0,-14.80747 86.759,0 0,-7.92095 c 0,-6.11112 4.9591,-11.08046 11.077,-11.08046 l 21.4384,0 c 6.1179,0 11.077,4.96934 11.077,11.08046 l 0,29.59619 c 0,6.10943 -4.9591,11.08047 -11.077,11.08047"
         inkscape:connector-curvature="0" />
      <path
         id="path2040"
         style="fill:#ff6952;fill-opacity:1;fill-rule:nonzero;stroke:none"
         d="m 1141.3352,249.03025 0,-19.71716"
         inkscape:connector-curvature="0" />
      <path
         id="path2042"
         style="fill:#282d33;fill-opacity:1;fill-rule:nonzero;stroke:none"
         d="m 1138.8471,249.03025 5.0001,0 0,-19.71699 -5.0001,0 0,19.71699 z"
         inkscape:connector-curvature="0" />
    </g>
    <g
       id="g5824"
       transform="translate(-660,24.285714)">
      <path
         id="path2034"
         style="fill:#ffffff;fill-opacity:1;fill-rule:nonzero;stroke:none"
         d="m 891.57648,351.25243 0,35.02054"
         inkscape:connector-curvature="0" />
      <path
         id="path2036-7"
         style="fill:#282d33;fill-opacity:1;fill-rule:nonzero;stroke:none"
         d="m 889.07648,386.27297 4.99998,0 0,-35.02054 -4.99998,0 0,35.02054 z"
         inkscape:connector-curvature="0" />
      <path
         id="path2038-7"
         style="fill:#ffffff;fill-opacity:1;fill-rule:nonzero;stroke:none"
         d="m 788.42523,386.27297 0,-65.40746 c 0,-1.94786 1.58828,-3.52592 3.52591,-3.52592 l 23.31124,0"
         inkscape:connector-curvature="0" />
      <path
         id="path2040-3"
         style="fill:#282d33;fill-opacity:1;fill-rule:nonzero;stroke:none"
         d="m 790.92523,386.27297 -5.00001,0 0,-65.40746 c 0,-3.32312 2.7011,-6.02592 6.02592,-6.02592 l 23.31124,0 0,5.00001 -23.31124,0 c -0.56237,0 -1.02591,0.45842 -1.02591,1.02591 l 0,65.40746"
         inkscape:connector-curvature="0" />
      <path
         id="path2042-6"
         style="fill:#ff6952;fill-opacity:1;fill-rule:nonzero;stroke:none"
         d="m 795.92525,378.6724 88.15053,0 0,-53.83296 -88.15053,0 0,53.83296 z"
         inkscape:connector-curvature="0" />
      <path
         id="path2044"
         style="fill:#ffffff;fill-opacity:1;fill-rule:nonzero;stroke:none"
         d="m 773.06391,385.94747 0,6.32585 c 0,0 4.62339,3.45775 8.0249,3.45775 l 117.82409,0 c 3.39981,0 8.0249,-3.45775 8.0249,-3.45775 l 0,-6.32585 -133.87389,0"
         inkscape:connector-curvature="0" />
      <path
         id="path2046"
         style="fill:#282d33;fill-opacity:1;fill-rule:nonzero;stroke:none"
         d="m 775.56221,390.96282 c 1.65133,1.0651 4.0133,2.26824 5.5266,2.26824 l 117.82409,0 c 1.55079,0 3.96218,-1.2696 5.5249,-2.27335 l 0,-2.51023 -128.87559,0 0,2.51534 z m 123.35069,7.26826 -117.82409,0 c -4.11385,0 -8.97583,-3.54977 -9.52457,-3.95366 l -1.00204,-0.75154 0,-10.07841 138.87561,0 0,10.08182 -1.00034,0.74813 c -0.53681,0.40389 -5.41072,3.95366 -9.52457,3.95366"
         inkscape:connector-curvature="0" />
      <path
         id="path2048"
         style="fill:#ffffff;fill-opacity:1;fill-rule:nonzero;stroke:none"
         d="m 902.90064,291.85044 -76.86284,0 c -2.23757,0 -4.03716,2.08759 -4.03716,4.66599 l 0,43.1085 c 0,2.57499 1.79959,4.66088 4.03716,4.66088 l 31.6497,0 1.72632,3.24473 5.06136,9.44106 5.05114,-9.44106 1.73655,-3.24473 31.63777,0 c 2.23757,0 4.03716,-2.08589 4.03716,-4.66088 l 0,-43.1085 c 0,-2.5784 -1.79959,-4.66599 -4.03716,-4.66599"
         inkscape:connector-curvature="0" />
      <path
         id="path2050"
         style="fill:#282d33;fill-opacity:1;fill-rule:nonzero;stroke:none"
         d="m 826.0378,294.35044 c -0.83675,0 -1.53716,0.99182 -1.53716,2.16599 l 0,43.1085 c 0,1.17076 0.70041,2.15917 1.53716,2.15917 l 33.13744,0 5.29994,9.88755 5.28802,-9.88755 33.13744,0 c 0.83845,0 1.53716,-0.98841 1.53716,-2.15917 l 0,-43.1085 c 0,-1.17417 -0.69871,-2.16599 -1.53716,-2.16599 l -76.86284,0 z m 38.43738,67.91599 -8.28734,-15.48232 -30.15004,0 c -3.59919,0 -6.53717,-3.20893 -6.53717,-7.15918 l 0,-43.1085 c 0,-3.95025 2.93798,-7.166 6.53717,-7.166 l 76.86284,0 c 3.61283,0 6.53717,3.21575 6.53717,7.166 l 0,43.1085 c 0,3.95025 -2.92434,7.15918 -6.53717,7.15918 l -30.13811,0 -8.28735,15.48232"
         inkscape:connector-curvature="0" />
      <path
         id="path2052"
         style="fill:#aeb5b6;fill-opacity:1;fill-rule:nonzero;stroke:none"
         d="m 846.01399,312.71279 c -2.66361,0 -4.82619,2.16258 -4.82619,4.82278 0,2.6585 2.16258,4.82108 4.82619,4.82108 2.6619,0 4.82448,-2.16258 4.82448,-4.82108 0,-2.6602 -2.16258,-4.82278 -4.82448,-4.82278"
         inkscape:connector-curvature="0" />
      <path
         id="path2054"
         style="fill:#aeb5b6;fill-opacity:1;fill-rule:nonzero;stroke:none"
         d="m 864.47518,312.71279 c -2.6619,0 -4.82448,2.16258 -4.82448,4.82278 0,2.6585 2.16258,4.82108 4.82448,4.82108 2.66361,0 4.82619,-2.16258 4.82619,-4.82108 0,-2.6602 -2.16258,-4.82278 -4.82619,-4.82278"
         inkscape:connector-curvature="0" />
      <path
         id="path2056"
         style="fill:#aeb5b6;fill-opacity:1;fill-rule:nonzero;stroke:none"
         d="m 882.92615,312.71279 c -2.6619,0 -4.82448,2.16258 -4.82448,4.82278 0,2.6585 2.16258,4.82108 4.82448,4.82108 2.66191,0 4.82449,-2.16258 4.82449,-4.82108 0,-2.6602 -2.16258,-4.82278 -4.82449,-4.82278"
         inkscape:connector-curvature="0" />
    </g>
    <g
       transform="matrix(0.17041625,0,0,-0.17041625,-2132.0972,1876.3053)"
       id="g5867">
      <g
         id="g6013"
         transform="translate(-29.340457,-1358.0194)">
        <path
           inkscape:connector-curvature="0"
           d="m 15545.044,8512.5646 -586.804,0 0,707.6101 418.424,0 0,-29.3401 -386.12,0 0,-648.9299 522.196,0 0,525.26 32.304,0 0,-554.6001"
           style="fill:#282d33;fill-opacity:1;fill-rule:nonzero;stroke:none"
           id="path900-4" />
        <path
           inkscape:connector-curvature="0"
           d="m 15415.364,9090.4947 131,0 -131,131 0,-131"
           style="fill:#ff6952;fill-opacity:1;fill-rule:nonzero;stroke:none"
           id="path902-1" />
        <g
           id="g5863"
           transform="translate(-46.94388,0)">
          <path
             id="path954-7"
             style="fill:#aeb5b6;fill-opacity:1;fill-rule:nonzero;stroke:none"
             d="m 15139.714,8978.6747 54.352,0 0,170.32 -54.352,0 0,-170.32 z"
             inkscape:connector-curvature="0" />
          <path
             id="path956-4"
             style="fill:#aeb5b6;fill-opacity:1;fill-rule:nonzero;stroke:none"
             d="m 15081.694,9036.6447 170.316,0 0,54.375 -170.316,0 0,-54.375 z"
             inkscape:connector-curvature="0" />
        </g>
      </g>
      <g
         transform="translate(2247.3517,-1556.1648)"
         id="g6020">
        <path
           inkscape:connector-curvature="0"
           id="path1042"
           style="fill:#ffffff;fill-opacity:1;fill-rule:nonzero;stroke:none"
           d="m 11073.6,9230.08 0,-434.26 c 0,-19.28 15.6,-34.89 34.9,-34.89 l 283.1,0 c 19.2,0 34.9,15.61 34.9,34.89 l 0,434.26" />
        <path
           inkscape:connector-curvature="0"
           id="path1044"
           style="fill:#282d33;fill-opacity:1;fill-rule:nonzero;stroke:none"
           d="m 11391.6,8746.25 -283.1,0 c -27.3,0 -49.6,22.25 -49.6,49.57 l 0,434.26 29.3,0 0,-434.26 c 0,-11.15 9.1,-20.23 20.3,-20.23 l 283.1,0 c 11.1,0 20.2,9.08 20.2,20.23 l 0,434.26 29.3,0 0,-434.26 c 0,-27.32 -22.2,-49.57 -49.5,-49.57" />
        <path
           inkscape:connector-curvature="0"
           id="path1046"
           style="fill:#ff6952;fill-opacity:1;fill-rule:nonzero;stroke:none"
           d="m 11089,8881.09 265.234,0 0,279.961 -265.234,0 0,-279.961 z" />
        <path
           inkscape:connector-curvature="0"
           id="path1048"
           style="fill:#ffffff;fill-opacity:1;fill-rule:nonzero;stroke:none"
           d="m 11242.3,8916.14 38.508,0 0,120.578 -38.508,0 0,-120.578 z" />
        <path
           inkscape:connector-curvature="0"
           id="path1050"
           style="fill:#ffffff;fill-opacity:1;fill-rule:nonzero;stroke:none"
           d="m 11201.2,8957.18 120.586,0 0,38.4961 -120.586,0 0,-38.4961 z" />
        <path
           inkscape:connector-curvature="0"
           id="path1054"
           style="fill:#282d33;fill-opacity:1;fill-rule:nonzero;stroke:none"
           d="m 11474.4,9211.59 -448.7,0 0,172.51 290.7,0 0,-29.34 -261.4,0 0,-113.83 390,0 0,113.83 -56.9,0 0,29.34 86.3,0 0,-172.51" />
        <path
           inkscape:connector-curvature="0"
           id="path1056"
           style="fill:#282d33;fill-opacity:1;fill-rule:nonzero;stroke:none"
           d="m 11089.6,9233.93 29.34,0 0,97.1523 -29.34,0 0,-97.1523 z" />
        <path
           inkscape:connector-curvature="0"
           id="path1058"
           style="fill:#282d33;fill-opacity:1;fill-rule:nonzero;stroke:none"
           d="m 11162.5,9233.93 29.34,0 0,97.1523 -29.34,0 0,-97.1523 z" />
        <path
           inkscape:connector-curvature="0"
           id="path1060"
           style="fill:#282d33;fill-opacity:1;fill-rule:nonzero;stroke:none"
           d="m 11235.4,9233.93 29.34,0 0,97.1523 -29.34,0 0,-97.1523 z" />
        <path
           inkscape:connector-curvature="0"
           id="path1062"
           style="fill:#282d33;fill-opacity:1;fill-rule:nonzero;stroke:none"
           d="m 11308.2,9233.93 29.34,0 0,97.1523 -29.34,0 0,-97.1523 z" />
        <path
           inkscape:connector-curvature="0"
           id="path1064"
           style="fill:#282d33;fill-opacity:1;fill-rule:nonzero;stroke:none"
           d="m 11381.1,9233.93 29.34,0 0,97.1523 -29.34,0 0,-97.1523 z" />
        <path
           inkscape:connector-curvature="0"
           id="path1070"
           style="fill:#ffffff;fill-opacity:1;fill-rule:nonzero;stroke:none"
           d="m 11599.6,8868.31 c 0,-59.31 -48.1,-107.38 -107.3,-107.38 -59.3,0 -107.4,48.07 -107.4,107.38 0,59.3 48.1,107.38 107.4,107.38 59.2,0 107.3,-48.08 107.3,-107.38" />
        <path
           inkscape:connector-curvature="0"
           id="path1072"
           style="fill:#282d33;fill-opacity:1;fill-rule:nonzero;stroke:none"
           d="m 11492.3,8961.02 c -51.2,0 -92.8,-41.59 -92.8,-92.71 0,-51.13 41.6,-92.72 92.8,-92.72 51.1,0 92.7,41.59 92.7,92.72 0,51.12 -41.6,92.71 -92.7,92.71 z m 0,-214.77 c -67.3,0 -122.1,54.76 -122.1,122.06 0,67.3 54.8,122.05 122.1,122.05 67.3,0 122,-54.75 122,-122.05 0,-67.3 -54.7,-122.06 -122,-122.06" />
        <path
           inkscape:connector-curvature="0"
           id="path1074"
           style="fill:#282d33;fill-opacity:1;fill-rule:nonzero;stroke:none"
           d="m 11477.6,8802.47 29.34,0 0,172.586 -29.34,0 0,-172.586 z" />
      </g>
    </g>
  </g>
</svg>
