<?xml version="1.0" encoding="utf-8"?>
<!-- Generator: Adobe Illustrator 19.0.0, SVG Export Plug-In . SVG Version: 6.00 Build 0)  -->
<svg version="1.1"
	 id="svg5838" inkscape:version="0.48.4 r9939" sodipodi:docname="medical_history.svg" xmlns:svg="http://www.w3.org/2000/svg" xmlns:cc="http://creativecommons.org/ns#" xmlns:dc="http://purl.org/dc/elements/1.1/" xmlns:rdf="http://www.w3.org/1999/02/22-rdf-syntax-ns#" xmlns:inkscape="http://www.inkscape.org/namespaces/inkscape" xmlns:sodipodi="http://sodipodi.sourceforge.net/DTD/sodipodi-0.dtd"
	 xmlns="http://www.w3.org/2000/svg" xmlns:xlink="http://www.w3.org/1999/xlink" x="0px" y="0px" viewBox="-178 180.3 141.7 141.7"
	 style="enable-background:new -178 180.3 141.7 141.7;" xml:space="preserve">
<style type="text/css">
	.st0{fill:none;}
	.st1{fill:#FFFFFF;}
	.st2{fill:#FF6952;}
</style>
<sodipodi:namedview  fit-margin-right="0" inkscape:window-height="705" inkscape:pageshadow="2" inkscape:window-width="1366" inkscape:window-x="-8" inkscape:window-maximized="1" inkscape:current-layer="layer1" inkscape:document-units="mm" inkscape:window-y="-8" fit-margin-bottom="0" inkscape:pageopacity="0.0" fit-margin-left="0" fit-margin-top="0" inkscape:cy="12.035998" inkscape:zoom="0.7" id="base" units="mm" showgrid="false" inkscape:cx="-111.42857" borderopacity="1.0" pagecolor="#ffffff" bordercolor="#666666">
	</sodipodi:namedview>
<g id="layer1" transform="translate(-120,-259.20135)" inkscape:groupmode="layer" inkscape:label="Layer 1">
	<g id="g7304" transform="translate(-491.54088,-221.45278)">
		<g id="g7358">
			<path id="path1286-5" inkscape:connector-curvature="0" class="st0" d="M554.6,744.3c0,27.7-22.5,50.2-50.2,50.2
				s-50.2-22.5-50.2-50.2s22.5-50.2,50.2-50.2S554.6,716.6,554.6,744.3"/>
			<path id="path1288-5" inkscape:connector-curvature="0" class="st1" d="M504.4,696.6c-26.3,0-47.7,21.4-47.7,47.7
				s21.4,47.7,47.7,47.7s47.7-21.4,47.7-47.7S530.7,696.6,504.4,696.6z M504.4,797.1c-29.1,0-52.7-23.7-52.7-52.7
				c0-29.1,23.7-52.7,52.7-52.7c29.1,0,52.7,23.7,52.7,52.7C557.1,773.4,533.5,797.1,504.4,797.1"/>
			<path id="path1290-7" inkscape:connector-curvature="0" class="st1" d="M514.5,681.5c0,1.2-1,2.2-2.2,2.2h-15.8
				c-1.2,0-2.2-1-2.2-2.2v-10.3c0-1.2,1-2.2,2.2-2.2h15.8c1.2,0,2.2,1,2.2,2.2V681.5"/>
			<path id="path1292-8" inkscape:connector-curvature="0" class="st1" d="M496.8,681.2H512v-9.7h-15.2V681.2L496.8,681.2z
				 M512.3,686.2h-15.8c-1.2,0-2.4-0.5-3.3-1.4s-1.4-2.1-1.4-3.3v-10.3c0-2.6,2.1-4.7,4.7-4.7h15.8c1.3,0,2.4,0.5,3.3,1.4
				c0.9,0.9,1.4,2.1,1.4,3.3v10.3C517,684.1,514.9,686.2,512.3,686.2"/>
			<path id="path1294-2" inkscape:connector-curvature="0" class="st1" d="M468.8,700.2l-3.6-5.3c-0.4-0.6-0.3-1.5,0.4-1.9l8.2-5.5
				c0.6-0.4,1.5-0.3,1.9,0.4l3.6,5.3"/>
			<path id="path1296-9" inkscape:connector-curvature="0" class="st1" d="M466.8,701.6l-3.6-5.3c-0.6-0.8-0.8-1.9-0.6-2.9
				c0.2-1,0.8-1.9,1.6-2.5l8.2-5.5c1.8-1.2,4.2-0.7,5.4,1l3.6,5.3l-4.1,2.8l-3-4.4l-6.3,4.3l3,4.4L466.8,701.6"/>
			<path id="path1298-2" inkscape:connector-curvature="0" class="st1" d="M540,700.2l3.6-5.3c0.4-0.6,0.3-1.5-0.4-1.9l-8.2-5.5
				c-0.6-0.4-1.5-0.3-1.9,0.4l-3.6,5.3"/>
			<path id="path1300-6" inkscape:connector-curvature="0" class="st1" d="M542,701.6l-4.1-2.8l3-4.4l-6.3-4.3l-3,4.4l-4.1-2.8
				l3.6-5.3c1.2-1.8,3.6-2.2,5.4-1l8.2,5.5c0.9,0.6,1.4,1.5,1.6,2.5c0.2,1,0,2-0.6,2.9L542,701.6"/>
			<path id="path1306" inkscape:connector-curvature="0" class="st1" d="M504,702.9v7"/>
			<path id="path1308" inkscape:connector-curvature="0" class="st1" d="M501.5,709.9h5v-7h-5V709.9z"/>
			<path id="path1310-7" inkscape:connector-curvature="0" class="st1" d="M483.3,708.6l3.5,6"/>
			<path id="path1312" inkscape:connector-curvature="0" class="st1" d="M484.7,715.9l-3.5-6l4.3-2.5l3.5,6L484.7,715.9"/>
			<path id="path1314-4" inkscape:connector-curvature="0" class="st1" d="M468.3,724l6,3.5"/>
			<path id="path1316" inkscape:connector-curvature="0" class="st1" d="M473.1,729.6l-6-3.5l2.5-4.3l6,3.5L473.1,729.6"/>
			<path id="path1318-4" inkscape:connector-curvature="0" class="st1" d="M463,744.7h7"/>
			<path id="path1320" inkscape:connector-curvature="0" class="st1" d="M463,747.2h7v-5h-7V747.2z"/>
			<path id="path1322" inkscape:connector-curvature="0" class="st1" d="M468.7,765.4l6-3.5"/>
			<path id="path1324" inkscape:connector-curvature="0" class="st1" d="M470,767.6l-2.5-4.3l6-3.5l2.5,4.3L470,767.6"/>
			<path id="path1326" inkscape:connector-curvature="0" class="st1" d="M484,780.4l3.5-6"/>
			<path id="path1328" inkscape:connector-curvature="0" class="st1" d="M486.2,781.7l-4.3-2.5l3.5-6l4.3,2.5L486.2,781.7"/>
			<path id="path1330" inkscape:connector-curvature="0" class="st1" d="M504.8,785.8v-7"/>
			<path id="path1332" inkscape:connector-curvature="0" class="st1" d="M507.3,785.8h-5v-7h5V785.8"/>
			<path id="path1334" inkscape:connector-curvature="0" class="st1" d="M525.5,780l-3.5-6"/>
			<path id="path1336" inkscape:connector-curvature="0" class="st1" d="M523.3,781.3l-3.5-6l4.3-2.5l3.5,6L523.3,781.3"/>
			<path id="path1338" inkscape:connector-curvature="0" class="st1" d="M540.5,764.7l-6-3.5"/>
			<path id="path1340" inkscape:connector-curvature="0" class="st1" d="M539.2,766.9l-6-3.5l2.5-4.3l6,3.5L539.2,766.9"/>
			<path id="path1342" inkscape:connector-curvature="0" class="st1" d="M545.8,743.9h-7"/>
			<path id="path1344" inkscape:connector-curvature="0" class="st1" d="M545.8,746.4h-7v-5h7V746.4"/>
			<path id="path1346" inkscape:connector-curvature="0" class="st1" d="M540.1,723.3l-6,3.5"/>
			<path id="path1348" inkscape:connector-curvature="0" class="st1" d="M535.3,728.9l-2.5-4.3l6-3.5l2.5,4.3L535.3,728.9"/>
			<path id="path1350" inkscape:connector-curvature="0" class="st1" d="M524.8,708.3l-3.5,6"/>
			<path id="path1352" inkscape:connector-curvature="0" class="st1" d="M523.5,715.5l-4.3-2.5l3.5-6l4.3,2.5L523.5,715.5"/>
			<path id="path1354-7" inkscape:connector-curvature="0" class="st1" d="M501.9,692.2h5v-8.8h-5V692.2z"/>
		</g>
	</g>
</g>
<circle class="st2" cx="-108" cy="262" r="6.3"/>
</svg>
