<?xml version="1.0" encoding="utf-8"?>
<!-- Generator: Adobe Illustrator 19.0.0, SVG Export Plug-In . SVG Version: 6.00 Build 0)  -->
<svg version="1.1"
	 id="svg5838" xmlns:dc="http://purl.org/dc/elements/1.1/" xmlns:cc="http://creativecommons.org/ns#" xmlns:rdf="http://www.w3.org/1999/02/22-rdf-syntax-ns#" xmlns:svg="http://www.w3.org/2000/svg" xmlns:sodipodi="http://sodipodi.sourceforge.net/DTD/sodipodi-0.dtd" xmlns:inkscape="http://www.inkscape.org/namespaces/inkscape" sodipodi:docname="medical_history.svg" inkscape:version="0.48.4 r9939"
	 xmlns="http://www.w3.org/2000/svg" xmlns:xlink="http://www.w3.org/1999/xlink" x="0px" y="0px" viewBox="-226 350.2 141.7 141.7"
	 style="enable-background:new -226 350.2 141.7 141.7;" xml:space="preserve">
<style type="text/css">
	.st0{fill:none;}
	.st1{fill:#FFFFFF;}
</style>
<sodipodi:namedview  fit-margin-left="0" fit-margin-top="0" units="mm" showgrid="false" inkscape:cy="12.035998" inkscape:cx="-111.42857" inkscape:zoom="0.7" borderopacity="1.0" bordercolor="#666666" pagecolor="#ffffff" id="base" inkscape:window-maximized="1" inkscape:window-y="-8" inkscape:window-x="-8" inkscape:window-height="705" inkscape:window-width="1366" fit-margin-bottom="0" inkscape:current-layer="layer1" fit-margin-right="0" inkscape:pageopacity="0.0" inkscape:document-units="mm" inkscape:pageshadow="2">
	</sodipodi:namedview>
<g id="layer1" transform="translate(-120,-259.20135)" inkscape:label="Layer 1" inkscape:groupmode="layer">
	<g id="g7304" transform="translate(-491.54088,-221.45278)">
		<g id="g7358">
			<path id="path1286-5" inkscape:connector-curvature="0" class="st0" d="M502.6,914.2c0,27.7-22.5,50.2-50.2,50.2
				s-50.2-22.5-50.2-50.2s22.5-50.2,50.2-50.2S502.6,886.5,502.6,914.2"/>
			<path id="path1288-5" inkscape:connector-curvature="0" class="st1" d="M452.4,866.5c-26.3,0-47.7,21.4-47.7,47.7
				s21.4,47.7,47.7,47.7s47.7-21.4,47.7-47.7S478.7,866.5,452.4,866.5z M452.4,967c-29.1,0-52.7-23.7-52.7-52.7
				c0-29.1,23.7-52.7,52.7-52.7c29.1,0,52.7,23.7,52.7,52.7C505.1,943.3,481.5,967,452.4,967"/>
			<path id="path1290-7" inkscape:connector-curvature="0" class="st1" d="M462.5,851.4c0,1.2-1,2.2-2.2,2.2h-15.8
				c-1.2,0-2.2-1-2.2-2.2v-10.3c0-1.2,1-2.2,2.2-2.2h15.8c1.2,0,2.2,1,2.2,2.2V851.4"/>
			<path id="path1292-8" inkscape:connector-curvature="0" class="st1" d="M444.8,851.1H460v-9.7h-15.2V851.1L444.8,851.1z
				 M460.3,856.1h-15.8c-1.2,0-2.4-0.5-3.3-1.4s-1.4-2.1-1.4-3.3v-10.3c0-2.6,2.1-4.7,4.7-4.7h15.8c1.3,0,2.4,0.5,3.3,1.4
				c0.9,0.9,1.4,2.1,1.4,3.3v10.3C465,854,462.9,856.1,460.3,856.1"/>
			<path id="path1294-2" inkscape:connector-curvature="0" class="st1" d="M416.8,870.1l-3.6-5.3c-0.4-0.6-0.3-1.5,0.4-1.9l8.2-5.5
				c0.6-0.4,1.5-0.3,1.9,0.4l3.6,5.3"/>
			<path id="path1296-9" inkscape:connector-curvature="0" class="st1" d="M414.8,871.5l-3.6-5.3c-0.6-0.8-0.8-1.9-0.6-2.9
				c0.2-1,0.8-1.9,1.6-2.5l8.2-5.5c1.8-1.2,4.2-0.7,5.4,1l3.6,5.3l-4.1,2.8l-3-4.4l-6.3,4.3l3,4.4L414.8,871.5"/>
			<path id="path1298-2" inkscape:connector-curvature="0" class="st1" d="M488,870.1l3.6-5.3c0.4-0.6,0.3-1.5-0.4-1.9l-8.2-5.5
				c-0.6-0.4-1.5-0.3-1.9,0.4l-3.6,5.3"/>
			<path id="path1300-6" inkscape:connector-curvature="0" class="st1" d="M490,871.5l-4.1-2.8l3-4.4l-6.3-4.3l-3,4.4l-4.1-2.8
				l3.6-5.3c1.2-1.8,3.6-2.2,5.4-1l8.2,5.5c0.9,0.6,1.4,1.5,1.6,2.5c0.2,1,0,2-0.6,2.9L490,871.5"/>
			<path id="path1306" inkscape:connector-curvature="0" class="st1" d="M452,872.8v7"/>
			<path id="path1308" inkscape:connector-curvature="0" class="st1" d="M449.5,879.8h5v-7h-5V879.8z"/>
			<path id="path1310-7" inkscape:connector-curvature="0" class="st1" d="M431.3,878.5l3.5,6"/>
			<path id="path1312" inkscape:connector-curvature="0" class="st1" d="M432.7,885.8l-3.5-6l4.3-2.5l3.5,6L432.7,885.8"/>
			<path id="path1314-4" inkscape:connector-curvature="0" class="st1" d="M416.3,893.9l6,3.5"/>
			<path id="path1316" inkscape:connector-curvature="0" class="st1" d="M421.1,899.5l-6-3.5l2.5-4.3l6,3.5L421.1,899.5"/>
			<path id="path1318-4" inkscape:connector-curvature="0" class="st1" d="M411,914.6h7"/>
			<path id="path1320" inkscape:connector-curvature="0" class="st1" d="M411,917.1h7v-5h-7V917.1z"/>
			<path id="path1322" inkscape:connector-curvature="0" class="st1" d="M416.7,935.3l6-3.5"/>
			<path id="path1324" inkscape:connector-curvature="0" class="st1" d="M418,937.5l-2.5-4.3l6-3.5l2.5,4.3L418,937.5"/>
			<path id="path1326" inkscape:connector-curvature="0" class="st1" d="M432,950.3l3.5-6"/>
			<path id="path1328" inkscape:connector-curvature="0" class="st1" d="M434.2,951.6l-4.3-2.5l3.5-6l4.3,2.5L434.2,951.6"/>
			<path id="path1330" inkscape:connector-curvature="0" class="st1" d="M452.8,955.7v-7"/>
			<path id="path1332" inkscape:connector-curvature="0" class="st1" d="M455.3,955.7h-5v-7h5V955.7"/>
			<path id="path1334" inkscape:connector-curvature="0" class="st1" d="M473.5,949.9l-3.5-6"/>
			<path id="path1336" inkscape:connector-curvature="0" class="st1" d="M471.3,951.2l-3.5-6l4.3-2.5l3.5,6L471.3,951.2"/>
			<path id="path1338" inkscape:connector-curvature="0" class="st1" d="M488.5,934.6l-6-3.5"/>
			<path id="path1340" inkscape:connector-curvature="0" class="st1" d="M487.2,936.8l-6-3.5l2.5-4.3l6,3.5L487.2,936.8"/>
			<path id="path1342" inkscape:connector-curvature="0" class="st1" d="M493.8,913.8h-7"/>
			<path id="path1344" inkscape:connector-curvature="0" class="st1" d="M493.8,916.3h-7v-5h7V916.3"/>
			<path id="path1346" inkscape:connector-curvature="0" class="st1" d="M488.1,893.2l-6,3.5"/>
			<path id="path1348" inkscape:connector-curvature="0" class="st1" d="M483.3,898.8l-2.5-4.3l6-3.5l2.5,4.3L483.3,898.8"/>
			<path id="path1350" inkscape:connector-curvature="0" class="st1" d="M472.8,878.2l-3.5,6"/>
			<path id="path1352" inkscape:connector-curvature="0" class="st1" d="M471.5,885.4l-4.3-2.5l3.5-6l4.3,2.5L471.5,885.4"/>
			<path id="path1354-7" inkscape:connector-curvature="0" class="st1" d="M449.9,862.1h5v-8.8h-5V862.1z"/>
		</g>
	</g>
</g>
</svg>
