<?xml version="1.0" encoding="utf-8"?>
<!-- Generator: Adobe Illustrator 19.0.0, SVG Export Plug-In . SVG Version: 6.00 Build 0)  -->
<svg version="1.1"
	 id="svg5838" inkscape:version="0.48.4 r9939" sodipodi:docname="obstetrics_history.svg" xmlns:svg="http://www.w3.org/2000/svg" xmlns:cc="http://creativecommons.org/ns#" xmlns:dc="http://purl.org/dc/elements/1.1/" xmlns:rdf="http://www.w3.org/1999/02/22-rdf-syntax-ns#" xmlns:inkscape="http://www.inkscape.org/namespaces/inkscape" xmlns:sodipodi="http://sodipodi.sourceforge.net/DTD/sodipodi-0.dtd"
	 xmlns="http://www.w3.org/2000/svg" xmlns:xlink="http://www.w3.org/1999/xlink" x="0px" y="0px" viewBox="-178 180.3 141.7 141.7"
	 style="enable-background:new -178 180.3 141.7 141.7;" xml:space="preserve">
<style type="text/css">
	.st0{fill:#FFFFFF;}
	.st1{fill:#FF6952;}
</style>
<sodipodi:namedview  fit-margin-right="0" inkscape:window-height="705" inkscape:pageshadow="2" inkscape:window-width="1366" inkscape:window-x="-8" inkscape:window-maximized="1" inkscape:current-layer="layer1" inkscape:document-units="mm" inkscape:window-y="-8" fit-margin-bottom="0" inkscape:pageopacity="0.0" fit-margin-left="0" fit-margin-top="0" inkscape:cy="12.035998" inkscape:zoom="0.7" id="base" units="mm" showgrid="false" inkscape:cx="-111.42857" borderopacity="1.0" pagecolor="#ffffff" bordercolor="#666666">
	</sodipodi:namedview>
<g id="layer1" transform="translate(-120,-259.20135)" inkscape:groupmode="layer" inkscape:label="Layer 1">
	<g id="g8399" transform="translate(-558.66705,-673.80735)">
		<path id="path714" inkscape:connector-curvature="0" class="st0" d="M612.9,1244.2h-5v-41.3c0-0.7,0.3-1.3,0.7-1.8
			c8-8,12.4-18.6,12.4-29.9c0-23.3-19-42.3-42.3-42.3c-23.3,0-42.3,19-42.3,42.3c0,0.6,0,1.3,0.1,1.9c0,0.5-0.1,0.9-0.3,1.4
			l-12.3,21.3h6.1c1.4,0,2.5,1.1,2.5,2.5v17.7c0,5.3,4.3,9.6,9.6,9.6h19.1c1.4,0,2.5,1.1,2.5,2.5v16.1h-5v-13.6H542
			c-8,0-14.6-6.5-14.6-14.6v-15.2h-7.9c-0.9,0-1.7-0.5-2.2-1.3c-0.4-0.8-0.4-1.7,0-2.5l14.1-24.4c0-0.5,0-0.9,0-1.4
			c0-26.1,21.2-47.3,47.3-47.3s47.3,21.2,47.3,47.3c0,12.3-4.6,23.8-13.1,32.6L612.9,1244.2"/>
		<path id="path724" inkscape:connector-curvature="0" class="st1" d="M601.3,1171.3c0,12.8-10.3,23.1-23.1,23.1
			c-12.8,0-23.1-10.4-23.1-23.1c0-12.8,10.4-23.1,23.1-23.1C591,1148.2,601.3,1158.5,601.3,1171.3"/>
		<path id="path726" inkscape:connector-curvature="0" class="st0" d="M565.5,1175.1h25.4v-7.5h-25.4V1175.1z"/>
		<path id="path728" inkscape:connector-curvature="0" class="st0" d="M574.4,1184h7.5v-25.4h-7.5V1184z"/>
	</g>
</g>
</svg>
