<?xml version="1.0" encoding="utf-8"?>
<!-- Generator: Adobe Illustrator 19.0.0, SVG Export Plug-In . SVG Version: 6.00 Build 0)  -->
<svg version="1.1"
	 id="svg5838" xmlns:dc="http://purl.org/dc/elements/1.1/" xmlns:cc="http://creativecommons.org/ns#" xmlns:rdf="http://www.w3.org/1999/02/22-rdf-syntax-ns#" xmlns:svg="http://www.w3.org/2000/svg" xmlns:sodipodi="http://sodipodi.sourceforge.net/DTD/sodipodi-0.dtd" xmlns:inkscape="http://www.inkscape.org/namespaces/inkscape" sodipodi:docname="management.svg" inkscape:version="0.48.4 r9939"
	 xmlns="http://www.w3.org/2000/svg" xmlns:xlink="http://www.w3.org/1999/xlink" x="0px" y="0px" viewBox="-226 350.2 141.7 141.7"
	 style="enable-background:new -226 350.2 141.7 141.7;" xml:space="preserve">
<style type="text/css">
	.st0{fill:#FFFFFF;}
	.st1{fill:#6D6D6D;}
</style>
<sodipodi:namedview  fit-margin-left="0" fit-margin-top="0" units="mm" showgrid="false" inkscape:cy="12.035998" inkscape:cx="-111.42857" inkscape:zoom="0.7" borderopacity="1.0" bordercolor="#666666" pagecolor="#ffffff" id="base" inkscape:window-maximized="1" inkscape:window-y="-8" inkscape:window-x="-8" inkscape:window-height="705" inkscape:window-width="1366" fit-margin-bottom="0" inkscape:current-layer="layer1" fit-margin-right="0" inkscape:pageopacity="0.0" inkscape:document-units="mm" inkscape:pageshadow="2">
	</sodipodi:namedview>
<g id="layer1" transform="translate(-120,-259.20135)" inkscape:label="Layer 1" inkscape:groupmode="layer">
	<g id="g8864" transform="translate(-853.56743,-591.65972)">
		<g id="g8813" transform="matrix(1.331,0,0,1.331,-242.91242,-400.78797)">
			<path id="path732" inkscape:connector-curvature="0" class="st0" d="M780.8,1218.3v41.7"/>
			<path id="path740" inkscape:connector-curvature="0" class="st0" d="M780.8,1231.5v15.4"/>
			<path id="path812-4" inkscape:connector-curvature="0" class="st0" d="M808.9,1239.2c0,15.5-12.6,28.1-28.1,28.1
				c-15.5,0-28.1-12.6-28.1-28.1c0-15.5,12.6-28.1,28.1-28.1C796.3,1211,808.9,1223.6,808.9,1239.2"/>
			<path id="path730-6" inkscape:connector-curvature="0" class="st1" d="M783.5,1209.8h-5.4v58.7h5.4V1209.8"/>
		</g>
		<g id="g8807" transform="matrix(0,1,-1,0,1968.2395,44.725185)">
			<path id="path732-4" inkscape:connector-curvature="0" class="st0" d="M1246.7,1103.6l29.5,29.5"/>
			<path id="path740-7" inkscape:connector-curvature="0" class="st0" d="M1256,1112.9l10.9,10.9"/>
			<path id="path812-4-8" inkscape:connector-curvature="0" class="st0" d="M1281.3,1098.4c11,11,11,28.8,0,39.8
				c-11,11-28.8,11-39.8,0c-11-11-11-28.8,0-39.8C1252.5,1087.5,1270.3,1087.5,1281.3,1098.4"/>
			<path id="path730-6-6" inkscape:connector-curvature="0" class="st1" d="M1242.6,1095.7l-3.8,3.8l41.5,41.5l3.8-3.8
				L1242.6,1095.7"/>
		</g>
	</g>
</g>
</svg>
