<?xml version="1.0" encoding="UTF-8" standalone="no"?>
<!-- Created with Inkscape (http://www.inkscape.org/) -->

<svg
   xmlns:dc="http://purl.org/dc/elements/1.1/"
   xmlns:cc="http://creativecommons.org/ns#"
   xmlns:rdf="http://www.w3.org/1999/02/22-rdf-syntax-ns#"
   xmlns:svg="http://www.w3.org/2000/svg"
   xmlns="http://www.w3.org/2000/svg"
   xmlns:sodipodi="http://sodipodi.sourceforge.net/DTD/sodipodi-0.dtd"
   xmlns:inkscape="http://www.inkscape.org/namespaces/inkscape"
   width="141.73228"
   height="141.73228"
   id="svg5838"
   version="1.1"
   inkscape:version="0.48.4 r9939"
   sodipodi:docname="management.svg">
  <defs
     id="defs3" />
  <sodipodi:namedview
     inkscape:document-units="mm"
     id="base"
     pagecolor="#ffffff"
     bordercolor="#666666"
     borderopacity="1.0"
     inkscape:pageopacity="0.0"
     inkscape:pageshadow="2"
     inkscape:zoom="0.7"
     inkscape:cx="-111.42857"
     inkscape:cy="12.035998"
     inkscape:current-layer="layer1"
     showgrid="false"
     units="mm"
     fit-margin-top="0"
     fit-margin-left="0"
     fit-margin-right="0"
     fit-margin-bottom="0"
     inkscape:window-width="1366"
     inkscape:window-height="705"
     inkscape:window-x="-8"
     inkscape:window-y="-8"
     inkscape:window-maximized="1" />
  <metadata
     id="metadata4">
    <rdf:RDF>
      <cc:Work
         rdf:about="">
        <dc:format>image/svg+xml</dc:format>
        <dc:type
           rdf:resource="http://purl.org/dc/dcmitype/StillImage" />
        <dc:title></dc:title>
      </cc:Work>
    </rdf:RDF>
  </metadata>
  <g
     inkscape:label="Layer 1"
     inkscape:groupmode="layer"
     id="layer1"
     transform="translate(-120,-259.20135)">
    <g
       id="g8864"
       transform="translate(-853.56743,-591.65972)">
      <g
         transform="matrix(1.331,0,0,1.331,-242.91242,-400.78797)"
         id="g8813">
        <path
           inkscape:connector-curvature="0"
           d="m 950.5536,955.26398 0,41.6633"
           style="fill:#ffffff;fill-opacity:1;fill-rule:nonzero;stroke:none"
           id="path732" />
        <path
           inkscape:connector-curvature="0"
           d="m 950.5536,968.38858 0,15.4141"
           style="fill:#ffffff;fill-opacity:1;fill-rule:nonzero;stroke:none"
           id="path740" />
        <path
           inkscape:connector-curvature="0"
           d="m 978.6808,976.09565 c 0,15.5368 -12.5938,28.12545 -28.1187,28.12545 -15.542,0 -28.1357,-12.59035 -28.1357,-28.12545 0,-15.53 12.5937,-28.1255 28.1357,-28.1255 15.5249,0 28.1187,12.5955 28.1187,28.1255"
           style="fill:#ff6952;fill-opacity:1;fill-rule:nonzero;stroke:none"
           id="path812-4" />
        <path
           inkscape:connector-curvature="0"
           d="m 953.2598,946.76236 -5.4124,0 0,58.66654 5.4124,0 0,-58.66654"
           style="fill:#ffffff;fill-opacity:1;fill-rule:nonzero;stroke:none"
           id="path730-6" />
      </g>
      <g
         transform="matrix(0,1,-1,0,1968.2395,44.725185)"
         id="g8807">
        <path
           inkscape:connector-curvature="0"
           d="m 896.51848,877.60549 29.4604,29.4604"
           style="fill:#ffffff;fill-opacity:1;fill-rule:nonzero;stroke:none"
           id="path732-4" />
        <path
           inkscape:connector-curvature="0"
           d="m 905.79897,886.88598 10.89942,10.89942"
           style="fill:#ffffff;fill-opacity:1;fill-rule:nonzero;stroke:none"
           id="path740-7" />
        <path
           inkscape:connector-curvature="0"
           d="m 931.13763,872.44677 c 10.98617,10.98618 10.98253,28.79286 0.005,39.77062 -10.98985,10.98985 -28.79767,10.99222 -39.78264,0.007 -10.98137,-10.98137 -10.98264,-28.79282 0.007,-39.78268 10.97776,-10.97776 28.78929,-10.97656 39.77066,0.005"
           style="fill:#ff6952;fill-opacity:1;fill-rule:nonzero;stroke:none"
           id="path812-4-8" />
        <path
           inkscape:connector-curvature="0"
           d="m 892.4205,869.68036 -3.82715,3.82715 41.48351,41.48351 3.82715,-3.82715 -41.48351,-41.48351"
           style="fill:#ffffff;fill-opacity:1;fill-rule:nonzero;stroke:none"
           id="path730-6-6" />
      </g>
    </g>
  </g>
</svg>
