<?xml version="1.0" encoding="utf-8"?>
<!-- Generator: Adobe Illustrator 19.0.0, SVG Export Plug-In . SVG Version: 6.00 Build 0)  -->
<svg version="1.1"
	 id="svg5838" xmlns:dc="http://purl.org/dc/elements/1.1/" xmlns:cc="http://creativecommons.org/ns#" xmlns:rdf="http://www.w3.org/1999/02/22-rdf-syntax-ns#" xmlns:svg="http://www.w3.org/2000/svg" xmlns:sodipodi="http://sodipodi.sourceforge.net/DTD/sodipodi-0.dtd" xmlns:inkscape="http://www.inkscape.org/namespaces/inkscape" sodipodi:docname="print_prescription.svg" inkscape:version="0.48.4 r9939"
	 xmlns="http://www.w3.org/2000/svg" xmlns:xlink="http://www.w3.org/1999/xlink" x="0px" y="0px" viewBox="-234 326.3 141.7 141.7"
	 style="enable-background:new -234 326.3 141.7 141.7;" xml:space="preserve">
<style type="text/css">
	.st0{fill:#FFFFFF;}
</style>
<sodipodi:namedview  fit-margin-left="0" fit-margin-top="0" units="mm" showgrid="false" inkscape:cy="12.035998" inkscape:cx="-111.42857" inkscape:zoom="0.7" borderopacity="1.0" bordercolor="#666666" pagecolor="#ffffff" id="base" inkscape:window-maximized="1" inkscape:window-y="-8" inkscape:window-x="-8" inkscape:window-height="705" inkscape:window-width="1366" fit-margin-bottom="0" inkscape:current-layer="layer1" fit-margin-right="0" inkscape:document-units="mm" inkscape:pageshadow="2" inkscape:pageopacity="0.0">
	</sodipodi:namedview>
<g id="layer1" transform="translate(-120,-259.20135)" inkscape:label="Layer 1" inkscape:groupmode="layer">
	<g>
		<path class="st0" d="M18,681.5v-46.2c0-5.8-4.7-10.5-10.5-10.5H-5.2v-24.1c0-3.7-3-6.8-6.8-6.8h-61.1c-3.7,0-6.8,3-6.8,6.8v24.1
			h-12.7c-5.8,0-10.5,4.7-10.5,10.5v46.2c0,5.8,4.7,10.5,10.5,10.5h12.7v20.3c0,3.7,3,6.8,6.8,6.8H-12c3.7,0,6.8-3,6.8-6.8V692H7.5
			C13.3,692,18,687.3,18,681.5L18,681.5z M-74.8,600.6c0-0.9,0.8-1.7,1.7-1.7H-12c0.9,0,1.7,0.8,1.7,1.7v24.1h-64.5V600.6z
			 M-10.2,712.3c0,0.9-0.8,1.7-1.7,1.7h-61.1c-0.9,0-1.7-0.8-1.7-1.7v-51.4h64.5L-10.2,712.3L-10.2,712.3z M12.9,681.5
			c0,3-2.5,5.5-5.5,5.5H-5.2v-28.5c0-1.4-1.1-2.5-2.5-2.5h-69.6c-1.4,0-2.5,1.1-2.5,2.5V687h-12.7c-3,0-5.5-2.5-5.5-5.5v-46.2
			c0-3,2.5-5.5,5.5-5.5h100c3,0,5.5,2.5,5.5,5.5V681.5z M12.9,681.5"/>
		<path class="st0" d="M-85.1,640.3c-0.7,0-1.3,0.3-1.8,0.7c-0.5,0.5-0.7,1.1-0.7,1.8c0,0.7,0.3,1.3,0.7,1.8
			c0.5,0.5,1.1,0.7,1.8,0.7c0.7,0,1.3-0.3,1.8-0.7c0.5-0.5,0.7-1.1,0.7-1.8c0-0.7-0.3-1.3-0.7-1.8
			C-83.7,640.6-84.4,640.3-85.1,640.3L-85.1,640.3z M-85.1,640.3"/>
		<path class="st0" d="M-60.4,690h35.8c1.4,0,2.5-1.1,2.5-2.5c0-1.4-1.1-2.5-2.5-2.5h-35.8c-1.4,0-2.5,1.1-2.5,2.5
			C-62.9,688.9-61.8,690-60.4,690L-60.4,690z M-60.4,690"/>
		<path class="st0" d="M-60.4,704.3h35.8c1.4,0,2.5-1.1,2.5-2.5c0-1.4-1.1-2.5-2.5-2.5h-35.8c-1.4,0-2.5,1.1-2.5,2.5
			C-62.9,703.2-61.8,704.3-60.4,704.3L-60.4,704.3z M-60.4,704.3"/>
		<path class="st0" d="M-60.4,675.7h35.8c1.4,0,2.5-1.1,2.5-2.5c0-1.4-1.1-2.5-2.5-2.5h-35.8c-1.4,0-2.5,1.1-2.5,2.5
			C-62.9,674.5-61.8,675.7-60.4,675.7L-60.4,675.7z M-60.4,675.7"/>
	</g>
</g>
</svg>
