<?xml version="1.0" encoding="utf-8"?>
<!-- Generator: Adobe Illustrator 19.0.0, SVG Export Plug-In . SVG Version: 6.00 Build 0)  -->
<svg version="1.1"
	 id="svg5838" sodipodi:docname="change_password.svg" inkscape:version="0.48.4 r9939" xmlns:dc="http://purl.org/dc/elements/1.1/" xmlns:cc="http://creativecommons.org/ns#" xmlns:rdf="http://www.w3.org/1999/02/22-rdf-syntax-ns#" xmlns:svg="http://www.w3.org/2000/svg" xmlns:sodipodi="http://sodipodi.sourceforge.net/DTD/sodipodi-0.dtd" xmlns:inkscape="http://www.inkscape.org/namespaces/inkscape"
	 xmlns="http://www.w3.org/2000/svg" xmlns:xlink="http://www.w3.org/1999/xlink" x="0px" y="0px" viewBox="-234 326.3 141.7 141.7"
	 style="enable-background:new -234 326.3 141.7 141.7;" xml:space="preserve">
<style type="text/css">
	.st0{fill:#FEFEFE;}
</style>
<sodipodi:namedview  inkscape:window-maximized="1" inkscape:window-y="-8" inkscape:window-x="-8" inkscape:window-height="705" inkscape:window-width="1366" fit-margin-bottom="0" inkscape:current-layer="layer1" fit-margin-right="0" inkscape:document-units="mm" inkscape:pageshadow="2" inkscape:pageopacity="0.0" fit-margin-left="0" fit-margin-top="0" units="mm" showgrid="false" inkscape:cy="12.035998" inkscape:cx="59.285714" inkscape:zoom="0.7" borderopacity="1.0" bordercolor="#666666" pagecolor="#ffffff" id="base">
	</sodipodi:namedview>
<path class="st0" d="M-110.9,447.4l-25.9-25.9c6.9-8,11.2-18.4,11.2-29.8c0-25-20.3-45.4-45.4-45.4s-45.4,20.3-45.4,45.4
	s20.3,45.4,45.4,45.4c11.3,0,21.8-4.2,29.8-11.2l25.9,25.9c0.6,0.6,1.5,0.9,2.3,0.9s1.6-0.3,2.3-0.9
	C-109.7,450.6-109.7,448.6-110.9,447.4L-110.9,447.4z M-210,391.8c0-21.5,17.5-39,39-39s39,17.5,39,39c0,21.5-17.5,39-39,39
	S-210,413.3-210,391.8L-210,391.8z"/>
</svg>
