<?xml version="1.0" encoding="utf-8"?>
<!-- Generator: Adobe Illustrator 19.0.0, SVG Export Plug-In . SVG Version: 6.00 Build 0)  -->
<svg version="1.1"
	 id="svg5838" inkscape:version="0.48.4 r9939" sodipodi:docname="obstetrics_history.svg" xmlns:dc="http://purl.org/dc/elements/1.1/" xmlns:cc="http://creativecommons.org/ns#" xmlns:rdf="http://www.w3.org/1999/02/22-rdf-syntax-ns#" xmlns:svg="http://www.w3.org/2000/svg" xmlns:sodipodi="http://sodipodi.sourceforge.net/DTD/sodipodi-0.dtd" xmlns:inkscape="http://www.inkscape.org/namespaces/inkscape"
	 xmlns="http://www.w3.org/2000/svg" xmlns:xlink="http://www.w3.org/1999/xlink" x="0px" y="0px" viewBox="-226 350.2 141.7 141.7"
	 style="enable-background:new -226 350.2 141.7 141.7;" xml:space="preserve">
<style type="text/css">
	.st0{fill:#353535;}
	.st1{fill:#FF6952;}
</style>
<sodipodi:namedview  inkscape:pageshadow="2" inkscape:document-units="mm" inkscape:pageopacity="0.0" fit-margin-right="0" inkscape:current-layer="layer1" inkscape:window-y="-8" inkscape:window-maximized="1" fit-margin-bottom="0" inkscape:window-width="1366" inkscape:window-height="705" inkscape:window-x="-8" id="base" pagecolor="#ffffff" bordercolor="#666666" borderopacity="1.0" inkscape:zoom="0.7" inkscape:cx="-111.42857" inkscape:cy="12.035998" showgrid="false" units="mm" fit-margin-top="0" fit-margin-left="0">
	</sodipodi:namedview>
<g>
	<path class="st0" d="M-103.1,407.9h-11.3c-1.8,0-3.3-1-4-2.7c-0.7-1.7-0.3-3.5,0.9-4.7l8-8c1.2-1.2,1.8-2.7,1.8-4.4
		c0-1.7-0.6-3.2-1.8-4.4l-10.2-10.2c-2.3-2.3-6.4-2.3-8.8,0l-8,8c-1.3,1.3-3,1.6-4.7,0.9c-1.7-0.7-2.7-2.2-2.7-4v-11.3
		c0-3.4-2.8-6.2-6.2-6.2h-14.4c-3.4,0-6.2,2.8-6.2,6.2v11.3c0,1.8-1,3.3-2.7,4c-1.7,0.7-3.5,0.3-4.7-0.9l-8-8
		c-2.3-2.3-6.4-2.3-8.8,0l-10.2,10.2c-1.2,1.2-1.8,2.7-1.8,4.4c0,1.7,0.6,3.2,1.8,4.4l8,8c1.3,1.3,1.6,3,0.9,4.7
		c-0.7,1.7-2.2,2.7-4,2.7h-11.3c-3.4,0-6.2,2.8-6.2,6.2v14.4c0,3.4,2.8,6.2,6.2,6.2h11.3c1.8,0,3.3,1,4,2.7c0.7,1.7,0.3,3.4-0.9,4.7
		l-8,8c-1.2,1.2-1.8,2.7-1.8,4.4c0,1.7,0.6,3.2,1.8,4.4l10.2,10.2c2.3,2.3,6.4,2.3,8.8,0l8-8c1.3-1.3,3-1.6,4.7-0.9
		c1.7,0.7,2.7,2.2,2.7,4v11.3c0,3.4,2.8,6.2,6.2,6.2h14.4c3.4,0,6.2-2.8,6.2-6.2v-11.3c0-1.8,1-3.3,2.7-4c1.7-0.7,3.5-0.3,4.7,0.9
		l8,8c2.3,2.3,6.4,2.3,8.8,0l10.2-10.2c1.2-1.2,1.8-2.7,1.8-4.4c0-1.7-0.6-3.2-1.8-4.4l-8-8c-1.3-1.3-1.6-3-0.9-4.7
		c0.7-1.7,2.2-2.7,4-2.7h11.3c3.4,0,6.2-2.8,6.2-6.2v-14.4C-96.9,410.7-99.7,407.9-103.1,407.9L-103.1,407.9z M-101.4,428.5
		c0,1-0.8,1.7-1.7,1.7h-11.3c-3.6,0-6.8,2.1-8.1,5.4c-1.4,3.4-0.7,7,1.9,9.6l8,8c0.7,0.7,0.7,1.8,0,2.5l-10.2,10.2
		c-0.7,0.7-1.8,0.7-2.5,0l-8-8c-2.6-2.6-6.3-3.3-9.6-1.9c-3.4,1.4-5.4,4.5-5.4,8.1v11.3c0,1-0.8,1.7-1.7,1.7h-14.4
		c-1,0-1.7-0.8-1.7-1.7v-11.3c0-3.6-2.1-6.8-5.4-8.1c-1.1-0.5-2.3-0.7-3.4-0.7c-2.3,0-4.5,0.9-6.2,2.6l-8,8c-0.7,0.7-1.8,0.7-2.5,0
		l-10.2-10.2c-0.7-0.7-0.7-1.8,0-2.5l8-8c2.6-2.6,3.3-6.3,1.9-9.6c-1.4-3.4-4.5-5.4-8.1-5.4h-11.3c-1,0-1.7-0.8-1.7-1.7v-14.4
		c0-1,0.8-1.7,1.7-1.7h11.3c3.6,0,6.8-2.1,8.1-5.4c1.4-3.4,0.7-7-1.9-9.6l-8-8c-0.7-0.7-0.7-1.8,0-2.5l10.2-10.2
		c0.7-0.7,1.8-0.7,2.5,0l8,8c2.6,2.6,6.2,3.3,9.6,1.9c3.4-1.4,5.4-4.5,5.4-8.1v-11.3c0-1,0.8-1.7,1.7-1.7h14.4c1,0,1.7,0.8,1.7,1.7
		v11.3c0,3.6,2.1,6.8,5.4,8.1c3.4,1.4,7,0.7,9.6-1.9l8-8c0.7-0.7,1.8-0.7,2.5,0l10.2,10.2c0.7,0.7,0.7,1.8,0,2.5l-8,8
		c-2.6,2.6-3.3,6.2-1.9,9.6c1.4,3.4,4.5,5.4,8.1,5.4h11.3c1,0,1.7,0.8,1.7,1.7V428.5z M-101.4,428.5"/>
	<path class="st1" d="M-157.3,401.2c-11.1,0-20.1,9-20.1,20.1c0,11.1,9,20.1,20.1,20.1c11.1,0,20.1-9,20.1-20.1
		C-137.2,410.2-146.2,401.2-157.3,401.2L-157.3,401.2z M-157.3,437c-8.6,0-15.7-7-15.7-15.7c0-8.6,7-15.7,15.7-15.7
		c8.6,0,15.7,7,15.7,15.7C-141.7,429.9-148.7,437-157.3,437L-157.3,437z M-157.3,437"/>
	<path id="path2042-6" inkscape:connector-curvature="0" class="st1" d="M-27.9,428.1h88.2v-53.8h-88.2V428.1z"/>
</g>
</svg>
