<?xml version="1.0" encoding="utf-8"?>
<!-- Generator: Adobe Illustrator 19.0.0, SVG Export Plug-In . SVG Version: 6.00 Build 0)  -->
<svg version="1.1"
	 id="svg5838" inkscape:version="0.48.4 r9939" sodipodi:docname="obstetrics_history.svg" xmlns:dc="http://purl.org/dc/elements/1.1/" xmlns:cc="http://creativecommons.org/ns#" xmlns:rdf="http://www.w3.org/1999/02/22-rdf-syntax-ns#" xmlns:svg="http://www.w3.org/2000/svg" xmlns:sodipodi="http://sodipodi.sourceforge.net/DTD/sodipodi-0.dtd" xmlns:inkscape="http://www.inkscape.org/namespaces/inkscape"
	 xmlns="http://www.w3.org/2000/svg" xmlns:xlink="http://www.w3.org/1999/xlink" x="0px" y="0px" viewBox="-226 350.2 141.7 141.7"
	 style="enable-background:new -226 350.2 141.7 141.7;" xml:space="preserve">
<style type="text/css">
	.st0{fill:#353535;}
	.st1{fill:#FF6952;}
</style>
<sodipodi:namedview  inkscape:pageshadow="2" inkscape:document-units="mm" inkscape:pageopacity="0.0" fit-margin-right="0" inkscape:current-layer="layer1" inkscape:window-y="-8" inkscape:window-maximized="1" fit-margin-bottom="0" inkscape:window-width="1366" inkscape:window-height="705" inkscape:window-x="-8" id="base" pagecolor="#ffffff" bordercolor="#666666" borderopacity="1.0" inkscape:zoom="0.7" inkscape:cx="-111.42857" inkscape:cy="12.035998" showgrid="false" units="mm" fit-margin-top="0" fit-margin-left="0">
	</sodipodi:namedview>
<g id="layer1" transform="translate(-120,-259.20135)" inkscape:label="Layer 1" inkscape:groupmode="layer">
	<g id="g8399" transform="translate(-558.66705,-673.80735)">
		<path id="path714" inkscape:connector-curvature="0" class="st0" d="M561,1414.2h-5v-41.3c0-0.7,0.3-1.3,0.7-1.8
			c8-8,12.4-18.6,12.4-29.9c0-23.3-19-42.3-42.3-42.3s-42.3,19-42.3,42.3c0,0.6,0,1.3,0.1,1.9c0,0.5-0.1,0.9-0.3,1.4l-12.3,21.3h6.1
			c1.4,0,2.5,1.1,2.5,2.5v17.7c0,5.3,4.3,9.6,9.6,9.6h19.1c1.4,0,2.5,1.1,2.5,2.5v16.1h-5v-13.6h-16.7c-8,0-14.6-6.5-14.6-14.6
			v-15.2h-7.9c-0.9,0-1.7-0.5-2.2-1.3c-0.4-0.8-0.4-1.7,0-2.5l14.1-24.4c0-0.5,0-0.9,0-1.4c0-26.1,21.2-47.3,47.3-47.3
			c26.1,0,47.3,21.2,47.3,47.3c0,12.3-4.6,23.8-13.1,32.6V1414.2"/>
		<path class="st1" d="M513.9,1360.2c0.2,0.1,0.4,0.1,0.6,0.1c0.4,0,0.8-0.2,1.1-0.4l9.3-8.9h17.5c3.8,0,6.9-3.1,6.9-6.9v-19.5
			c0-3.8-3.1-6.9-6.9-6.9h-32c-3.8,0-6.9,3.1-6.9,6.9v19.5c0,3.8,3.1,6.9,6.9,6.9h2.5v7.7C513,1359.4,513.4,1360,513.9,1360.2
			L513.9,1360.2z M510.4,1347.8c-2,0-3.7-1.7-3.7-3.7v-19.5c0-2,1.7-3.7,3.7-3.7h32c2,0,3.7,1.7,3.7,3.7v19.5c0,2-1.7,3.7-3.7,3.7
			h-18.1c-0.4,0-0.8,0.2-1.1,0.4l-7.1,6.8v-5.6c0-0.9-0.7-1.6-1.6-1.6H510.4z M510.4,1347.8"/>
		<path class="st0" d="M526,1336.3c0.6,0,1.2-0.2,1.6-0.7c0.4-0.4,0.7-1,0.7-1.6c0-0.6-0.2-1.2-0.7-1.6c-0.4-0.4-1-0.6-1.6-0.6
			c-0.6,0-1.2,0.2-1.6,0.6c-0.4,0.4-0.7,1-0.7,1.6c0,0.6,0.2,1.2,0.7,1.6C524.8,1336.1,525.4,1336.3,526,1336.3L526,1336.3z
			 M526,1336.3"/>
		<path class="st0" d="M534.4,1336.3c0.6,0,1.2-0.2,1.6-0.7c0.4-0.4,0.6-1,0.6-1.6c0-0.6-0.2-1.2-0.7-1.6c-0.4-0.4-1-0.6-1.6-0.6
			c-0.6,0-1.2,0.2-1.6,0.6c-0.4,0.4-0.7,1-0.7,1.6c0,0.6,0.2,1.2,0.7,1.6C533.2,1336.1,533.8,1336.3,534.4,1336.3L534.4,1336.3z
			 M534.4,1336.3"/>
		<path class="st0" d="M517.6,1336.3c0.6,0,1.2-0.2,1.6-0.7c0.4-0.4,0.7-1,0.7-1.6c0-0.6-0.2-1.2-0.7-1.6c-0.4-0.4-1-0.6-1.6-0.6
			c-0.6,0-1.2,0.2-1.6,0.6c-0.4,0.4-0.7,1-0.7,1.6c0,0.6,0.2,1.2,0.7,1.6C516.4,1336.1,517,1336.3,517.6,1336.3L517.6,1336.3z
			 M517.6,1336.3"/>
	</g>
</g>
</svg>
