<?xml version="1.0" encoding="utf-8"?>
<!-- Generator: Adobe Illustrator 16.0.2, SVG Export Plug-In . SVG Version: 6.00 Build 0)  -->
<!DOCTYPE svg PUBLIC "-//W3C//DTD SVG 1.1//EN" "http://www.w3.org/Graphics/SVG/1.1/DTD/svg11.dtd">
<svg version="1.1" id="Layer_1" xmlns="http://www.w3.org/2000/svg" xmlns:xlink="http://www.w3.org/1999/xlink" x="0px" y="0px"
	 width="65px" height="48px" viewBox="0 0 65 48" enable-background="new 0 0 65 48" xml:space="preserve">
<path fill-rule="evenodd" clip-rule="evenodd" fill="#00E7B4" d="M51.087,17.222C50.265,8.692,43.143,2,34.375,2
	C27.59,2,21.78,6.016,19.102,11.778c-0.805-0.256-1.646-0.431-2.535-0.431c-4.659,0-8.437,3.768-8.437,8.412
	c0,0.924,0.185,1.796,0.461,2.625c-3.623,2.107-6.085,5.975-6.085,10.459c0,6.71,5.456,12.15,12.186,12.15v0.002h33.744v-0.002
	c7.767,0,14.059-6.276,14.059-14.02C62.494,24.136,57.582,18.459,51.087,17.222z M48.436,41.254v0.002H14.691
	c-4.652-0.002-8.437-3.775-8.437-8.414c0-2.991,1.58-5.692,4.226-7.23c2.57-1.473,2.747-1.765,1.668-4.408
	c-0.182-0.543-0.27-1.017-0.27-1.446c0-2.578,2.103-4.673,4.688-4.673c0,0,1.23-0.088,2.535,0.43
	c2.151,0.855,2.386,0.037,3.402-2.167c2.149-4.622,6.809-7.611,11.871-7.611c6.748,0,12.328,5.09,12.979,11.841
	c0.232,2.676,0.232,2.676,3.03,3.315c4.846,0.922,8.363,5.163,8.363,10.079C58.747,36.643,54.122,41.254,48.436,41.254z"/>
</svg>
