<?xml version="1.0" encoding="utf-8"?>
<!-- Generator: Adobe Illustrator 16.0.2, SVG Export Plug-In . SVG Version: 6.00 Build 0)  -->
<!DOCTYPE svg PUBLIC "-//W3C//DTD SVG 1.1//EN" "http://www.w3.org/Graphics/SVG/1.1/DTD/svg11.dtd">
<svg version="1.1" id="Layer_1" xmlns="http://www.w3.org/2000/svg" xmlns:xlink="http://www.w3.org/1999/xlink" x="0px" y="0px"
	 width="65px" height="58px" viewBox="0 0 65 58" enable-background="new 0 0 65 58" xml:space="preserve">
<g>
	<g>
		<path fill="#00E7B4" d="M57.23,8.582c-6.806-6.798-17.683-6.94-24.731-0.544C25.45,1.642,14.575,1.784,7.768,8.582
			c-7.014,7.003-7.014,18.354,0,25.359c2.006,2,20.722,20.687,20.722,20.687c2.218,2.214,5.804,2.214,8.021,0
			c0,0,20.493-20.459,20.721-20.687C64.245,26.937,64.245,15.585,57.23,8.582z M54.557,31.271L33.836,51.959
			c-0.736,0.736-1.938,0.736-2.672,0L10.443,31.271c-5.531-5.521-5.531-14.502,0-20.021c5.331-5.323,13.902-5.509,19.514-0.419
			l2.542,2.306l2.543-2.306c5.61-5.09,14.185-4.904,19.515,0.419C60.088,16.77,60.088,25.752,54.557,31.271z M19.848,12.81
			c-0.004,0-0.004,0.002-0.008,0.002c-4.395,0.004-7.96,3.599-7.96,8.033c0,0.522,0.419,0.945,0.938,0.945s0.938-0.423,0.938-0.945
			v-0.002c0-3.392,2.728-6.143,6.091-6.143h0.002c0.519,0,0.938-0.422,0.938-0.945C20.785,13.232,20.366,12.81,19.848,12.81z"/>
	</g>
</g>
</svg>
