<?xml version="1.0" encoding="utf-8"?>
<!-- Generator: Adobe Illustrator 16.0.2, SVG Export Plug-In . SVG Version: 6.00 Build 0)  -->
<!DOCTYPE svg PUBLIC "-//W3C//DTD SVG 1.1//EN" "http://www.w3.org/Graphics/SVG/1.1/DTD/svg11.dtd">
<svg version="1.1" id="Layer_1" xmlns="http://www.w3.org/2000/svg" xmlns:xlink="http://www.w3.org/1999/xlink" x="0px" y="0px"
	 width="49px" height="65px" viewBox="0 0 49 65" enable-background="new 0 0 49 65" xml:space="preserve">
<g>
	<g>
		<path fill="#00E7B4" d="M24.501,13.277c-6.203,0-11.248,5.045-11.248,11.248c0,6.203,5.045,11.249,11.248,11.249
			S35.75,30.728,35.75,24.525C35.75,18.322,30.704,13.277,24.501,13.277z M24.501,33.898c-5.17,0-9.374-4.204-9.374-9.374
			s4.204-9.373,9.374-9.373c5.171,0,9.374,4.203,9.374,9.373S29.672,33.898,24.501,33.898z M24.499,2.503
			C12.092,2.503,2,12.47,2,25.004C2,38.13,13.25,51.553,21.453,60.986c0.031,0.037,1.347,1.51,2.976,1.51h0.143
			c1.627,0,2.944-1.473,2.975-1.51C35.751,51.552,47,38.13,47,25.004C46.999,12.47,36.907,2.503,24.499,2.503z M24.718,58.527
			c-0.039,0.037-0.154,0.123-0.253,0.186c-0.019-0.054-0.157-0.163-0.241-0.251C17.352,50.557,5.75,37.214,5.75,25.004
			c0-10.339,8.413-18.751,18.749-18.751c10.339,0,18.75,8.412,18.75,18.751C43.249,37.214,31.648,50.557,24.718,58.527z"/>
	</g>
</g>
</svg>
