<?xml version="1.0" encoding="utf-8"?>
<!-- Generator: Adobe Illustrator 16.0.2, SVG Export Plug-In . SVG Version: 6.00 Build 0)  -->
<!DOCTYPE svg PUBLIC "-//W3C//DTD SVG 1.1//EN" "http://www.w3.org/Graphics/SVG/1.1/DTD/svg11.dtd">
<svg version="1.1" id="Layer_1" xmlns="http://www.w3.org/2000/svg" xmlns:xlink="http://www.w3.org/1999/xlink" x="0px" y="0px"
	 width="65px" height="45px" viewBox="0 0 65 45" enable-background="new 0 0 65 45" xml:space="preserve">
<path fill="#00E7B4" d="M54.997,3.003H10.002c-4.141,0-7.498,3.326-7.498,7.428V34.57c0,4.103,3.357,7.428,7.498,7.428h44.995
	c4.142,0,7.498-3.325,7.498-7.428V10.431C62.495,6.329,59.139,3.003,54.997,3.003z M6.252,12.752l13.123,9.749L6.252,32.249V12.752z
	 M58.747,34.57c0,2.049-1.685,3.714-3.75,3.714H10.002c-2.066,0-3.75-1.665-3.75-3.714l14.684-10.908l8.19,6.084
	c0.998,0.74,2.186,1.113,3.373,1.113c1.188,0,2.375-0.373,3.375-1.113l8.188-6.084L58.747,34.57L58.747,34.57z M58.747,32.249
	l-13.123-9.748l13.123-9.749V32.249z M34.749,28.26c-0.653,0.485-1.435,0.743-2.25,0.743c-0.816,0-1.594-0.258-2.25-0.743
	l-7.751-5.759l-1.563-1.16L6.252,10.433v-0.002c0-2.047,1.684-3.714,3.75-3.714h44.995c2.065,0,3.75,1.667,3.75,3.714L34.749,28.26z
	"/>
</svg>
