<?xml version="1.0" encoding="utf-8"?>
<!-- Generator: Adobe Illustrator 16.0.2, SVG Export Plug-In . SVG Version: 6.00 Build 0)  -->
<!DOCTYPE svg PUBLIC "-//W3C//DTD SVG 1.1//EN" "http://www.w3.org/Graphics/SVG/1.1/DTD/svg11.dtd">
<svg version="1.1" id="Layer_1" xmlns="http://www.w3.org/2000/svg" xmlns:xlink="http://www.w3.org/1999/xlink" x="0px" y="0px"
	 width="49px" height="65px" viewBox="0 0 49 65" enable-background="new 0 0 49 65" xml:space="preserve">
<g>
	<g>
		<path fill="#00E7B4" d="M39.408,2.503L9.593,2.505c-3.088,0-5.59,2.517-5.59,5.624v48.744c0,3.105,2.502,5.624,5.59,5.624
			l29.815-0.002c3.088,0,5.59-2.519,5.59-5.624V8.127C44.998,5.021,42.496,2.503,39.408,2.503z M41.271,56.871
			c0,1.034-0.836,1.874-1.863,1.874L9.593,58.747c-1.028,0-1.863-0.84-1.863-1.874v-3.757l33.542-0.002V56.871L41.271,56.871z
			 M41.271,51.239L7.729,51.241V13.753l33.542-0.002V51.239z M41.271,11.876L7.729,11.878V8.129c0-1.035,0.835-1.875,1.863-1.875
			l29.815-0.002c1.026,0,1.862,0.841,1.862,1.875v3.749H41.271z M27.294,8.127h-5.59c-0.515,0-0.932,0.419-0.932,0.937
			c0,0.519,0.417,0.938,0.932,0.938h5.59c0.517,0,0.933-0.419,0.933-0.938C28.227,8.546,27.811,8.127,27.294,8.127z M23.568,56.863
			h1.864c0.516,0,0.932-0.42,0.932-0.938c0-0.518-0.416-0.938-0.932-0.938h-1.864c-0.515,0-0.932,0.421-0.932,0.938
			C22.636,56.443,23.053,56.863,23.568,56.863z"/>
	</g>
</g>
</svg>
