<?xml version="1.0" encoding="utf-8"?>
<!-- Generator: Adobe Illustrator 16.0.2, SVG Export Plug-In . SVG Version: 6.00 Build 0)  -->
<!DOCTYPE svg PUBLIC "-//W3C//DTD SVG 1.1//EN" "http://www.w3.org/Graphics/SVG/1.1/DTD/svg11.dtd">
<svg version="1.1" id="Layer_1" xmlns="http://www.w3.org/2000/svg" xmlns:xlink="http://www.w3.org/1999/xlink" x="0px" y="0px"
	 width="17px" height="17px" viewBox="0 0 17 17" enable-background="new 0 0 17 17" xml:space="preserve">
<g>
	<g>
		<path fill="#979797" d="M43.399,10.592c0.262-0.116,0.459-0.246,0.596-0.387c0.242-0.254,0.363-0.59,0.363-1.006
			c0-0.405-0.121-0.753-0.359-1.042c-0.398-0.475-1.074-0.717-2.029-0.729h-3.787v6.827h3.531c0.396,0,0.766-0.03,1.107-0.09
			c0.338-0.063,0.635-0.176,0.883-0.342c0.223-0.148,0.406-0.327,0.555-0.54c0.232-0.321,0.35-0.683,0.35-1.087
			c0-0.393-0.104-0.725-0.307-1.001C44.098,10.92,43.797,10.721,43.399,10.592z M39.747,8.617h1.703
			c0.375,0,0.686,0.034,0.926,0.105c0.279,0.104,0.42,0.311,0.42,0.63c0,0.287-0.105,0.486-0.316,0.6
			c-0.215,0.112-0.49,0.168-0.83,0.168h-1.902V8.617z M42.44,12.951c-0.189,0.079-0.453,0.121-0.793,0.121h-1.9v-1.819h1.928
			c0.336,0.001,0.596,0.04,0.781,0.114c0.334,0.132,0.5,0.375,0.5,0.731C42.956,12.517,42.784,12.802,42.44,12.951z M49.241,13.126
			c-0.213,0.154-0.494,0.231-0.84,0.231c-0.324,0-0.604-0.063-0.832-0.189c-0.381-0.205-0.584-0.559-0.607-1.067h4.219
			c0.006-0.436-0.01-0.769-0.051-1c-0.07-0.396-0.225-0.743-0.461-1.044c-0.264-0.341-0.598-0.589-1.002-0.748
			c-0.404-0.156-0.857-0.237-1.361-0.237c-0.85,0-1.539,0.235-2.07,0.701c-0.533,0.467-0.799,1.139-0.799,2.012
			c0,0.935,0.295,1.607,0.883,2.022c0.592,0.414,1.27,0.621,2.041,0.621c0.934,0,1.66-0.247,2.178-0.735
			c0.334-0.31,0.521-0.616,0.563-0.914h-1.545C49.463,12.929,49.36,13.043,49.241,13.126z M47.401,10.451
			c0.215-0.191,0.516-0.288,0.904-0.288c0.357,0,0.656,0.091,0.896,0.272c0.242,0.18,0.377,0.447,0.406,0.799h-2.609
			C47.053,10.903,47.188,10.644,47.401,10.451z M50.368,8.129h-4.061v0.7h4.061V8.129z"/>
	</g>
</g>
<g>
	<g>
		<path fill="#5DC2A4" d="M43.399,18.505c0.262-0.116,0.459-0.246,0.596-0.387c0.242-0.254,0.363-0.59,0.363-1.006
			c0-0.405-0.121-0.753-0.359-1.042c-0.398-0.475-1.074-0.717-2.029-0.729h-3.787v6.827h3.531c0.396,0,0.766-0.03,1.107-0.09
			c0.338-0.063,0.635-0.176,0.883-0.342c0.223-0.148,0.406-0.327,0.555-0.54c0.232-0.321,0.35-0.683,0.35-1.087
			c0-0.393-0.104-0.725-0.307-1.001C44.098,18.833,43.797,18.634,43.399,18.505z M39.747,16.53h1.703
			c0.375,0,0.686,0.034,0.926,0.105c0.279,0.104,0.42,0.311,0.42,0.63c0,0.287-0.105,0.486-0.316,0.6
			c-0.215,0.112-0.49,0.168-0.83,0.168h-1.902V16.53z M42.44,20.864c-0.189,0.079-0.453,0.121-0.793,0.121h-1.9v-1.819h1.928
			c0.336,0.001,0.596,0.04,0.781,0.114c0.334,0.132,0.5,0.375,0.5,0.731C42.956,20.43,42.784,20.715,42.44,20.864z M49.241,21.04
			c-0.213,0.154-0.494,0.231-0.84,0.231c-0.324,0-0.604-0.063-0.832-0.189c-0.381-0.205-0.584-0.559-0.607-1.067h4.219
			c0.006-0.436-0.01-0.769-0.051-1c-0.07-0.396-0.225-0.743-0.461-1.044c-0.264-0.341-0.598-0.589-1.002-0.748
			c-0.404-0.156-0.857-0.237-1.361-0.237c-0.85,0-1.539,0.235-2.07,0.701c-0.533,0.467-0.799,1.139-0.799,2.012
			c0,0.935,0.295,1.607,0.883,2.022c0.592,0.414,1.27,0.621,2.041,0.621c0.934,0,1.66-0.247,2.178-0.735
			c0.334-0.31,0.521-0.616,0.563-0.914h-1.545C49.463,20.842,49.36,20.956,49.241,21.04z M47.401,18.364
			c0.215-0.191,0.516-0.288,0.904-0.288c0.357,0,0.656,0.091,0.896,0.272c0.242,0.18,0.377,0.447,0.406,0.799h-2.609
			C47.053,18.816,47.188,18.557,47.401,18.364z M50.368,16.042h-4.061v0.7h4.061V16.042z"/>
	</g>
</g>
<g>
	<g>
		<path fill-rule="evenodd" clip-rule="evenodd" fill="#979797" d="M19.609,16.661h1.875V9.162h-1.875V16.661z M27.108,9.162
			c-1.605,0.027-2.395,1.197-2.5,1.25v-1.25h-1.875v7.499h1.875v-4.374c0-0.161,0.396-1.445,1.875-1.25
			c0.795,0.051,1.223,1.103,1.25,1.25v4.374l1.867,0.009v-5.192C29.535,10.728,29.16,9.188,27.108,9.162z M20.546,6.662
			c-0.518,0-0.938,0.419-0.938,0.937s0.42,0.938,0.938,0.938s0.938-0.419,0.938-0.938S21.064,6.662,20.546,6.662z"/>
	</g>
</g>
<g>
	<g>
		<path fill-rule="evenodd" clip-rule="evenodd" fill="#5DC2A4" d="M19.609,27.733h1.875v-7.499h-1.875V27.733z M27.108,20.234
			c-1.605,0.027-2.395,1.197-2.5,1.25v-1.25h-1.875v7.499h1.875V23.36c0-0.162,0.396-1.446,1.875-1.25
			c0.795,0.051,1.223,1.102,1.25,1.25v4.373l1.867,0.01V22.55C29.535,21.801,29.16,20.261,27.108,20.234z M20.546,17.734
			c-0.518,0-0.938,0.419-0.938,0.937s0.42,0.938,0.938,0.938s0.938-0.419,0.938-0.938S21.064,17.734,20.546,17.734z"/>
	</g>
</g>
<g>
	<g>
		<path fill="#FFFFFF" d="M4.391,12.832c-2.416-2.339-2.416-6.145,0-8.484c2.328-2.254,6.241-2.503,8.879-0.002l1.304-1.636
			C11.025-0.356,6.051-0.088,2.931,2.933c-3.222,3.119-3.171,8.142,0,11.313c5.998,5.999,12.976-1.597,12.976-1.597
			s-1.639-1.048-1.71-1.119C12.683,13.043,8.501,16.813,4.391,12.832z M11.501,6.512l4.986,0.019l0.016-6.011L11.501,6.512z"/>
	</g>
</g>
</svg>
