<?xml version="1.0" encoding="utf-8"?>
<!-- Generator: Adobe Illustrator 16.0.2, SVG Export Plug-In . SVG Version: 6.00 Build 0)  -->
<!DOCTYPE svg PUBLIC "-//W3C//DTD SVG 1.1//EN" "http://www.w3.org/Graphics/SVG/1.1/DTD/svg11.dtd">
<svg version="1.1" id="Layer_1" xmlns="http://www.w3.org/2000/svg" xmlns:xlink="http://www.w3.org/1999/xlink" x="0px" y="0px"
	 width="65px" height="64px" viewBox="0 0 65 64" enable-background="new 0 0 65 64" xml:space="preserve">
<path fill="#00E7B4" d="M62.272,24.885c-0.519-1.495-1.851-2.589-3.454-2.827l-15.61-2.316L36.422,5.686
	c-0.713-1.476-2.241-2.42-3.922-2.42c-1.679,0-3.208,0.944-3.922,2.42l-6.785,14.056L6.182,22.058
	c-1.604,0.237-2.937,1.332-3.453,2.827c-0.516,1.498-0.126,3.147,1.007,4.275l11.439,11.397l-2.653,15.811
	c-0.269,1.591,0.423,3.189,1.778,4.122c0.745,0.509,1.621,0.769,2.496,0.769c0.719,0,1.44-0.175,2.096-0.525L32.5,53.422
	l13.609,7.311c0.656,0.35,1.377,0.525,2.096,0.525c0.877,0,1.75-0.259,2.496-0.769c1.355-0.933,2.045-2.531,1.778-4.122
	l-2.655-15.811L61.266,29.16C62.398,28.032,62.787,26.383,62.272,24.885z M46.725,37.618c-0.959,0.955-1.395,2.298-1.173,3.617
	l2.653,15.812l-13.609-7.31c-0.653-0.351-1.375-0.526-2.096-0.526c-0.72,0-1.441,0.175-2.095,0.526l-13.61,7.31l2.655-15.812
	c0.221-1.319-0.214-2.662-1.174-3.617L6.837,26.222l15.61-2.32c1.426-0.212,2.654-1.102,3.268-2.372L32.5,7.476l6.787,14.054
	c0.613,1.27,1.84,2.16,3.266,2.372l15.611,2.32L46.725,37.618z"/>
</svg>
