<?xml version="1.0" encoding="utf-8"?>
<!-- Generator: Adobe Illustrator 16.0.2, SVG Export Plug-In . SVG Version: 6.00 Build 0)  -->
<!DOCTYPE svg PUBLIC "-//W3C//DTD SVG 1.1//EN" "http://www.w3.org/Graphics/SVG/1.1/DTD/svg11.dtd">
<svg version="1.1" id="Layer_1" xmlns="http://www.w3.org/2000/svg" xmlns:xlink="http://www.w3.org/1999/xlink" x="0px" y="0px"
	 width="50px" height="37px" viewBox="0 0 50 37" enable-background="new 0 0 50 37" xml:space="preserve">
<path fill="#00E7B4" d="M45.015,4.519h-1.273c-0.756,0-1.48,0.292-2.018,0.813l-3.896,3.764V7.337c0-2.335-1.93-4.227-4.311-4.227
	H6.206c-2.377,0-4.312,1.896-4.312,4.227v9.822v12.72c0,2.335,1.93,4.227,4.312,4.227h27.311c2.381,0,4.311-1.892,4.311-4.227
	v-1.718l3.896,3.764c0.537,0.521,1.262,0.813,2.018,0.813h1.273c1.588,0,2.875-1.262,2.875-2.818V7.337
	C47.89,5.78,46.603,4.519,45.015,4.519z M6.206,31.288c-0.793,0-1.438-0.632-1.438-1.409V7.337c0-0.779,0.644-1.409,1.438-1.409
	h27.311c0.793,0,1.438,0.632,1.438,1.409v22.542c0,0.777-0.645,1.409-1.438,1.409H6.206z M45.015,29.919h-1.273h-0.164l-5.75-5.636
	v-0.04l-1.438-1.408v-8.454l7.188-7.044h0.164h1.273V29.919z"/>
<path fill-rule="evenodd" clip-rule="evenodd" fill="#00E7B4" d="M17.739,13.608v9.999l3.999-4l1-0.999L17.739,13.608z"/>
</svg>
